<?xml version="1.0" standalone="no"?>
<!DOCTYPE svg PUBLIC "-//W3C//DTD SVG 20010904//EN"
 "http://www.w3.org/TR/2001/REC-SVG-20010904/DTD/svg10.dtd">
<svg version="1.0" xmlns="http://www.w3.org/2000/svg"
 width="16.000000pt" height="16.000000pt" viewBox="0 0 16.000000 16.000000"
 preserveAspectRatio="xMidYMid meet">
<metadata>
Created by potrace 1.11, written by Peter Selinger 2001-2013
</metadata>
<g transform="translate(0.000000,16.000000) scale(0.005333,-0.005333)"
fill="#000000" stroke="none">
<path d="M1320 2844 c-211 -40 -292 -65 -433 -135 -362 -180 -623 -505 -723
-900 -21 -86 -27 -135 -31 -280 -6 -206 8 -313 62 -476 159 -476 542 -813
1045 -919 117 -25 390 -25 512 -1 479 96 877 437 1037 890 54 155 74 272 74
452 1 247 -41 425 -150 636 -188 363 -529 624 -933 714 -73 16 -402 30 -460
19z m66 -171 c104 -88 332 -318 413 -416 l65 -78 115 113 c64 62 146 142 182
176 l66 63 54 -42 c69 -53 66 -51 52 -56 -27 -10 -328 -215 -378 -258 l-54
-46 53 -82 c251 -384 399 -810 460 -1322 l15 -120 -57 -52 c-31 -28 -58 -50
-59 -49 -2 1 -28 101 -58 221 -150 595 -339 1010 -574 1257 l-78 82 -99 -86
c-55 -48 -135 -120 -179 -162 l-80 -74 24 -44 c86 -156 157 -299 195 -390 113
-270 193 -598 211 -863 3 -49 8 -120 11 -157 l6 -67 -37 -7 c-20 -3 -38 -5
-40 -3 -2 2 -15 72 -29 154 -90 516 -236 895 -436 1134 l-54 64 -39 -44 c-74
-82 -218 -312 -292 -462 -61 -124 -117 -273 -172 -457 -3 -11 -19 1 -55 39
-82 89 -80 82 -57 196 53 260 176 544 344 795 l97 145 -134 130 c-73 72 -179
168 -236 214 -56 46 -102 87 -102 92 0 8 60 85 116 148 l40 44 114 -94 c63
-51 176 -152 250 -225 l135 -132 90 85 c50 47 128 115 174 151 l83 65 -83 82
c-94 91 -240 223 -311 281 -26 22 -47 42 -47 45 -1 5 175 62 224 72 57 13 73
7 151 -60z m545 -109 c84 -43 65 -183 -26 -200 -78 -14 -135 29 -135 103 0 38
6 51 34 79 39 39 77 44 127 18z m-777 -234 c65 -24 84 -127 34 -177 -49 -48
-144 -39 -173 18 -52 100 35 199 139 159z"/>
</g>
</svg>
