<?xml version="1.0" encoding="utf-8"?>
<!-- Generator: Adobe Illustrator 20.1.0, SVG Export Plug-In . SVG Version: 6.00 Build 0)  -->
<svg version="1.1" id="Layer_1" xmlns="http://www.w3.org/2000/svg" xmlns:xlink="http://www.w3.org/1999/xlink" x="0px" y="0px"
	 viewBox="0 0 58.5 58.1" style="enable-background:new 0 0 58.5 58.1;fill:white;" xml:space="preserve">
<g>
	<path class="st0" d="M57.4,12.4c1.2,1.2,1.4,3.2,0.4,4.6L51,27.1c-0.9,1.4-2.4,3.6-3.4,5l-16.7,25c-0.9,1.4-2.4,1.4-3.3,0l-16.7-25
		c-0.9-1.4-2.4-3.6-3.4-5L0.6,17c-0.9-1.4-0.7-3.4,0.4-4.6L12.6,0.9c1.2-1.2,3.1-1.2,4.2,0l10.3,10.3c1.2,1.2,3.1,1.2,4.2,0
		L41.7,0.9c1.2-1.2,3.1-1.2,4.2,0L57.4,12.4z"/>
</g>
</svg>
