<?xml version="1.0" encoding="utf-8"?>
<!-- Generator: Adobe Illustrator 21.0.2, SVG Export Plug-In . SVG Version: 6.00 Build 0)  -->
<svg version="1.1" id="Layer_1" xmlns="http://www.w3.org/2000/svg" xmlns:xlink="http://www.w3.org/1999/xlink" x="0px" y="0px"
	 viewBox="0 0 124.6 123.2" style="enable-background:new 0 0 124.6 123.2;" xml:space="preserve">
<path d="M75.3,80c5-1.3,7.2-5.4,8.9-9.7c0.2-0.6,0.7-1.2,1-1.7c0.5-0.7,1.1-1.5,1.2-2.4c0.7-3.9,0.3-5.2-0.1-6.3
	c-0.3-0.9-0.5-1.7-0.2-3.7c0.9-6.2-1.5-8.1-4.1-10.1l-2-1.7c-1.2-1.2-1.7-2.2-2.1-3.2c-0.7-1.6-1.3-3.2-4.9-4.8
	c-4.8-2.1-10.7-1.1-14.2,0.8c-1.5,0.8-3,0.8-4.6,0.8c-1.5,0-3,0-4.7,0.7c-2,0.8-2.5,1.6-3.3,2.7c-0.6,0.8-1.3,1.7-2.7,3
	c-3.1,2.8-3,4.5-2.9,7.3l0,1.7c0,1.5-0.4,2.1-0.8,2.8c-0.7,1.1-1.5,2.5-1.5,7.3c0,7.9,5.1,10.7,6.8,11.6l0.3,0.1
	c0.6,0.4,1,1,1.5,1.6c0.5,0.7,1,1.6,2,2.4c2.8,2.2,4,2.1,4.9,1.9l0.5-0.1c3.6,0,4.6,0.8,5.5,1.6c0.8,0.7,1.6,1.4,3.9,1.4
	c3.5,0,4.1-0.5,5.1-1.4C69.6,82.3,70.9,81.2,75.3,80z M53.4,79.8c-0.3-0.2,0.3-0.4,0.8-0.5c0.5-0.2,0.8-0.4,1-0.2
	C55.4,79.3,53.5,79.9,53.4,79.8z M58.3,69.2c8,3,12.4,0.8,12.4,0.8s-4,2.6-10.7,0.4c-9.1-2.9-6.5-8.2-6.5-8.2S52.5,67,58.3,69.2z
	 M60.1,47.4c1-0.6,2.5-1.7,3.2-2.1l0.1,2.2L60.1,47.4z M63.4,48.3l0,0.2l-0.1,0.1c0,0-0.7,0.6-1.4,0.6c-0.4,0-0.7-0.2-1-0.5
	l-0.1-0.1c0-0.1,0-0.2,0-0.3L63.4,48.3z M60.5,48.2c0,0.1,0,0.3,0,0.4l0,0c0,0-0.6,0.6-1.3,0.6c-0.4,0-0.7-0.2-1-0.5l0,0
	c0-0.1,0-0.3,0.1-0.5L60.5,48.2z M59.2,49.6c0.7,0,1.3-0.3,1.5-0.6c0.3,0.3,0.7,0.5,1.1,0.5c0.7,0,1.4-0.4,1.7-0.6
	c0.9,0.7,2,0.4,2.6,0c0.8,0.9,2.2,0.5,2.6,0.3c0.8,0.8,1.5,1,2,1c-0.3,0.8-0.9,2.7-0.9,6c0,3.7,0.9,7.1,1.2,8.2
	c-1.2-0.2-5.1-0.8-6.2-1.2c-1.3-0.5-6.5-0.8-7.2-0.8c-0.2-0.3-1.1-1.8-1.1-5.9c0-5.3,1.2-7.2,1.6-7.7C58.4,49.4,58.7,49.6,59.2,49.6
	z M64.4,47.5l-0.1-2l4.7,2.2L64.4,47.5z M69,48.5l2.6,0.1c0.1,0.6-0.2,1-0.4,1.3l-0.2,0c0,0-1,0.3-2.1-1l0,0L69,48.5z M68.7,48.5
	l0,0.4c-0.1,0.1-1.7,0.7-2.3-0.2l0,0l0-0.2L68.7,48.5z M66,48.4l0,0.2l0,0c0,0-0.8,0.5-1.6,0.4l0-0.6L66,48.4z M75,75.2
	c0.7,0,1.6-0.1,1.7,0.1c0.1,0.3,0.1,0.3,0.1,0.3s-0.9,0.3-1.5,0.4c-0.5,0-1.3,0.1-1.4,0.4c-0.2,0.2-0.4,0.2-0.8-0.1
	c-0.4-0.3-0.8-0.5-1.4-0.1c-0.7,0.4-0.8,0.4-0.8,0.4s0.2-0.7-0.9-0.7c-1.1,0-1.7-0.3-1.7-0.4s0.6-0.5,1.6-0.3
	c0.9,0.1,2.6,0.3,3.1,0.1c0.5-0.2,1.6-1.2,1.6-1.4c0-0.3-1.4,0-2.2-0.3c-0.8-0.3-3-0.1-3.4,0.5c-0.4,0.6-2.2,1.7-2.2,1.1
	c0-0.4,0.8-0.2,1.1-0.8c0.4-0.6,1.7-1.2,3.5-1.2c1.8,0,2.5,0.8,4.3,0.1c0,0-0.1,0.4-0.9,1C74,74.9,74.3,75.2,75,75.2z M74.6,78.4
	c-0.4,0-1.2-0.1-1-0.4c0.1-0.2,0.2-0.3,0.2-0.3c0.1-0.1,0.4,0.1,1,0.1s1.1-0.1,1.1,0.2S75,78.5,74.6,78.4z M73,77.4
	c-0.2,0.1-0.8,0.2-0.9,0.2c-0.3-0.1,0.5-0.9,0.9-0.8C73.4,76.8,73.2,77.2,73,77.4z M62.5,74.8c-0.3,0-0.7-0.1-0.6-0.5
	c0-0.2,1.3,0,1.7,0.4C63.9,75,62.7,74.8,62.5,74.8z M60.9,74.2c-0.1,0.5-1.5,0.6-1.5,0.6c0.6-0.5-0.1-0.7,0.3-0.7
	c0.2,0,0.5-0.1,0.8-0.2c0.1,0,0.3,0,0.3,0C60.8,74.1,60.9,74.1,60.9,74.2z M57.7,76.3c-0.3,0.6-2.1,0.9-2.8,0.4
	c-0.3-0.3,0.8-0.3,1.3-0.7c0.5-0.4,1.9-0.8,2.1-0.5S58,75.7,57.7,76.3z M59,78.7c0.9,0.3,1.2,0.3,1.2,0.5c0.1,0.1-3.9-0.5-2.6-0.9
	C58.1,78.2,58.2,78.4,59,78.7z M68.5,67.1c-1.3,0-2.5-0.1-3.5-0.2L64.9,64c1.7,0.5,6.2,1.1,6.4,1.2l0.4,0.1l-0.1-0.4
	c0,0-1.2-4-1.2-8.4c0-1,0.1-1.9,0.1-2.7c1,1.6,3.6,5.9,5.1,7.7C73.3,62.9,74,67.1,68.5,67.1z M72.7,67.1c0,0-1.5,3-9.1,1.9
	c-9.2-1.3-9.3-5.6-9.3-5.6s1.2,2.7,6.2,4.1C69.5,70.2,72.7,67.1,72.7,67.1z M65.6,72.5c3.8,0,5-0.6,5-0.6s-0.5,1-3.9,1
	c-12.8,0-14.5-6.3-14.5-6.3S55.2,72.5,65.6,72.5z M54.9,74.7c0.5,0.4,0.8,0,0.8,0.3c0,0.3-0.1,0.3-0.5,0.3c-0.4,0-1.4-0.3-1.7-0.5
	C53.2,74.5,54.4,74.3,54.9,74.7z M62.4,78c0.5-0.3,0.7-0.7,0.2-0.7c-0.5,0-1.8,0-2.6-0.4c-0.8-0.4-1.3-0.6-1.3-0.6
	c0.3-0.2,1-0.2,1.7,0.2c0.7,0.4,2.9,0.3,3.5-0.1c0.6-0.5,1-0.6,0.7-0.9c-0.3-0.3-0.5-0.8-0.3-0.7s1.7,0.4,1.8,0.4
	c0.1,0-1.8,0.9-1.5,1.6c0,0,1.3-0.6,2-0.1s2.1,0.2,2.1,0.2s-0.9,0.8-2.3,0.4c-1.4-0.4-2.8,0-2.9,0.2c-0.1,0.2-0.1,0.7,0.2,0.8
	c0.3,0,1.1-0.5,2,0.2c0,0-0.9,0.3-1.2,0.5c-0.3,0.2,0,0.4-0.7,0.1c-0.8-0.2-1.5-0.6-1.6-0.7C61.9,78.3,61.9,78.2,62.4,78z
	 M67.9,81.7c0,0-1.8,0-2.1-0.4c0,0,0.5-0.3,0.6-0.4c0-0.1,0.1,0.5,1.1,0.4C68.1,81.3,67.9,81.7,67.9,81.7z M64.9,81
	c-0.1,0.2-0.8,0-0.9-0.3c-0.1-0.2,1-0.2,1.3,0.1C65.3,81,65,80.8,64.9,81z M45.8,74.9l-0.3-0.2c-1.8-1-6.5-3.5-6.5-11
	c0-4.7,0.8-5.9,1.4-7c0.5-0.8,0.9-1.5,0.9-3.2l0-1.7c-0.1-2.8-0.1-4.2,2.7-6.8c1.5-1.4,2.2-2.4,2.8-3.2c0.8-1.1,1.2-1.7,3-2.5
	c0.6-0.2,1.2-0.4,1.8-0.5c-0.1,0.1-0.2,0.2-0.2,0.3c-0.1,0-0.2,0.1-0.3,0.2c-0.1,0-0.2-0.1-0.3-0.1c-0.3,0-0.5,0.2-0.5,0.4
	c-0.1,0-0.1-0.1-0.2-0.1c-0.2,0-0.3,0.1-0.4,0.3c-0.1,0-0.2,0.1-0.3,0.2c0,0-0.1,0-0.1,0c-0.1,0-0.2,0.1-0.2,0.2
	c0,0.1,0.1,0.2,0.2,0.2c0,0,0.1,0,0.1-0.1c0.1,0.1,0.1,0.1,0.3,0.1c0.1,0,0.2-0.1,0.3-0.2c0,0,0,0,0,0c0.1,0,0.2,0,0.3-0.1
	c0.1,0,0.1,0.1,0.2,0.1c0.1,0,0.1,0,0.2-0.1c0,0,0,0,0.1,0c0.2,0,0.4-0.1,0.4-0.3c0.1,0.1,0.2,0.1,0.3,0.1c0.3,0,0.5-0.2,0.5-0.5
	c0-0.1,0-0.1,0-0.2c0.1-0.1,0.2-0.2,0.2-0.3c0-0.2-0.1-0.3-0.3-0.4c0.4,0,0.7-0.1,1.1-0.1c-0.1,0.1-0.1,0.1-0.1,0.2
	c0,0.2,0.2,0.3,0.3,0.3c0.2,0,0.3-0.2,0.3-0.3c0-0.1-0.1-0.2-0.1-0.3c0.2,0,0.4,0,0.6,0c1.6,0,3.3,0,4.9-0.9
	c-0.1,0.1-0.1,0.2-0.1,0.3c0,0.2,0.2,0.4,0.4,0.4c0.2,0,0.4-0.2,0.4-0.4c0-0.2-0.2-0.4-0.4-0.4c3.4-1.7,8.8-2.6,13.2-0.6
	c1.6,0.7,2.5,1.4,3.2,2.1c-0.2,0-0.3,0.1-0.3,0.3c0,0.2,0.1,0.3,0.3,0.3c0,0,0,0,0,0c0,0,0,0,0,0.1c0,0.2,0.2,0.4,0.4,0.4
	c0.1,0,0.2-0.1,0.3-0.1c0.3,0.5,0.5,1,0.7,1.5c0.4,1,0.9,2.2,2.2,3.5l2,1.7c2.5,2,4.7,3.7,3.9,9.4c-0.3,2.2-0.1,3.1,0.2,4
	c0.3,1.1,0.7,2.2,0,6c-0.1,0.8-0.6,1.4-1.1,2.1c-0.4,0.6-0.8,1.2-1.1,1.9c-0.8,2-1.7,4-3,5.7c-1.2,0.2-2.7,0-2.7,0s1.6-0.3,1.8-0.2
	c0.2,0,0.2-0.3,1.2-1.5c1-1.3,0.1-1.6,0.4-1.6c0.3-0.1,1.1-1,1.3-1.5c0.2-0.5-1.1-0.3-2.3-0.3c-1.2,0-2.5,0.9-2.2,1.2
	c0.3,0.4,0.7,0.3,1.6,0.1c0.9-0.2,1.2,0.3,0.8,0.7c-0.4,0.4-1.1,0.1-1.6,0.1c-0.5,0-1.9,0-2.1,0c0.1,0,0.2-0.1,0.2-0.5
	c0-0.5-0.8-0.5-1.4-0.5c0.7-0.7,1.1-1.4,1.1-2.1c0-2.1-0.4-1.7-0.4-3.5c0-1.8,0.5-2.4,1.1-2.4c0.6,0,1,0.2,1.6,0.2
	c0.6,0,1.1-0.2,1.1-0.9c0-1.2-0.5-2.4-2.4-2.4c-0.6,0-1,0.1-1.4,0.3c-1.7-1.8-5-7.5-5.4-8.2c0.3-1.9,0.7-2.7,0.8-2.7l0.2-0.3
	c0.2-0.3,0.5-0.7,0.4-1.3l0.4,0c0.2,0,0.4-0.2,0.4-0.4c0-0.2-0.2-0.4-0.4-0.4L70,47.8c0-0.1-0.1-0.1-0.1-0.2L64.3,45l-0.2-6.7
	c0.2-0.2,0.4-0.4,0.4-0.7c0-0.5-0.4-0.9-0.9-0.9c-0.5,0-0.9,0.4-0.9,0.9c0,0.3,0.2,0.6,0.4,0.8c-0.6,0.3-1.7,1-2.5,1.1
	c-0.6,0-1.2,0.3-1.9,0.6c-0.6,0.3-1.2,0.5-1.7,0.6c-1.4,0.2-2,1.3-2.1,1.3c-0.1,0.1,0,0.2,0,0.3c0.1,0.1,0.2,0.1,0.3,0.1
	c0.4-0.2,1.7-0.6,2.3-0.2c0.2,0.1,0.3,0.1,0.4,0.2c-2.7,1.6-3,2.1-3,2.3c0,0,0,0.1,0,0.1c0,0.1,0.1,0.2,0.2,0.3
	c0.2,0.1,0.3,0,0.5-0.1c0.4-0.2,1.1-0.5,2.4-0.5c1.8,0,4.1-0.9,5.2-1.3l0.1,1.8l-4,2.6l-1.7-0.1c-0.2,0-0.4,0.2-0.4,0.4
	c0,0.2,0.2,0.4,0.4,0.4l0.4,0c-0.1,0.2-0.1,0.3-0.1,0.5l0,0c-0.1,0.1-1.9,1.7-1.9,8.3c0,4.9,1.3,6.2,1.3,6.3l0.1,0.1l0.1,0
	c0.1,0,4.4,0.2,6.4,0.6l0.1,3c-7.1-1-8.8-4.2-8.8-5.2c0-1.1,0.7-2.6,0.7-4c0-1.4-0.2-2.4-1-3.4c-0.8-1.1,0.1-1.5-0.4-2
	c-0.6-0.5-1.2,0.3-1.5,0.3c-0.3,0-0.4-0.3-0.3-0.7c0.2-0.4,0.4-0.8,0-1.2c-0.5-0.4-0.4,0-0.9,0.8c-0.6,0.8-1.2,0-1.7,0.4
	c-1.4,1.2-0.1,1.4-1.9,2.4c-0.8,0.4-1.5,0.7-1.5,1.7c0,0.6,1.1,0.9,2,0.6c0.9-0.4,1.1,0.3,0.6,0.7c-0.5,0.4-0.6,0.7-0.4,1
	c0.1,0.3,0.7,0.4,1.1,0.1c0.8-0.7,2.1-0.6,2.1-0.2c0,1.1-2.6,3.6-2.6,7.1c0,2.7,1.5,5.8,5.4,7.9c-0.1,0.4-0.3,0.9-1.2,0.9
	c-1.4,0-2.7-1-4.2-1c-1.5,0-3.4,0.7-3.4,1.2c0,0.5,0.7,0.6,1.7,0.6c1,0,2.5,0.4,2.4,0.8c-0.3,0.8-0.5-0.3-2.2-0.3
	c-0.6,0-1,0.1-1.3,0.3C46.2,75.2,46,75,45.8,74.9z M59.2,42C59.2,42,59.2,42,59.2,42c0.1-0.1,0.1-0.2,0.1-0.2c0-0.1,0-0.1,0-0.1
	c-0.1-0.1-0.2-0.1-0.3-0.1c-0.1,0.1-0.2,0.1-0.3,0.2c-0.2,0.1-0.5,0.2-0.9-0.1c-0.5-0.3-1.2-0.3-1.8-0.2c0.3-0.2,0.6-0.4,1-0.4
	c0.7-0.1,1.3-0.4,1.9-0.6c0.6-0.3,1.2-0.5,1.7-0.6c0.8,0,1.9-0.6,2.5-1l0.1,3.5c-0.9,0.4-3.4,1.4-5.1,1.4c-1.1,0-1.8,0.2-2.2,0.4
	c0.6-0.5,1.8-1.2,3-1.9c0.1,0,0.1-0.1,0.2-0.1C59.1,42.1,59.1,42.1,59.2,42C59.2,42,59.2,42,59.2,42z M51.2,52.6c0,0,0.2,0,0.5,0
	s0.3-0.1,0.3-0.1c0.2,1.7-0.5,1.8-0.5,1.8L51.3,54c0,0,0.4-0.1,0.4-0.4S51.2,53.4,51.2,52.6z M50.8,77c-0.7,0.3-0.6,0.3-0.8,0.2
	c-0.2-0.1,0.3-0.6,0.8-0.7c0.5-0.1,1,0.1,1.1,0.4C52,77.1,51.4,76.7,50.8,77z"/>
<path d="M57,60.3l0,0.6l1.1,0.1l0-0.6c-0.1,0-0.2-0.1-0.3-0.1c-0.1-0.1-0.1-0.2-0.1-0.4c0-0.1,0-0.3,0.1-0.6l0.1-0.4l1,0.1l0.1,0.6
	l0,0.2c0,0.1,0,0.3,0,0.4c0,0.1,0,0.2-0.1,0.2c0,0.1-0.1,0.1-0.3,0.1l0,0.6l1.6,0.1l0-0.6c-0.1,0-0.2-0.1-0.2-0.2
	c-0.1-0.1-0.2-0.5-0.2-1.1l-0.8-6l-0.3,0l-1.2,5.8C57.4,59.9,57.2,60.3,57,60.3z M58.5,56.1l0.3,2.3l-0.8-0.1L58.5,56.1z"/>
<path d="M62.7,60.7c-0.2,0-0.3-0.1-0.3-0.2c0-0.1-0.1-0.4-0.1-0.7l0-1.5l0.4-0.7l0.6,2.2c0.1,0.3,0.1,0.6,0.1,0.7
	c0,0.2-0.1,0.3-0.4,0.3l0,0.6l1.9,0.1l0-0.6c-0.2,0-0.3-0.1-0.4-0.3c-0.1-0.2-0.2-0.5-0.3-1.1l-0.8-3.2l0.3-0.6
	c0.3-0.5,0.5-0.9,0.7-1c0.2-0.1,0.3-0.2,0.4-0.2l0-0.6l-1.5-0.1l0,0.6c0.2,0,0.3,0.1,0.3,0.4c0,0.2-0.1,0.5-0.3,0.8l-1,1.8l0.1-2.1
	c0-0.3,0-0.6,0.1-0.7c0.1-0.1,0.2-0.2,0.3-0.2l0.1,0l0-0.6l-1.8-0.1l0,0.6l0.1,0c0.2,0,0.3,0.1,0.3,0.2c0,0.1,0.1,0.4,0.1,0.7
	l-0.1,4.5c0,0.3,0,0.6-0.1,0.7c-0.1,0.1-0.2,0.2-0.3,0.2l-0.1,0l0,0.6l1.7,0.1L62.7,60.7z"/>
<path d="M65.5,55.2c0,1.1,0.4,2.9,1.5,3l-0.1,1.9c0,0.3,0,0.6-0.1,0.7c0,0.1-0.1,0.2-0.3,0.2l0,0l0,0.6l1.4,0.1l0-0.6
	c-0.1,0-0.2-0.1-0.3-0.2c0-0.1-0.1-0.4,0-0.7l0-1.5l0-0.5c1.1,0.1,1.6-1.7,1.7-2.7c0-0.2,0.2-0.2,0.4-0.2l0-0.6l-1.2-0.1l0,0.6
	c0.2,0,0.2,0.1,0.2,0.4c-0.1,1.6-0.3,2.1-1,2l0.1-2.7c0-0.3,0-0.6,0.1-0.7c0-0.1,0.1-0.2,0.3-0.2l0,0l0-0.6l-1.5-0.1l0,0.6l0,0
	c0.1,0,0.2,0.1,0.3,0.2c0,0.1,0.1,0.4,0,0.7L67,57.5c-0.7-0.1-0.9-0.6-0.9-2.1c0-0.2,0.1-0.3,0.3-0.3l0-0.6l-1.2-0.1l0,0.6
	C65.3,55,65.5,55,65.5,55.2z"/>
<circle cx="43" cy="70.6" r="0.3"/>
<circle cx="43" cy="71.1" r="0.2"/>
<path d="M41.8,68c0-0.1,0.1-0.1,0.1-0.2c0-0.2-0.2-0.4-0.4-0.4c-0.1,0-0.1,0-0.1,0c0,0,0.1-0.1,0.1-0.2c0-0.1-0.1-0.3-0.3-0.3
	c-0.1,0-0.3,0.1-0.3,0.3c0,0.1,0.1,0.3,0.3,0.3c0,0,0.1,0,0.1,0c-0.1,0.1-0.2,0.2-0.2,0.3c0,0.2,0.2,0.4,0.4,0.4l0,0
	c0,0.1,0,0.1,0,0.2c0,0,0,0.1,0,0.1c-0.1,0-0.1-0.1-0.2-0.1c-0.2,0-0.3,0.1-0.3,0.3c0,0.2,0.1,0.3,0.3,0.3c0.2,0,0.3-0.1,0.3-0.3
	c0,0,0,0,0,0c0.1,0.1,0.2,0.1,0.3,0.1c0.2,0,0.4-0.2,0.4-0.4C42.2,68.2,42,68,41.8,68z"/>
<path d="M40.9,66.2c-0.2,0-0.3,0.1-0.3,0.3c0,0.1,0,0.1,0.1,0.1c0,0-0.1,0.1-0.1,0.1c0,0.2,0.1,0.3,0.3,0.3c0.2,0,0.3-0.1,0.3-0.3
	c0-0.1,0-0.1-0.1-0.1c0,0,0.1-0.1,0.1-0.1C41.2,66.3,41.1,66.2,40.9,66.2z"/>
<circle cx="40.2" cy="66.7" r="0.1"/>
<circle cx="40.2" cy="66.3" r="0.2"/>
<circle cx="40.5" cy="67.6" r="0.3"/>
<path d="M41.4,65.7c0-0.2-0.2-0.4-0.4-0.4c0,0,0,0-0.1,0c0,0,0-0.1,0-0.1c0-0.2-0.2-0.4-0.4-0.4c-0.2,0-0.4,0.2-0.4,0.4
	c0,0.2,0.2,0.4,0.4,0.4c0,0,0.1,0,0.1,0c0,0,0,0.1,0,0.1c0,0.2,0.2,0.4,0.4,0.4C41.2,66,41.4,65.9,41.4,65.7z"/>
<path d="M40.7,63.8c0-0.1,0-0.1,0-0.2c0,0,0-0.1,0-0.1c0.2-0.1,0.3-0.2,0.3-0.4c0-0.3-0.2-0.5-0.5-0.5c-0.2,0-0.3,0.1-0.4,0.3
	c-0.3,0-0.5,0.3-0.5,0.5c0,0.1,0,0.2,0.1,0.3c0,0,0,0.1,0,0.1c0,0.3,0.2,0.5,0.5,0.5C40.5,64.4,40.7,64.1,40.7,63.8z"/>
<path d="M39.9,61.5c-0.1,0.1-0.1,0.2-0.1,0.3c0,0.2,0.2,0.4,0.4,0.4c0.2,0,0.3-0.1,0.4-0.3c0,0,0.1,0,0.1,0c0,0,0.1,0.1,0.1,0.1
	c0.2,0,0.3-0.1,0.3-0.3c0-0.1,0-0.1-0.1-0.2c0,0,0.1,0,0.1,0c0.3,0,0.5-0.2,0.5-0.5c0-0.3-0.2-0.5-0.5-0.5c-0.1-0.1-0.2-0.2-0.4-0.2
	c-0.2,0-0.4,0.2-0.5,0.4c-0.1-0.1-0.2-0.2-0.4-0.2c-0.3,0-0.5,0.2-0.5,0.5C39.4,61.2,39.6,61.4,39.9,61.5
	C39.9,61.4,39.9,61.4,39.9,61.5z"/>
<path d="M40.1,59C40.1,59,40.1,59,40.1,59c0,0.3,0.2,0.4,0.4,0.4c0.2,0,0.4-0.2,0.4-0.4c0-0.2-0.2-0.4-0.4-0.4c0,0,0,0,0,0
	c0-0.1-0.1-0.1-0.2-0.1c-0.1,0-0.3,0.1-0.3,0.3C40,58.9,40,58.9,40.1,59z"/>
<circle cx="41.4" cy="59.1" r="0.2"/>
<circle cx="42.5" cy="53.9" r="0.3"/>
<path d="M42.7,52.8c0.2,0,0.4-0.2,0.4-0.4c0-0.2-0.1-0.3-0.3-0.4c0-0.1,0.1-0.1,0.1-0.2c0-0.2-0.2-0.3-0.3-0.3
	c-0.2,0-0.3,0.2-0.3,0.3c0,0.2,0.1,0.3,0.3,0.3c0,0.1-0.1,0.1-0.1,0.2C42.4,52.6,42.5,52.8,42.7,52.8z"/>
<circle cx="42.8" cy="51.2" r="0.3"/>
<circle cx="42.9" cy="50.6" r="0.3"/>
<circle cx="42.3" cy="49.6" r="0.2"/>
<path d="M44.2,46.9c-0.1,0-0.2,0-0.2,0.1c-0.1-0.1-0.2-0.2-0.4-0.2c-0.3,0-0.6,0.3-0.6,0.6c0,0.2,0.1,0.4,0.3,0.5
	c-0.1,0-0.1,0.1-0.1,0.2c0,0,0,0.1,0,0.1c0,0-0.1,0-0.1,0c-0.2,0-0.4,0.2-0.4,0.4c0,0.2,0.2,0.4,0.4,0.4c0,0,0,0,0,0
	c-0.1,0.1-0.2,0.2-0.2,0.3c0,0.1,0,0.2,0.1,0.3c-0.1,0-0.2,0.1-0.2,0.3c0,0.2,0.1,0.3,0.3,0.3c0.2,0,0.3-0.1,0.3-0.3
	c0-0.1,0-0.1-0.1-0.2c0.2,0,0.3-0.2,0.3-0.3c0.2,0,0.3-0.2,0.3-0.4c0-0.2-0.1-0.4-0.3-0.4c0-0.1,0-0.2-0.1-0.2c0,0,0,0,0,0
	c0.2,0,0.3-0.1,0.3-0.3c0-0.1,0-0.1-0.1-0.2c0.1,0,0.3-0.1,0.4-0.2c0.1,0,0.1,0.1,0.2,0.1c0.2,0,0.4-0.2,0.4-0.4
	C44.6,47.1,44.4,46.9,44.2,46.9z"/>
<path d="M44.7,45.4c-0.1,0-0.2,0.1-0.2,0.2c-0.1,0-0.1,0-0.1,0.1c0,0,0,0,0,0c-0.1,0-0.2,0.1-0.2,0.2c0,0,0,0,0,0
	c-0.1,0-0.3,0.1-0.3,0.3c0,0.2,0.1,0.3,0.3,0.3c0,0,0,0.1,0,0.1c0,0.2,0.1,0.3,0.3,0.3s0.3-0.1,0.3-0.3c0-0.1-0.1-0.2-0.2-0.3
	c0,0,0.1-0.1,0.1-0.2c0,0,0-0.1-0.1-0.1c0,0,0,0,0.1,0c0,0,0.1,0,0.1,0c0.2,0,0.3-0.1,0.3-0.3c0,0,0,0,0,0c0.1,0,0.2-0.1,0.2-0.2
	C45,45.5,44.9,45.4,44.7,45.4z"/>
<path d="M46,44.8C46,44.8,46,44.8,46,44.8C46,44.8,46,44.8,46,44.8c0.2,0,0.3-0.2,0.3-0.3c0,0,0,0,0-0.1c0.1-0.1,0.2-0.2,0.2-0.4
	c0-0.2-0.1-0.3-0.2-0.4c0,0,0.1,0.1,0.1,0.1c0.1,0,0.2,0,0.2-0.1c0,0,0,0,0.1,0c0.2,0,0.4-0.2,0.4-0.4c0-0.2-0.2-0.4-0.4-0.4
	c-0.2,0-0.3,0.1-0.4,0.2c-0.1,0-0.2,0.1-0.2,0.3c0,0.1,0,0.2,0.1,0.2c0,0-0.1,0-0.1,0c-0.2,0-0.4,0.2-0.4,0.4c0,0.1,0.1,0.2,0.1,0.3
	c0,0,0,0.1,0,0.1c0,0,0,0.1,0,0.1c-0.1,0-0.2,0.1-0.2,0.1c0,0,0,0,0,0c-0.2,0-0.3,0.1-0.3,0.3c0,0.2,0.1,0.3,0.3,0.3
	c0.1,0,0.2-0.1,0.3-0.2C46,45,46,44.9,46,44.8z"/>
<circle cx="47.6" cy="43.7" r="0.2"/>
<path d="M48.1,42.3C48,42.3,48,42.4,48,42.6c0,0.2,0.2,0.4,0.4,0.4c0.2,0,0.4-0.2,0.4-0.4c0-0.1-0.1-0.2-0.1-0.3
	c0.1,0,0.2-0.1,0.2-0.2c0.1,0,0.1,0,0.2,0v0c0,0.1,0,0.2,0.1,0.3c-0.1,0-0.1,0.1-0.1,0.2c0,0.1,0.1,0.2,0.2,0.2
	c0.1,0,0.2-0.1,0.2-0.2c0,0,0,0,0,0c0.2,0,0.4-0.2,0.4-0.4c0-0.2-0.1-0.3-0.3-0.4c0,0,0-0.1,0-0.1c0-0.3-0.2-0.5-0.5-0.5
	c-0.2,0-0.4,0.2-0.5,0.4c0,0-0.1,0-0.1,0c-0.2,0-0.4,0.2-0.4,0.4C47.9,42.1,48,42.2,48.1,42.3z"/>
<circle cx="53" cy="40.2" r="0.3"/>
<circle cx="55.2" cy="39.3" r="0.3"/>
<path d="M66.4,37.2C66.4,37.2,66.4,37.1,66.4,37.2c0.1,0.1,0.3,0.2,0.4,0.2c0.1,0,0.2-0.1,0.3-0.2c0.1,0,0.1,0.1,0.2,0.1
	c0.2,0,0.3-0.1,0.3-0.3c0-0.2-0.1-0.3-0.3-0.3c-0.1,0-0.1,0-0.2,0.1c-0.1-0.1-0.2-0.2-0.3-0.2c-0.1,0-0.1,0-0.1,0
	c0-0.2-0.2-0.3-0.3-0.3c-0.2,0-0.3,0.2-0.3,0.4C66.1,37,66.2,37.2,66.4,37.2z"/>
<circle cx="67.7" cy="36.4" r="0.3"/>
<path d="M68.5,38.1c0.1,0,0.2,0,0.2-0.1c0,0,0.1,0.1,0.1,0.1c0,0,0,0,0,0c0,0.1,0.1,0.2,0.3,0.2c0.2,0,0.3-0.1,0.3-0.3
	c0-0.2-0.1-0.3-0.3-0.3c0,0,0,0,0,0c0-0.1-0.1-0.2-0.2-0.2c0,0,0,0,0,0c-0.1-0.1-0.2-0.2-0.3-0.2c-0.2,0-0.4,0.2-0.4,0.4
	C68.2,38,68.3,38.1,68.5,38.1z"/>
<path d="M69.7,37.6c0,0-0.1,0.1-0.1,0.1c0,0.1,0.1,0.3,0.3,0.3c0.1,0,0.3-0.1,0.3-0.3c0,0,0,0,0-0.1c0.1,0,0.2-0.1,0.2-0.3
	c0-0.2-0.1-0.3-0.3-0.3c-0.1,0-0.1,0-0.1,0.1c0,0-0.1-0.1-0.1-0.1c-0.1,0-0.3,0.1-0.3,0.3C69.6,37.5,69.6,37.5,69.7,37.6z"/>
<path d="M71.4,37.9C71.4,37.9,71.3,37.9,71.4,37.9c0,0.1,0,0.2,0.1,0.3c-0.1,0-0.2,0.1-0.2,0.3c0,0.2,0.1,0.3,0.3,0.3
	c0.2,0,0.3-0.1,0.3-0.3c0-0.1,0-0.1-0.1-0.2c0.2,0,0.3-0.1,0.3-0.3c0-0.1,0-0.2-0.1-0.2c0,0,0-0.1,0-0.1c0-0.2-0.2-0.4-0.4-0.4
	c-0.2,0-0.4,0.2-0.4,0.4C71.2,37.7,71.2,37.8,71.4,37.9z"/>
<path d="M72.5,39.4C72.6,39.4,72.6,39.4,72.5,39.4c0.1,0,0.2,0,0.3,0c0.1,0,0.2,0,0.3-0.1c0.1,0,0.1,0.1,0.2,0.1
	c0.1,0,0.2,0,0.3-0.1c0.1,0,0.1,0.1,0.2,0.1c0,0,0,0,0.1,0c0,0,0,0,0,0.1c0,0.1,0,0.1,0.1,0.2c0,0.1-0.1,0.1-0.1,0.2
	c0,0.2,0.2,0.4,0.4,0.4c0,0,0,0,0,0c0,0.2,0.1,0.3,0.3,0.3c0,0,0,0.1,0,0.1c0,0.2,0.2,0.4,0.4,0.4c0.1,0,0.2-0.1,0.3-0.2
	c0,0.2,0.2,0.3,0.4,0.3c0.2,0,0.4-0.2,0.4-0.4c0-0.2-0.2-0.4-0.4-0.4c0-0.1,0-0.1-0.1-0.2c0,0,0,0,0,0c0.2,0,0.3-0.1,0.3-0.3
	s-0.1-0.3-0.3-0.3c-0.2,0-0.3,0.1-0.3,0.3c0,0,0,0.1,0,0.1c0,0-0.1,0-0.1,0c-0.1,0-0.2,0-0.2,0.1c0-0.1-0.1-0.2-0.3-0.2
	c0,0,0-0.1,0-0.1c0-0.2-0.1-0.3-0.2-0.4c0,0,0,0,0,0c0-0.2-0.1-0.3-0.3-0.3c0,0,0,0,0,0c0,0,0-0.1,0-0.1c0.1,0,0.1,0.1,0.2,0.1
	c0.2,0,0.3-0.1,0.3-0.3c0-0.2-0.1-0.3-0.3-0.3c-0.2,0-0.3,0.1-0.3,0.3c0,0-0.1,0-0.1-0.1c0,0,0,0,0-0.1c0-0.2-0.1-0.3-0.3-0.3
	s-0.3,0.1-0.3,0.3c0,0-0.1,0-0.1,0c-0.1,0-0.2,0-0.3,0.1c0,0-0.1-0.1-0.2-0.1c0,0,0,0,0,0c0-0.2-0.1-0.3-0.3-0.3
	c-0.2,0-0.3,0.1-0.3,0.3c0,0.1,0,0.1,0.1,0.2c0,0,0,0.1-0.1,0.1c-0.1,0.1-0.1,0.1-0.1,0.2C72.2,39.3,72.4,39.4,72.5,39.4z"/>
<circle cx="76.2" cy="42.1" r="0.3"/>
<circle cx="76.4" cy="42.6" r="0.2"/>
<circle cx="78.8" cy="44.9" r="0.3"/>
<path d="M80.5,47.6C80.5,47.6,80.5,47.6,80.5,47.6C80.5,47.6,80.5,47.6,80.5,47.6c0,0.2,0.1,0.4,0.3,0.4c0,0,0,0,0,0.1
	c0,0.1,0,0.1,0.1,0.2c0,0,0,0.1,0,0.1c0,0.2,0.2,0.4,0.4,0.4c0.2,0,0.4-0.2,0.4-0.4c0-0.2-0.2-0.4-0.4-0.4c0,0,0-0.1,0-0.1
	c0,0,0.1,0,0.1,0c0.2,0,0.4-0.2,0.4-0.4c0-0.2-0.2-0.4-0.4-0.4c-0.1,0-0.2,0-0.3,0.1c-0.1,0-0.1-0.1-0.2-0.1c0,0,0,0,0,0
	c0,0,0,0,0,0c0-0.2-0.2-0.3-0.3-0.3c-0.2,0-0.3,0.2-0.3,0.3C80.2,47.4,80.3,47.6,80.5,47.6z"/>
<path d="M81.7,48.8c0,0.1,0.1,0.3,0.2,0.3c-0.1,0.1-0.1,0.2-0.1,0.3c0,0.3,0.2,0.5,0.5,0.5c0.1,0,0.2,0,0.2-0.1
	c0.1,0,0.2,0.1,0.3,0.1c0,0,0,0,0,0c0,0,0,0.1,0.1,0.1c0,0.1-0.1,0.1-0.1,0.2c0,0.1,0.1,0.2,0.1,0.2c0,0,0,0,0,0c0,0,0,0,0,0
	c-0.2,0-0.3,0.1-0.3,0.3c0,0.2,0.1,0.3,0.3,0.3c0.1,0,0.2,0,0.2-0.1c0,0,0.1,0,0.1,0c0.1,0,0.2-0.1,0.3-0.2c0,0,0.1,0,0.1,0
	c-0.1,0.1-0.1,0.2-0.1,0.3c0,0,0,0.1,0,0.1c0,0-0.1,0-0.1,0c0,0-0.1,0-0.1,0c0,0-0.1,0-0.1,0c-0.2,0-0.3,0.2-0.3,0.3
	c0,0.2,0.2,0.3,0.3,0.3c0,0,0.1,0,0.1,0c0,0,0.1,0,0.1,0c0.1,0,0.2,0,0.2-0.1c0,0.2,0.2,0.4,0.5,0.4c0,0,0,0-0.1,0
	c-0.1,0-0.2-0.1-0.2-0.1c-0.1,0-0.2,0-0.3,0.1c0,0-0.1,0-0.1,0c-0.2,0-0.4,0.2-0.4,0.4c0,0.1,0,0.2,0.1,0.2c-0.1,0-0.3,0.1-0.3,0.3
	c0,0.2,0.1,0.3,0.3,0.3c0.2,0,0.3-0.1,0.3-0.3c0-0.1,0-0.1-0.1-0.2c0,0,0.1,0,0.1,0c0.1,0.1,0.2,0.1,0.3,0.1c0.1,0,0.1,0,0.2,0
	c0.1,0.1,0.2,0.1,0.3,0.1c0.3,0,0.5-0.2,0.5-0.5c0-0.3-0.2-0.5-0.5-0.5c0.2-0.1,0.3-0.3,0.3-0.5c0-0.2-0.2-0.4-0.4-0.5
	c0,0,0-0.1,0-0.1c0-0.2-0.1-0.3-0.3-0.4c0.1-0.1,0.2-0.2,0.2-0.3c0-0.2-0.2-0.4-0.4-0.4c0.1-0.1,0.1-0.2,0.1-0.3c0,0,0-0.1,0-0.1
	c0.1-0.1,0.2-0.2,0.2-0.4c0-0.3-0.2-0.5-0.5-0.5c0,0,0,0,0,0c0-0.2-0.2-0.4-0.4-0.4c0,0,0,0,0,0c0,0,0,0,0,0c0-0.3-0.3-0.6-0.6-0.6
	c-0.3,0-0.6,0.3-0.6,0.6c0,0.1,0,0.1,0,0.2C81.7,48.6,81.7,48.7,81.7,48.8z"/>
<path d="M84.4,53.7c-0.1-0.1-0.2-0.1-0.3-0.1c-0.1,0-0.2,0.1-0.3,0.1c-0.1-0.1-0.2-0.2-0.3-0.2c-0.2,0-0.4,0.2-0.4,0.4
	c0,0,0,0.1,0,0.1c0,0.1,0,0.1,0,0.2c0,0.2,0.2,0.4,0.4,0.4c0.1,0,0.2,0,0.2-0.1c0,0,0,0,0,0c0,0.2,0.1,0.3,0.3,0.3
	c0.2,0,0.3-0.1,0.3-0.3c0-0.1,0-0.1-0.1-0.1c0.1,0,0.2-0.1,0.3-0.2c0,0,0,0,0,0c-0.1,0.1-0.1,0.2-0.1,0.3c0,0.2,0.2,0.4,0.4,0.4
	c0.2,0,0.4-0.2,0.4-0.4c0-0.1-0.1-0.2-0.1-0.3c0.1-0.1,0.2-0.2,0.2-0.3c0-0.2-0.2-0.4-0.4-0.4C84.6,53.5,84.4,53.6,84.4,53.7z"/>
<path d="M83.3,55.9c0,0.2,0.2,0.3,0.3,0.3s0.3-0.2,0.3-0.3c0,0,0,0,0,0c0.2,0,0.4-0.2,0.4-0.4c0-0.2-0.2-0.4-0.4-0.4
	c-0.2,0-0.4,0.2-0.4,0.4c0,0,0,0,0,0.1C83.4,55.6,83.3,55.7,83.3,55.9z"/>
<circle cx="84.7" cy="55.9" r="0.3"/>
<path d="M84,57c-0.1,0-0.2,0.1-0.2,0.2c0,0.1,0.1,0.2,0.2,0.2c0,0,0.1,0,0.1,0v0c0,0.1,0,0.2,0.1,0.3c-0.1,0-0.2,0.1-0.2,0.3
	c0,0.2,0.1,0.3,0.3,0.3c0.2,0,0.3-0.1,0.3-0.3c0-0.1,0-0.1-0.1-0.2c0,0,0,0,0,0c0.2,0,0.4-0.2,0.4-0.4c0-0.2-0.2-0.4-0.4-0.4
	c-0.1,0-0.2,0.1-0.3,0.1C84.2,57.1,84.1,57,84,57z"/>
<path d="M84.6,60.3C84.6,60.3,84.6,60.3,84.6,60.3C84.5,60.3,84.5,60.3,84.6,60.3c-0.1-0.2-0.2-0.3-0.3-0.4c0,0,0.1-0.1,0.1-0.1
	c0-0.2-0.1-0.3-0.3-0.3c-0.2,0-0.3,0.1-0.3,0.3c0,0.1,0,0.2,0.1,0.2c-0.1,0.1-0.1,0.2-0.1,0.3c0,0.2,0.2,0.4,0.4,0.4c0,0,0,0,0,0
	c0,0,0,0,0,0.1c0,0.3,0.2,0.5,0.5,0.5c0.3,0,0.5-0.2,0.5-0.5C85.1,60.5,84.9,60.3,84.6,60.3z"/>
<circle cx="84.1" cy="62.2" r="0.4"/>
<path d="M84.7,63.3c0,0-0.1,0-0.1,0c0-0.2-0.2-0.3-0.4-0.3c-0.2,0-0.4,0.2-0.4,0.4c0,0.2,0.2,0.4,0.4,0.4c0,0,0.1,0,0.1,0
	c0,0.2,0.2,0.3,0.4,0.3c0.2,0,0.4-0.2,0.4-0.4C85.1,63.4,84.9,63.3,84.7,63.3z"/>
<path d="M84.1,64c-0.3,0-0.5,0.2-0.5,0.5c0,0.1,0,0.2,0.1,0.2c-0.2,0.1-0.3,0.3-0.3,0.5c0,0.2,0.1,0.4,0.4,0.5
	c0.1,0.1,0.2,0.3,0.4,0.3c0.3,0,0.5-0.2,0.5-0.5c0-0.1-0.1-0.2-0.1-0.3c0-0.1,0-0.2-0.1-0.2c0.1-0.1,0.2-0.2,0.2-0.4
	C84.6,64.2,84.4,64,84.1,64z"/>
<path d="M84.3,66.3c-0.1,0-0.2,0.1-0.3,0.2c-0.1,0-0.1-0.1-0.2-0.1c-0.1,0-0.2,0-0.2,0.1c-0.1,0-0.1-0.1-0.2-0.1
	c-0.2,0-0.4,0.2-0.4,0.4c0,0.2,0.2,0.4,0.4,0.4c0,0,0.1,0,0.1,0c0.1,0.1,0.2,0.1,0.3,0.2c0,0.1,0,0.1,0.1,0.1c0,0,0,0-0.1,0
	c0,0-0.1,0-0.1,0c-0.1,0-0.1-0.1-0.2-0.1c-0.2,0-0.4,0.2-0.4,0.4c0,0.2,0.2,0.4,0.4,0.4c0.1,0,0.1,0,0.2-0.1c0,0,0.1,0.1,0.1,0.1
	c0.2,0,0.3-0.2,0.3-0.3c0-0.1,0-0.1-0.1-0.2c0,0,0,0,0,0c0.2,0,0.3-0.1,0.3-0.3c0-0.1,0-0.2-0.1-0.2c0-0.1,0.1-0.1,0.1-0.2
	c0,0,0,0,0,0c0.2,0,0.3-0.1,0.3-0.3C84.6,66.5,84.4,66.3,84.3,66.3z"/>
<path d="M83.4,68.2c-0.2,0-0.4,0.2-0.4,0.4c0,0.1,0.1,0.3,0.2,0.3c-0.1,0-0.1,0.1-0.1,0.2c0,0.2,0.1,0.3,0.3,0.3
	c0.2,0,0.3-0.1,0.3-0.3c0-0.1,0-0.1-0.1-0.2c0.1-0.1,0.2-0.2,0.2-0.3C83.7,68.4,83.6,68.2,83.4,68.2z"/>
<circle cx="82.3" cy="68.5" r="0.3"/>
<path d="M39.8,8l-2-4.4c-0.6,0.3-1.2,0.5-1.8,0.8l2,4.4C38.6,8.6,39.2,8.3,39.8,8z"/>
<path d="M42.2,7l-1.8-4.5c-0.6,0.2-1.2,0.5-1.9,0.7l1.8,4.5C41,7.5,41.6,7.3,42.2,7z"/>
<path d="M47.2,5.5l-1.3-4.6c-0.6,0.2-1.3,0.4-1.9,0.5L45.3,6C45.9,5.8,46.6,5.6,47.2,5.5z"/>
<path d="M35.1,10.3l-2.3-4.2c-0.6,0.3-1.2,0.7-1.7,1l2.3,4.2C33.9,10.9,34.5,10.6,35.1,10.3z"/>
<path d="M32.8,11.6l-2.5-4.1c-0.6,0.3-1.1,0.7-1.7,1.1l2.5,4.1C31.7,12.3,32.2,11.9,32.8,11.6z"/>
<path d="M73.7,4.6l0.9-4.7c-0.7-0.1-1.3-0.2-2-0.4l-0.9,4.7C72.4,4.3,73,4.4,73.7,4.6z"/>
<path d="M30.6,13l-2.7-4c-0.6,0.4-1.1,0.8-1.6,1.1l2.7,4C29.5,13.7,30.1,13.3,30.6,13z"/>
<path d="M49.7,4.8l-1.1-4.7c-0.7,0.1-1.3,0.3-1.9,0.5l1.1,4.7C48.4,5.1,49.1,5,49.7,4.8z"/>
<path d="M69-1c-0.7-0.1-1.3-0.1-2-0.2l-0.4,4.8c0.7,0,1.3,0.1,2,0.2L69-1z"/>
<path d="M66.1-1.3c-0.7,0-1.3-0.1-2-0.1l-0.2,4.8c0.7,0,1.3,0,2,0.1L66.1-1.3z"/>
<path d="M71.8-0.7c-0.7-0.1-1.3-0.2-2-0.3l-0.7,4.8c0.7,0.1,1.3,0.2,2,0.3L71.8-0.7z"/>
<path d="M52.3,4.3l-0.9-4.7c-0.7,0.1-1.3,0.2-2,0.4l0.9,4.7C51,4.5,51.7,4.4,52.3,4.3z"/>
<path d="M63.3,3.5v-4.8c-0.3,0-0.7,0-1,0c-0.3,0-0.7,0-1,0v4.8c0.3,0,0.7,0,1,0C62.6,3.4,63,3.5,63.3,3.5z"/>
<path d="M60.6,3.5l-0.2-4.8c-0.7,0-1.3,0-2,0.1l0.2,4.8C59.2,3.5,59.9,3.5,60.6,3.5z"/>
<path d="M54.9,3.9l-0.7-4.8c-0.7,0.1-1.3,0.2-2,0.3l0.7,4.8C53.6,4.1,54.2,4,54.9,3.9z"/>
<path d="M57.7,3.6l-0.5-4.8c-0.7,0.1-1.3,0.1-2,0.2l0.5,4.8C56.3,3.7,57,3.7,57.7,3.6z"/>
<path d="M37.4,9.1l-2.2-4.3c-0.6,0.3-1.2,0.6-1.8,0.9l2.2,4.3C36.2,9.7,36.8,9.4,37.4,9.1z"/>
<path d="M10.3,36.4l-4.4-2c-0.3,0.6-0.6,1.2-0.8,1.8l4.4,2C9.8,37.6,10,37,10.3,36.4z"/>
<path d="M8.3,41.2l-4.5-1.6c-0.2,0.6-0.4,1.3-0.6,1.9l4.5,1.6C7.9,42.4,8.1,41.8,8.3,41.2z"/>
<path d="M9.3,38.7l-4.5-1.8c-0.3,0.6-0.5,1.2-0.7,1.9l4.5,1.8C8.8,40,9,39.4,9.3,38.7z"/>
<path d="M11.5,34l-4.3-2.2c-0.3,0.6-0.6,1.2-0.9,1.8l4.3,2.2C10.9,35.2,11.2,34.6,11.5,34z"/>
<path d="M12.8,31.7l-4.2-2.4c-0.3,0.6-0.7,1.1-1,1.7l4.2,2.4C12.1,32.9,12.4,32.3,12.8,31.7z"/>
<path d="M7.5,43.6l-4.6-1.4c-0.2,0.6-0.4,1.3-0.6,1.9l4.6,1.4C7.1,44.9,7.3,44.3,7.5,43.6z"/>
<path d="M5.6,51.2l-4.8-0.7c-0.1,0.7-0.2,1.3-0.3,2l4.8,0.7C5.4,52.6,5.5,51.9,5.6,51.2z"/>
<path d="M6.7,46.1L2.1,45c-0.2,0.6-0.3,1.3-0.5,1.9l4.7,1.2C6.4,47.4,6.6,46.8,6.7,46.1z"/>
<path d="M17.2,25.3l-3.8-2.9c-0.4,0.5-0.8,1-1.2,1.6l3.8,2.9C16.4,26.3,16.8,25.8,17.2,25.3z"/>
<path d="M24.4,17.7l-3.2-3.6c-0.5,0.4-1,0.9-1.5,1.3l3.2,3.6C23.4,18.6,23.9,18.2,24.4,17.7z"/>
<path d="M20.6,21.3l-3.5-3.3c-0.5,0.5-0.9,1-1.4,1.5l3.5,3.3C19.7,22.3,20.2,21.8,20.6,21.3z"/>
<path d="M26.4,16l-3.1-3.7c-0.5,0.4-1,0.8-1.5,1.3l3.1,3.7C25.4,16.9,25.9,16.5,26.4,16z"/>
<path d="M28.5,14.5l-2.9-3.8C25,11,24.5,11.4,24,11.8l2.9,3.8C27.4,15.3,27.9,14.9,28.5,14.5z"/>
<path d="M15.6,27.4l-4-2.7c-0.4,0.5-0.8,1.1-1.2,1.6l4,2.7C14.9,28.5,15.2,27.9,15.6,27.4z"/>
<path d="M14.2,29.5L10.1,27c-0.4,0.6-0.7,1.1-1.1,1.7l4.1,2.6C13.4,30.6,13.8,30.1,14.2,29.5z"/>
<path d="M18.9,23.3l-3.7-3.1c-0.4,0.5-0.9,1-1.3,1.5l3.7,3.1C18,24.3,18.4,23.8,18.9,23.3z"/>
<path d="M44.7,6.2l-1.6-4.6c-0.6,0.2-1.3,0.4-1.9,0.6l1.6,4.6C43.4,6.6,44.1,6.4,44.7,6.2z"/>
<path d="M117.6,45l4.6-1.4c-0.2-0.6-0.4-1.3-0.6-1.9l-4.6,1.4C117.2,43.7,117.4,44.3,117.6,45z"/>
<path d="M118.2,47.5l4.7-1.2c-0.2-0.6-0.3-1.3-0.5-1.9l-4.7,1.2C117.9,46.2,118.1,46.9,118.2,47.5z"/>
<path d="M116.8,42.5l4.5-1.6c-0.2-0.6-0.4-1.3-0.7-1.9l-4.5,1.6C116.3,41.2,116.6,41.9,116.8,42.5z"/>
<path d="M118.8,50.1l4.7-1c-0.1-0.7-0.3-1.3-0.4-2l-4.7,1C118.5,48.7,118.6,49.4,118.8,50.1z"/>
<path d="M113.8,35.3L118,33c-0.3-0.6-0.6-1.2-0.9-1.8l-4.3,2.2C113.2,34.1,113.5,34.7,113.8,35.3z"/>
<path d="M119.2,52.6l4.8-0.8c-0.1-0.7-0.2-1.3-0.3-2l-4.7,0.8C119,51.3,119.1,52,119.2,52.6z"/>
<path d="M76.2,5.1l1.1-4.7C76.7,0.3,76,0.1,75.4,0l-1.1,4.7C74.9,4.8,75.6,5,76.2,5.1z"/>
<path d="M114.9,37.6l4.4-2c-0.3-0.6-0.5-1.2-0.8-1.8l-4.4,2C114.3,36.4,114.6,37,114.9,37.6z"/>
<path d="M119.8,60.4l4.8-0.1c0-0.7,0-1.3,0-2l-4.8,0.1C119.8,59.1,119.8,59.8,119.8,60.4z"/>
<path d="M22.5,19.5l-3.4-3.4c-0.5,0.5-1,0.9-1.4,1.4l3.4,3.4C21.5,20.4,22,20,22.5,19.5z"/>
<path d="M4.8,60.9c0-0.6,0-1.3,0-1.9l-4.8-0.1c0,0.7-0.1,1.3-0.1,2c0,0,0,0,0,0L4.8,61C4.8,61,4.8,61,4.8,60.9z"/>
<path d="M21.6,101.5l-3.4,3.5c0.5,0.5,1,0.9,1.4,1.4l3.4-3.5C22.5,102.4,22,102,21.6,101.5z"/>
<path d="M102.1,102.5l3.4,3.4c0.5-0.5,1-0.9,1.4-1.4l-3.4-3.4C103,101.5,102.5,102,102.1,102.5z"/>
<path d="M103.2,20.5l3.4-3.5c-0.5-0.5-1-0.9-1.4-1.4l-3.4,3.5C102.2,19.5,102.7,20,103.2,20.5z"/>
<path d="M119.7,57.8l4.8-0.4c0-0.7-0.1-1.3-0.2-2l-4.8,0.4C119.6,56.5,119.7,57.1,119.7,57.8z"/>
<path d="M112.5,33l4.2-2.4c-0.3-0.6-0.7-1.2-1-1.7l-4.2,2.4C111.9,31.8,112.2,32.4,112.5,33z"/>
<path d="M119.5,55.2l4.8-0.6c-0.1-0.7-0.2-1.3-0.2-2l-4.8,0.6C119.4,53.9,119.5,54.6,119.5,55.2z"/>
<path d="M115.9,40l4.4-1.8c-0.2-0.6-0.5-1.2-0.8-1.9l-4.5,1.8C115.4,38.8,115.6,39.4,115.9,40z"/>
<path d="M95.2,13.8l2.7-4c-0.5-0.4-1.1-0.8-1.7-1.1l-2.7,4C94.1,13,94.6,13.4,95.2,13.8z"/>
<path d="M88.5,9.7l2.1-4.3c-0.6-0.3-1.2-0.6-1.8-0.9l-2.1,4.3C87.3,9.1,87.9,9.4,88.5,9.7z"/>
<path d="M93,12.3l2.5-4.1c-0.6-0.4-1.1-0.7-1.7-1l-2.5,4.1C91.9,11.6,92.4,12,93,12.3z"/>
<path d="M86.1,8.6L88,4.2c-0.6-0.3-1.2-0.5-1.8-0.8l-1.9,4.4C84.9,8,85.5,8.3,86.1,8.6z"/>
<path d="M90.8,11l2.3-4.2c-0.6-0.3-1.2-0.7-1.8-1L89,10C89.6,10.3,90.2,10.6,90.8,11z"/>
<path d="M83.7,7.6l1.7-4.5c-0.6-0.2-1.2-0.5-1.9-0.7l-1.7,4.5C82.5,7.1,83.1,7.3,83.7,7.6z"/>
<path d="M78.8,5.8l1.3-4.6c-0.6-0.2-1.3-0.4-1.9-0.5l-1.3,4.6C77.5,5.5,78.1,5.6,78.8,5.8z"/>
<path d="M81.2,6.6l1.5-4.6c-0.6-0.2-1.3-0.4-1.9-0.6L79.4,6C80,6.2,80.6,6.4,81.2,6.6z"/>
<path d="M111.2,30.7l4-2.6c-0.4-0.6-0.7-1.1-1.1-1.7l-4,2.6C110.5,29.6,110.9,30.1,111.2,30.7z"/>
<path d="M106.7,24.3l3.7-3.1c-0.4-0.5-0.9-1-1.3-1.5l-3.7,3.1C105.8,23.3,106.2,23.8,106.7,24.3z"/>
<path d="M108.3,26.4l3.8-3c-0.4-0.5-0.8-1.1-1.2-1.6l-3.8,3C107.5,25.3,107.9,25.9,108.3,26.4z"/>
<path d="M109.8,28.5l3.9-2.8c-0.4-0.5-0.8-1.1-1.2-1.6l-3.9,2.8C109,27.4,109.4,28,109.8,28.5z"/>
<path d="M99.3,16.9l3-3.7c-0.5-0.4-1-0.8-1.6-1.3l-3,3.7C98.3,16.1,98.8,16.5,99.3,16.9z"/>
<path d="M97.3,15.3l2.9-3.9c-0.5-0.4-1.1-0.8-1.6-1.2l-2.9,3.9C96.2,14.5,96.7,14.9,97.3,15.3z"/>
<path d="M105,22.4l3.5-3.3c-0.4-0.5-0.9-1-1.4-1.4l-3.5,3.3C104,21.4,104.5,21.9,105,22.4z"/>
<path d="M101.3,18.7l3.2-3.6c-0.5-0.5-1-0.9-1.5-1.3l-3.2,3.6C100.3,17.8,100.8,18.2,101.3,18.7z"/>
<path d="M6.1,48.7l-4.7-1c-0.1,0.6-0.3,1.3-0.4,2l4.7,1C5.9,50,6,49.3,6.1,48.7z"/>
<path d="M103.9,100.6l3.5,3.3c0.5-0.5,0.9-1,1.4-1.5l-3.5-3.3C104.8,99.7,104.4,100.1,103.9,100.6z"/>
<path d="M93.9,109l2.7,4c0.6-0.4,1.1-0.8,1.6-1.1l-2.7-4C95,108.2,94.5,108.6,93.9,109z"/>
<path d="M61.3,118.4v4.8c0.3,0,0.7,0,1,0c0.3,0,0.7,0,1,0v-4.8c-0.3,0-0.7,0-1,0C62,118.4,61.6,118.4,61.3,118.4z"/>
<path d="M87.1,112.8l2.2,4.3c0.6-0.3,1.2-0.6,1.8-0.9l-2.2-4.3C88.3,112.2,87.7,112.5,87.1,112.8z"/>
<path d="M84.8,113.9l2,4.4c0.6-0.3,1.2-0.5,1.8-0.8l-2-4.4C86,113.3,85.4,113.6,84.8,113.9z"/>
<path d="M96.1,107.5l2.9,3.8c0.5-0.4,1.1-0.8,1.6-1.2l-2.9-3.8C97.1,106.7,96.6,107.1,96.1,107.5z"/>
<path d="M100.1,104.2l3.2,3.6c0.5-0.4,1-0.9,1.5-1.3l-3.2-3.6C101.1,103.3,100.6,103.8,100.1,104.2z"/>
<path d="M98.1,105.9l3.1,3.7c0.5-0.4,1-0.8,1.5-1.3l-3.1-3.7C99.2,105.1,98.7,105.5,98.1,105.9z"/>
<path d="M91.7,110.3l2.5,4.1c0.6-0.3,1.1-0.7,1.7-1.1l-2.5-4.1C92.9,109.6,92.3,110,91.7,110.3z"/>
<path d="M67,118.2l0.5,4.8c0.7-0.1,1.3-0.1,2-0.2l-0.5-4.8C68.3,118.1,67.6,118.2,67,118.2z"/>
<path d="M72.3,117.6l0.9,4.7c0.7-0.1,1.3-0.2,2-0.4l-0.9-4.7C73.6,117.3,72.9,117.4,72.3,117.6z"/>
<path d="M69.7,117.9l0.7,4.8c0.7-0.1,1.3-0.2,2-0.3l-0.7-4.8C71,117.8,70.4,117.9,69.7,117.9z"/>
<path d="M64.1,118.4l0.2,4.8c0.7,0,1.3,0,2-0.1l-0.2-4.8C65.4,118.3,64.7,118.4,64.1,118.4z"/>
<path d="M82.3,114.8l1.8,4.5c0.6-0.2,1.2-0.5,1.9-0.7l-1.8-4.5C83.6,114.4,83,114.6,82.3,114.8z"/>
<path d="M79.9,115.7l1.6,4.6c0.6-0.2,1.3-0.4,1.9-0.6l-1.6-4.6C81.1,115.3,80.5,115.5,79.9,115.7z"/>
<path d="M77.4,116.4l1.3,4.6c0.6-0.2,1.3-0.4,1.9-0.5l-1.3-4.6C78.7,116.1,78,116.3,77.4,116.4z"/>
<path d="M74.8,117l1.1,4.7c0.7-0.1,1.3-0.3,1.9-0.5l-1.1-4.7C76.1,116.8,75.5,116.9,74.8,117z"/>
<path d="M89.5,111.6l2.3,4.2c0.6-0.3,1.2-0.7,1.7-1l-2.3-4.2C90.6,111,90,111.3,89.5,111.6z"/>
<path d="M116.3,80.9l4.5,1.6c0.2-0.6,0.4-1.3,0.6-1.9l-4.5-1.6C116.7,79.6,116.5,80.2,116.3,80.9z"/>
<path d="M117.8,75.9l4.7,1.2c0.2-0.6,0.3-1.3,0.5-1.9l-4.7-1.2C118.2,74.6,118,75.3,117.8,75.9z"/>
<path d="M118.4,73.4l4.7,1c0.1-0.6,0.3-1.3,0.4-2l-4.7-1C118.7,72.1,118.6,72.7,118.4,73.4z"/>
<path d="M105.7,98.7l3.7,3.1c0.4-0.5,0.9-1,1.3-1.5l-3.7-3.1C106.5,97.7,106.1,98.2,105.7,98.7z"/>
<path d="M118.9,70.8l4.8,0.7c0.1-0.7,0.2-1.3,0.3-2l-4.8-0.7C119.2,69.5,119.1,70.2,118.9,70.8z"/>
<path d="M119.8,61c0,0.7,0,1.3-0.1,2l4.8,0.1c0-0.7,0-1.3,0.1-2L119.8,61z"/>
<path d="M119.3,68.2l4.8,0.5c0.1-0.7,0.2-1.3,0.2-2l-4.8-0.5C119.5,66.9,119.4,67.6,119.3,68.2z"/>
<path d="M119.6,65.6l4.8,0.3c0.1-0.7,0.1-1.3,0.1-2l-4.8-0.3C119.7,64.3,119.7,65,119.6,65.6z"/>
<path d="M117.1,78.4l4.6,1.4c0.2-0.6,0.4-1.3,0.6-1.9l-4.6-1.4C117.5,77.1,117.3,77.8,117.1,78.4z"/>
<path d="M108.9,94.6l4,2.7c0.4-0.5,0.8-1.1,1.2-1.6l-4-2.7C109.7,93.5,109.3,94.1,108.9,94.6z"/>
<path d="M115.3,83.3l4.5,1.8c0.3-0.6,0.5-1.2,0.7-1.9l-4.5-1.8C115.8,82.1,115.6,82.7,115.3,83.3z"/>
<path d="M110.4,92.5l4.1,2.6c0.4-0.6,0.7-1.1,1.1-1.7l-4.1-2.6C111.1,91.4,110.7,91.9,110.4,92.5z"/>
<path d="M107.3,96.7l3.8,2.9c0.4-0.5,0.8-1,1.2-1.6l-3.8-2.9C108.1,95.7,107.7,96.2,107.3,96.7z"/>
<path d="M111.8,90.3l4.2,2.4c0.3-0.6,0.7-1.1,1-1.7l-4.2-2.4C112.4,89.1,112.1,89.7,111.8,90.3z"/>
<path d="M114.2,85.7l4.4,2c0.3-0.6,0.6-1.2,0.8-1.8l-4.4-2C114.8,84.5,114.5,85.1,114.2,85.7z"/>
<path d="M113,88l4.3,2.2c0.3-0.6,0.6-1.2,0.9-1.8l-4.3-2.2C113.7,86.8,113.4,87.4,113,88z"/>
<path d="M36.3,112.2l-2.1,4.3c0.6,0.3,1.2,0.6,1.8,0.9l2.1-4.3C37.4,112.8,36.8,112.5,36.3,112.2z"/>
<path d="M10.9,86.8L6.7,89c0.3,0.6,0.6,1.2,0.9,1.8l4.3-2.2C11.5,88,11.2,87.4,10.9,86.8z"/>
<path d="M18.1,97.6l-3.7,3.1c0.4,0.5,0.9,1,1.3,1.5l3.7-3.1C18.9,98.7,18.5,98.2,18.1,97.6z"/>
<path d="M12.2,89.1L8,91.5c0.3,0.6,0.7,1.2,1,1.7l4.2-2.4C12.8,90.2,12.5,89.6,12.2,89.1z"/>
<path d="M8.8,82l-4.4,1.8c0.2,0.6,0.5,1.2,0.8,1.9l4.5-1.8C9.3,83.2,9.1,82.6,8.8,82z"/>
<path d="M16.4,95.6l-3.8,3c0.4,0.5,0.8,1.1,1.2,1.6l3.8-3C17.3,96.7,16.8,96.1,16.4,95.6z"/>
<path d="M13.5,91.3l-4,2.6c0.4,0.6,0.7,1.1,1.1,1.7l4-2.6C14.2,92.4,13.8,91.9,13.5,91.3z"/>
<path d="M7.9,79.6l-4.5,1.6c0.2,0.6,0.4,1.3,0.7,1.9l4.5-1.6C8.4,80.8,8.1,80.2,7.9,79.6z"/>
<path d="M14.9,93.5L11,96.3c0.4,0.5,0.8,1.1,1.2,1.6l3.9-2.8C15.7,94.6,15.3,94,14.9,93.5z"/>
<path d="M9.8,84.4l-4.4,2C5.7,87,6,87.7,6.3,88.3l4.4-2C10.4,85.6,10.1,85,9.8,84.4z"/>
<path d="M4.8,61.6L0,61.8c0,0.7,0,1.3,0.1,2l4.8-0.1C4.9,63,4.8,62.3,4.8,61.6z"/>
<path d="M4.9,64.2l-4.8,0.4c0,0.7,0.1,1.3,0.2,2l4.8-0.4C5,65.6,5,64.9,4.9,64.2z"/>
<path d="M5.1,66.8l-4.8,0.6c0.1,0.7,0.2,1.3,0.3,2l4.8-0.6C5.3,68.2,5.2,67.5,5.1,66.8z"/>
<path d="M5,56.4l-4.8-0.3c-0.1,0.7-0.1,1.3-0.1,2l4.8,0.3C4.9,57.8,5,57.1,5,56.4z"/>
<path d="M5.9,72l-4.7,1c0.1,0.7,0.3,1.3,0.4,2l4.7-1C6.2,73.3,6,72.7,5.9,72z"/>
<path d="M6.5,74.6l-4.7,1.2c0.2,0.6,0.3,1.3,0.5,1.9L7,76.5C6.8,75.8,6.6,75.2,6.5,74.6z"/>
<path d="M7.1,77.1l-4.6,1.4c0.2,0.6,0.4,1.3,0.6,1.9L7.7,79C7.5,78.3,7.3,77.7,7.1,77.1z"/>
<path d="M5.4,69.4l-4.8,0.8c0.1,0.7,0.2,1.3,0.3,2l4.7-0.8C5.7,70.8,5.5,70.1,5.4,69.4z"/>
<path d="M55.7,122.9c0.7,0.1,1.3,0.1,2,0.2l0.4-4.8c-0.7,0-1.3-0.1-2-0.2L55.7,122.9z"/>
<path d="M48.4,116.7l-1.1,4.7c0.6,0.2,1.3,0.3,1.9,0.5l1.1-4.7C49.7,117,49.1,116.9,48.4,116.7z"/>
<path d="M38.6,113.3l-1.9,4.4c0.6,0.3,1.2,0.5,1.8,0.8l1.9-4.4C39.8,113.9,39.2,113.6,38.6,113.3z"/>
<path d="M45.9,116l-1.3,4.6c0.6,0.2,1.3,0.4,1.9,0.5l1.3-4.6C47.2,116.4,46.6,116.2,45.9,116z"/>
<path d="M41,114.3l-1.7,4.5c0.6,0.2,1.2,0.5,1.9,0.7l1.7-4.5C42.2,114.8,41.6,114.6,41,114.3z"/>
<path d="M43.4,115.2l-1.5,4.6c0.6,0.2,1.3,0.4,1.9,0.6l1.5-4.6C44.7,115.7,44.1,115.5,43.4,115.2z"/>
<path d="M51,117.3l-0.9,4.7c0.7,0.1,1.3,0.2,2,0.4l0.9-4.7C52.3,117.6,51.6,117.4,51,117.3z"/>
<path d="M58.5,123.1c0.7,0,1.3,0.1,2,0.1l0.2-4.8c-0.7,0-1.3,0-2-0.1L58.5,123.1z"/>
<path d="M19.8,99.6l-3.5,3.3c0.4,0.5,0.9,1,1.4,1.4l3.5-3.3C20.7,100.6,20.2,100.1,19.8,99.6z"/>
<path d="M52.9,122.5c0.7,0.1,1.3,0.2,2,0.3l0.7-4.8c-0.7-0.1-1.3-0.2-2-0.3L52.9,122.5z"/>
<path d="M25.4,105l-3,3.7c0.5,0.4,1,0.8,1.6,1.2l3-3.7C26.4,105.9,25.9,105.4,25.4,105z"/>
<path d="M27.4,106.6l-2.9,3.9c0.5,0.4,1.1,0.8,1.6,1.2l2.9-3.9C28.5,107.4,28,107,27.4,106.6z"/>
<path d="M23.5,103.3l-3.2,3.6c0.5,0.5,1,0.9,1.5,1.3l3.2-3.6C24.4,104.2,23.9,103.8,23.5,103.3z"/>
<path d="M34,110.9l-2.3,4.2c0.6,0.3,1.2,0.6,1.8,1l2.3-4.2C35.1,111.6,34.5,111.3,34,110.9z"/>
<path d="M5.3,53.8l-4.8-0.5c-0.1,0.7-0.2,1.3-0.2,2l4.8,0.5C5.1,55.2,5.2,54.5,5.3,53.8z"/>
<path d="M29.6,108.2l-2.7,4c0.5,0.4,1.1,0.7,1.7,1.1l2.7-4C30.7,108.9,30.1,108.6,29.6,108.2z"/>
<path d="M31.7,109.6l-2.5,4.1c0.6,0.4,1.1,0.7,1.7,1l2.5-4.1C32.9,110.3,32.3,110,31.7,109.6z"/>
<path d="M27.6,94c0.8-0.2,1.3-0.1,1.6,0.3l0.4-0.4l-1.7-2l-0.4,0.4c0.2,0.2,0.3,0.4,0.3,0.5c0,0.1,0,0.3-0.1,0.4
	c-0.1,0.1-0.2,0.1-0.5,0.2l-0.4,0.1l-1.6-1.9l0.2-0.5l0.1-0.2c0.1-0.1,0.1-0.2,0.2-0.3c0.1-0.1,0.2-0.1,0.3,0c0.1,0,0.3,0.2,0.5,0.4
	l0.4-0.4l-2.5-3L24,88.1c0.1,0.1,0.2,0.3,0.2,0.5c0,0.2,0,0.6-0.3,1.1L21.5,95l0.4,0.5L27.6,94z M25,92.2l1.2,1.5l-2.1,0.6L25,92.2z
	"/>
<path d="M18.9,89l3.5-2c0.3-0.2,0.5-0.2,0.6-0.2c0.2,0,0.4,0.2,0.6,0.6l0.1,0.1l0.5-0.3L20.5,81l-2,1.1l0.3,0.5c0.5-0.1,1-0.1,1.4,0
	c0.4,0.1,0.8,0.5,1.2,1.1c0.2,0.4,0.3,0.6,0.3,0.8c0,0.2,0,0.3-0.1,0.4c-0.1,0.1-0.2,0.2-0.5,0.3l-3.3,1.9c-0.3,0.2-0.5,0.2-0.6,0.2
	c-0.2,0-0.4-0.2-0.6-0.6l-0.1-0.1L16.1,87l2.1,3.7l0.5-0.3l-0.1-0.1c-0.2-0.3-0.3-0.6-0.2-0.8C18.5,89.4,18.7,89.2,18.9,89z"/>
<path d="M14.7,81.1l3.8-1.4c0.3-0.1,0.5-0.1,0.7-0.1c0.2,0.1,0.3,0.3,0.4,0.7l0,0.1l0.5-0.2l-1.5-4l-0.5,0.2l0.1,0.2
	c0.1,0.4,0.2,0.6,0.1,0.8c-0.1,0.2-0.3,0.3-0.5,0.4l-1.5,0.6L16,77.7c-0.3-0.7-0.5-1.3-0.8-1.7c-0.3-0.4-0.6-0.7-1-0.9
	c-0.4-0.2-0.8-0.2-1.2-0.1c-0.3,0.1-0.6,0.3-0.7,0.6c-0.2,0.3-0.3,0.6-0.3,1c0,0.4,0,0.8,0.1,1.2c0.1,0.4,0.3,1,0.6,1.8l1.2,3
	l0.5-0.2l-0.1-0.2c-0.1-0.4-0.2-0.6-0.1-0.8C14.2,81.3,14.4,81.2,14.7,81.1z M13.2,79.4c-0.2-0.5-0.3-0.9-0.3-1.1
	c0-0.2,0-0.5,0.2-0.7c0.1-0.2,0.4-0.4,0.7-0.5c0.4-0.1,0.7-0.1,1,0c0.3,0.1,0.5,0.5,0.8,1l0.1,0.4L13.2,79.4z"/>
<path d="M11.8,72.3l4-0.6c0.3,0,0.6,0,0.7,0.1c0.1,0.1,0.2,0.4,0.3,0.8l0.5-0.1l-0.6-4.1l-0.5,0.1c0.1,0.4,0,0.7-0.1,0.8
	c-0.1,0.1-0.3,0.2-0.6,0.3l-1.8,0.3l-0.5-3.2l1.8-0.3c0.3,0,0.5,0,0.7,0.1c0.1,0.1,0.2,0.4,0.3,0.8l0.5-0.1l-0.6-4.1l-0.5,0.1
	c0.1,0.4,0,0.7,0,0.9c-0.1,0.1-0.3,0.2-0.6,0.3l-4,0.6c-0.3,0-0.6,0-0.7-0.1c-0.1-0.1-0.2-0.4-0.3-0.8l-0.5,0.1l0.6,4.1l0.5-0.1
	c-0.1-0.4,0-0.7,0.1-0.8c0.1-0.1,0.3-0.2,0.6-0.3l1.5-0.2L13,70l-1.5,0.2c-0.3,0-0.5,0-0.7-0.1c-0.1-0.1-0.2-0.4-0.3-0.8L10,69.4
	l0.6,4.1l0.5-0.1c-0.1-0.4,0-0.7,0-0.9C11.3,72.4,11.5,72.3,11.8,72.3z"/>
<path d="M9.2,58.5l5.1,2.7c0.7,0.4,1,0.8,1,1.3l0.6,0l0.1-2.6l-0.6,0c0,0.3-0.1,0.5-0.1,0.6c-0.1,0.1-0.2,0.2-0.4,0.2
	c-0.1,0-0.3-0.1-0.5-0.2l-0.3-0.2l0.1-2.4l0.5-0.2l0.2-0.1c0.1-0.1,0.2-0.1,0.3-0.1c0.1,0,0.2,0.1,0.2,0.1c0.1,0.1,0.1,0.3,0.1,0.7
	l0.6,0l0.2-3.9l-0.6,0c0,0.2-0.1,0.4-0.2,0.6c-0.1,0.2-0.4,0.4-1,0.6l-5.4,2.2L9.2,58.5z M13.7,58.1l-0.1,1.9l-2-1L13.7,58.1z"/>
<path d="M13.1,42.9l-0.5-0.2l-1.5,4l0.5,0.2l0-0.1c0.1-0.4,0.3-0.6,0.4-0.7c0.2-0.1,0.4-0.1,0.7,0.1l3.7,1.4
	c0.3,0.1,0.5,0.2,0.5,0.4c0.1,0.2,0,0.4-0.1,0.8l0,0.1l0.5,0.2l1.4-3.9l-0.5-0.2c-0.1,0.4-0.3,0.6-0.4,0.7s-0.4,0.1-0.7-0.1L16,45.1
	l-0.3-1l2.3-0.8c0.4-0.1,0.6-0.2,0.7-0.1c0.2,0.1,0.2,0.4,0,0.9l0.5,0.2l1.6-4.3l-0.5-0.2c-0.1,0.4-0.3,0.7-0.5,0.8
	c-0.2,0.2-0.6,0.4-1.2,0.5l-3.3,1.1l-0.3-0.9c-0.3-0.8-0.4-1.4-0.4-1.7c0-0.4,0-0.7,0.2-1l-0.5-0.2l-1.2,3.3l0.5,0.2
	c0.2-0.4,0.3-0.6,0.5-0.6c0.2,0.1,0.3,0.3,0.5,0.8l0.8,2.6l-1.8-0.7c-0.3-0.1-0.5-0.2-0.5-0.4c-0.1-0.2,0-0.4,0.1-0.8L13.1,42.9z"/>
<path d="M17.7,32.1l3,4.9c0.4,0.7,0.5,1.2,0.2,1.6l0.5,0.3l1.4-2.2l-0.5-0.3c-0.2,0.2-0.3,0.4-0.4,0.5c-0.1,0.1-0.3,0.1-0.4,0
	c-0.1-0.1-0.2-0.2-0.3-0.4l-0.2-0.3l1.3-2l0.5,0.1l0.2,0c0.1,0,0.3,0,0.3,0.1c0.1,0,0.1,0.1,0.1,0.2c0,0.1-0.1,0.3-0.3,0.6l0.5,0.3
	l2.2-3.3l-0.5-0.3c-0.1,0.2-0.2,0.3-0.4,0.4c-0.2,0.1-0.6,0.1-1.1,0l-5.7-0.8L17.7,32.1z M21.8,34l-1.1,1.6l-1.2-1.9L21.8,34z"/>
<path d="M29.1,24.3c0.3-0.4,0.4-0.8,0.4-1.3c0-0.4-0.1-0.8-0.5-1.1c-0.2-0.2-0.5-0.4-0.8-0.4c-0.3-0.1-0.7,0-1.1,0.1
	c-0.4,0.1-0.7,0.4-1.1,0.6c-0.3,0.3-0.8,0.7-1.4,1.3l-2.3,2.3l0.4,0.4L23,26c0.3-0.3,0.5-0.4,0.7-0.4c0.2,0,0.4,0.1,0.6,0.3l2.8,2.8
	c0.2,0.2,0.3,0.4,0.3,0.6c0,0.2-0.1,0.4-0.4,0.7l-0.1,0.1l0.4,0.4l3.1-3L30,27.1l-0.1,0.1c-0.3,0.3-0.5,0.4-0.7,0.4
	c-0.2,0-0.4-0.1-0.6-0.3l-1.1-1.1l0.4-0.4C28.4,25.2,28.8,24.7,29.1,24.3z M27.3,25.5L27,25.7l-1.8-1.9c0.4-0.4,0.7-0.6,0.9-0.7
	c0.2-0.1,0.4-0.2,0.7-0.1c0.3,0,0.5,0.2,0.8,0.4c0.3,0.3,0.4,0.6,0.4,0.9C28,24.7,27.7,25,27.3,25.5z"/>
<path d="M37.3,15.1C37,15,36.6,15,36.2,15c-0.4,0.1-0.8,0.2-1.2,0.4c-0.4,0.2-0.9,0.5-1.6,1l-2.7,1.8l0.3,0.5l0.2-0.1
	c0.3-0.2,0.6-0.3,0.7-0.3c0.2,0,0.3,0.2,0.5,0.4l2.1,3.4c0.2,0.3,0.2,0.5,0.2,0.6c0,0.2-0.2,0.4-0.5,0.6l-0.1,0.1l0.3,0.5l3.6-2.3
	l-0.3-0.5l-0.2,0.1c-0.3,0.2-0.6,0.3-0.7,0.3c-0.2,0-0.3-0.2-0.5-0.4l-0.9-1.4l0.5-0.3c0.7-0.4,1.2-0.8,1.5-1.2
	c0.4-0.3,0.6-0.7,0.7-1.2c0.1-0.4,0-0.8-0.2-1.2C37.8,15.5,37.6,15.3,37.3,15.1z M35.5,18.9l-0.3,0.2l-1.4-2.2
	c0.4-0.3,0.8-0.5,1-0.5c0.2-0.1,0.5-0.1,0.7,0c0.2,0.1,0.5,0.3,0.6,0.6c0.2,0.3,0.3,0.6,0.2,0.9C36.3,18.2,36,18.6,35.5,18.9z"/>
<path d="M48.7,15.8c-0.2,0-0.5-0.2-1-0.6l-4.2-4l-0.6,0.2l-0.4,5.8c-0.1,0.8-0.3,1.3-0.8,1.5l0.2,0.5l2.4-0.9l-0.2-0.5
	c-0.3,0.1-0.5,0.2-0.6,0.1c-0.1,0-0.2-0.1-0.3-0.2c0-0.1,0-0.3,0-0.5l0-0.4l2.3-0.9l0.4,0.4l0.1,0.1c0.1,0.1,0.2,0.2,0.2,0.3
	c0,0.1,0,0.2,0,0.3c-0.1,0.1-0.3,0.2-0.6,0.3l0.2,0.5l3.7-1.4l-0.2-0.5C49.1,15.8,48.9,15.9,48.7,15.8z M43.3,16.1l0.2-2.2l1.6,1.5
	L43.3,16.1z"/>
<path d="M57,8.1l0,0.6l0.2,0c0.4,0,0.6,0,0.8,0.2c0.1,0.1,0.2,0.3,0.2,0.6l0.1,4c0,0.3,0,0.5-0.2,0.6c-0.1,0.1-0.4,0.2-0.8,0.2
	l-0.1,0l0,0.6l4.3-0.1l0-0.6l-0.2,0c-0.4,0-0.6,0-0.8-0.2c-0.1-0.1-0.2-0.3-0.2-0.6l0-1.6l0.6,0c0.8,0,1.4-0.1,1.9-0.2
	c0.5-0.1,0.9-0.3,1.2-0.7c0.3-0.3,0.5-0.7,0.4-1.1c0-0.3-0.1-0.6-0.3-0.9c-0.2-0.3-0.5-0.5-0.8-0.6C63,8,62.5,7.9,62.1,7.9
	c-0.4,0-1.1,0-1.9,0L57,8.1z M61.4,8.6C61.6,8.6,61.8,8.8,62,9c0.2,0.2,0.2,0.5,0.3,0.8c0,0.4-0.1,0.7-0.3,0.9
	c-0.2,0.2-0.6,0.4-1.2,0.4l-0.4,0l-0.1-2.6C60.8,8.5,61.2,8.5,61.4,8.6z"/>
<path d="M70.8,14.7c-0.2,0.1-0.5,0.2-0.8,0.1c-0.4-0.1-0.8-0.3-1.2-0.6c-0.3-0.4-0.5-0.9-0.6-1.6l-0.7-0.1l-0.4,2.3l0.7,0.1
	c0.1-0.2,0.2-0.4,0.3-0.5c0.2,0.3,0.5,0.5,0.8,0.7c0.4,0.2,0.7,0.3,1.2,0.4c0.7,0.1,1.4,0,1.9-0.3c0.6-0.3,0.9-0.8,1-1.3
	c0.1-0.3,0-0.6-0.1-0.9c-0.1-0.3-0.3-0.6-0.5-0.8c-0.2-0.2-0.6-0.5-1.2-0.8c-0.6-0.4-1-0.6-1.2-0.7c-0.2-0.1-0.3-0.3-0.4-0.4
	c-0.1-0.2-0.1-0.3-0.1-0.5c0-0.2,0.2-0.4,0.4-0.5C70.1,9,70.4,9,70.7,9.1c0.4,0.1,0.7,0.3,1,0.6c0.3,0.3,0.4,0.7,0.5,1.2l0.6,0.1
	l0.3-2l-0.7-0.1c-0.1,0.2-0.2,0.3-0.3,0.4c-0.4-0.5-0.9-0.7-1.6-0.8c-0.6-0.1-1.2,0-1.8,0.3C68.3,9,68,9.5,67.9,10
	c-0.1,0.4,0,0.7,0.1,1c0.1,0.3,0.4,0.6,0.6,0.8c0.3,0.2,0.8,0.6,1.7,1.1c0.4,0.3,0.7,0.5,0.8,0.7c0.1,0.2,0.1,0.4,0.1,0.5
	C71.2,14.4,71.1,14.5,70.8,14.7z"/>
<path d="M76.6,15.5c-0.1,0.3-0.2,0.5-0.4,0.6c-0.2,0.1-0.4,0-0.8-0.1l-0.2,0.5l4,1.4l0.2-0.5l-0.1,0c-0.4-0.1-0.6-0.3-0.7-0.4
	c-0.1-0.2-0.1-0.4,0-0.7l1.3-3.8c0.1-0.3,0.2-0.5,0.4-0.5c0.2-0.1,0.4-0.1,0.8,0.1l0.1,0l0.2-0.5l-4-1.4l-0.2,0.5
	c0.4,0.1,0.7,0.3,0.8,0.4c0.1,0.2,0.1,0.4,0,0.7L76.6,15.5z"/>
<path d="M88.5,21.1c-0.2,0.2-0.4,0.4-0.5,0.4c-0.2,0-0.4-0.1-0.7-0.3l-0.1-0.1l-0.3,0.4l3.5,2.5l0.3-0.4l-0.1-0.1
	c-0.3-0.2-0.5-0.4-0.5-0.6c0-0.2,0-0.4,0.2-0.6l1.1-1.5l0.5,0.4c0.2,0.2,0.4,0.4,0.4,0.5c0,0.2-0.1,0.4-0.3,0.7l0.5,0.4l1.4-1.9
	l-0.5-0.4c-0.2,0.3-0.4,0.4-0.6,0.4c-0.2,0-0.4-0.1-0.6-0.2l-0.5-0.4l1.4-1.9l1,0.8c0.3,0.2,0.5,0.4,0.6,0.5
	c0.1,0.1,0.2,0.3,0.2,0.6c0,0.2,0,0.5-0.1,0.8l0.5,0.4l1-1.5l-5.4-3.9l-0.3,0.4l0.1,0.1c0.3,0.2,0.5,0.4,0.5,0.6
	c0,0.2,0,0.4-0.2,0.6L88.5,21.1z"/>
<path d="M94.4,25.5c-0.2,0.2-0.4,0.3-0.6,0.3c-0.2,0-0.4-0.1-0.7-0.4L93,25.3l-0.4,0.4l3,3.1l0.4-0.4l-0.1-0.1
	c-0.3-0.3-0.4-0.5-0.4-0.7c0-0.2,0.1-0.4,0.3-0.6l1.1-1.1c0.3,0.3,0.5,0.5,0.5,0.7c0.1,0.1,0.1,0.3,0.1,0.5c0,0.2-0.1,0.6-0.2,1.1
	c-0.2,1.1-0.4,1.8-0.4,2.1l1.7,1.7l0,0l1.5,2.2l0.5-0.3c-0.2-0.2-0.3-0.4-0.3-0.6c0-0.1,0-0.3,0.2-0.3c0.1-0.1,0.2-0.1,0.5-0.1
	l0.4-0.1l1.4,2l-0.3,0.5l-0.1,0.1c-0.1,0.1-0.1,0.2-0.2,0.3c-0.1,0-0.2,0.1-0.3,0c-0.1,0-0.2-0.2-0.4-0.5l-0.5,0.3l2.2,3.3l0.5-0.3
	c-0.1-0.2-0.2-0.3-0.2-0.6c0-0.2,0.1-0.6,0.4-1.1l3-5l-0.4-0.6l-5.7,0.9c-0.8,0.1-1.3,0-1.6-0.4l0,0c-0.2-0.2-0.3-0.4-0.3-0.6
	c0-0.2,0-0.7,0.1-1.5c0.2-1,0.2-1.6,0.1-2c1,0.6,1.7,0.6,2.3,0c0.2-0.2,0.4-0.5,0.4-0.8c0.1-0.3,0-0.6-0.1-1
	c-0.1-0.3-0.3-0.6-0.5-0.9c-0.2-0.3-0.5-0.6-1-1.2l-0.5-0.5L97.4,21L97,21.4l0.1,0.1c0.3,0.3,0.4,0.5,0.4,0.7c0,0.2-0.1,0.4-0.3,0.6
	L94.4,25.5z M104.1,32.3l-1.1,1.9l-1.1-1.6L104.1,32.3z M99.2,23.7c0.1,0.1,0.2,0.2,0.2,0.2c0.4,0.5,0.7,0.9,0.8,1.2
	c0.1,0.3-0.1,0.6-0.4,1c-0.2,0.2-0.5,0.4-0.7,0.4c-0.2,0-0.5,0-0.7-0.1c-0.2-0.1-0.5-0.4-1-0.9L99.2,23.7z"/>
<path d="M104.7,40.7c-0.2-0.1-0.3-0.3-0.5-0.6l-0.1-0.2l-0.5,0.2l1.8,4l0.5-0.2l-0.1-0.2c-0.2-0.4-0.2-0.6-0.2-0.8
	c0.1-0.2,0.2-0.3,0.5-0.4l4.4-1.9l0.3,0.6c0.2,0.5,0.3,0.8,0.2,1.1c-0.1,0.3-0.3,0.6-0.7,0.9l0.3,0.6l1.8-0.8l-3.2-7.3l-1.8,0.8
	l0.3,0.6c0.3-0.1,0.6-0.1,0.8-0.1c0.2,0,0.4,0.1,0.6,0.3c0.1,0.1,0.3,0.4,0.5,0.8l0.3,0.6l-4.4,1.9
	C105.1,40.7,104.9,40.7,104.7,40.7z"/>
<path d="M111.9,46.3l-3.9,0.9c-0.3,0.1-0.5,0.1-0.7,0c-0.1-0.1-0.3-0.3-0.4-0.7l0-0.1l-0.5,0.1l1.7,7.1l2.2-0.5l-0.2-0.6
	c-0.3,0-0.6-0.1-1-0.2c-0.3-0.1-0.6-0.3-0.7-0.5c-0.2-0.2-0.3-0.6-0.4-1.1c-0.1-0.4-0.1-0.7-0.1-0.9c0-0.2,0.1-0.3,0.2-0.4
	c0.1-0.1,0.3-0.1,0.6-0.2l1.6-0.4l0.2,0.7c0.1,0.4,0.1,0.6-0.1,0.8c-0.1,0.1-0.3,0.2-0.5,0.3c0,0-0.1,0-0.1,0l0.2,0.6l2.2-0.5
	l-0.2-0.6c-0.3,0.1-0.6,0.1-0.7,0c-0.1-0.1-0.2-0.3-0.3-0.6l-0.2-0.7l2.3-0.5l0.3,1.4c0.1,0.3,0.1,0.6,0.1,0.7
	c0,0.2-0.1,0.3-0.2,0.5c-0.1,0.2-0.3,0.4-0.6,0.6l0.2,0.6l1.7-0.5l-1.6-6.6l-0.5,0.1l0,0.1c0.1,0.4,0.1,0.6,0,0.8
	C112.4,46.1,112.2,46.2,111.9,46.3z"/>
<path d="M111.2,58.7c-0.1,0.1-0.4,0.4-0.9,0.7c-0.9,0.7-1.5,1.1-1.7,1.3l0.1,2.5l0.6,0c0-0.2,0-0.5,0.2-0.7c0.1-0.2,0.5-0.6,1.1-1.1
	c0.8-0.6,1.2-1.1,1.4-1.4c0.3,1.1,0.9,1.6,1.7,1.5c0.3,0,0.6-0.1,0.8-0.3c0.3-0.2,0.4-0.5,0.6-0.8c0.1-0.3,0.2-0.6,0.2-1
	c0-0.3,0-0.8,0-1.6l0-0.7l-0.2-3.2l-0.6,0l0,0.2c0,0.4,0,0.6-0.1,0.8c-0.1,0.1-0.3,0.2-0.6,0.2l-4,0.2c-0.3,0-0.5,0-0.6-0.1
	c-0.1-0.1-0.2-0.4-0.2-0.8l0-0.2l-0.6,0l0.2,4.3l0.6,0l0-0.1c0-0.4,0-0.6,0.1-0.8c0.1-0.1,0.3-0.2,0.6-0.2l1.6-0.1
	c0,0.4,0,0.7,0,0.9C111.4,58.4,111.3,58.6,111.2,58.7z M114.6,57.3c0,0.1,0,0.2,0,0.3c0,0.6,0,1.1-0.2,1.4c-0.2,0.3-0.5,0.4-1,0.4
	c-0.3,0-0.6,0-0.8-0.2c-0.2-0.1-0.3-0.3-0.4-0.5c-0.1-0.2-0.1-0.7-0.2-1.3L114.6,57.3z"/>
<path d="M115.4,64.6l-0.5-0.1c-0.1,0.8-0.5,1.1-1.2,1l-3.4-0.5c-0.3,0-0.5-0.1-0.6-0.2c-0.1-0.1-0.2-0.2-0.3-0.4
	c-0.1-0.2-0.1-0.4-0.1-0.7l-0.5-0.1l-0.4,3l0.5,0.1c0-0.3,0.2-0.6,0.3-0.8c0.2-0.2,0.5-0.2,1-0.2l3.1,0.5l-5.7,4.3l-0.1,0.7l5.1,0.8
	c0.3,0,0.5,0.1,0.6,0.2c0.1,0.1,0.2,0.2,0.3,0.4c0.1,0.2,0.1,0.4,0.1,0.6l0.5,0.1l0.4-2.8l-0.5-0.1c-0.1,0.7-0.5,1-1.3,0.9l-2.4-0.4
	l4.7-3.7L115.4,64.6z"/>
<path d="M111.7,78.9l0.5,0.2l1.3-4l-0.5-0.2c-0.1,0.4-0.3,0.7-0.4,0.8c-0.1,0.1-0.4,0.1-0.7,0l-3.8-1.2c-0.3-0.1-0.5-0.2-0.6-0.4
	c-0.1-0.2,0-0.4,0.1-0.9L107,73l-1.3,4l0.5,0.2l0-0.1c0.1-0.4,0.3-0.6,0.4-0.7c0.2-0.1,0.4-0.1,0.7,0l3.8,1.2
	c0.3,0.1,0.5,0.2,0.6,0.4c0.1,0.2,0.1,0.4-0.1,0.8L111.7,78.9z"/>
<path d="M111.6,80.8l-1.7-0.9l-0.3,0.6c0.3,0.2,0.5,0.3,0.6,0.6c0.1,0.2,0.2,0.4,0.2,0.6c0,0.2-0.1,0.5-0.3,0.8l-0.3,0.6l-4.3-2.1
	c-0.3-0.1-0.4-0.3-0.5-0.4c-0.1-0.2,0-0.4,0.2-0.8l0.1-0.2l-0.5-0.2l-1.9,3.9l0.5,0.2l0.1-0.2c0.2-0.4,0.3-0.6,0.5-0.6
	c0.2-0.1,0.4,0,0.7,0.1l4.3,2.1l-0.3,0.6c-0.2,0.4-0.5,0.7-0.7,0.9c-0.3,0.1-0.7,0.1-1.2,0l-0.3,0.6l1.7,0.9L111.6,80.8z"/>
<path d="M104.8,92.7l2.4-3.2l-0.4-0.3c-0.2,0.2-0.3,0.3-0.5,0.4c-0.2,0.1-0.5,0.1-1,0.1l-3.1-0.1l-1.1-0.8c-0.2-0.2-0.4-0.4-0.4-0.5
	c0-0.2,0.1-0.4,0.3-0.7l0.1-0.1l-0.4-0.3L98,90.4l0.4,0.3l0.1-0.1c0.2-0.3,0.4-0.5,0.6-0.5c0.2,0,0.4,0.1,0.6,0.2l1.2,0.9l0.8,2.4
	c0.2,0.6,0.3,1,0.3,1.3c0,0.3-0.1,0.5-0.2,0.7l0.4,0.3l1.6-2.2l-0.4-0.3c-0.3,0.4-0.6,0.5-0.8,0.3c-0.1-0.1-0.2-0.2-0.3-0.4l-0.6-2
	l2.2,0.1c0.3,0,0.5,0,0.5,0.1c0.2,0.1,0.1,0.3-0.2,0.7L104.8,92.7z"/>
<path d="M95.8,95.8c0.4,0,0.8-0.2,1.1-0.5c0.3-0.3,0.5-0.7,0.5-1.1c0-0.4-0.1-0.7-0.3-1c-0.3-0.3-0.6-0.4-1-0.3
	c-0.4,0-0.7,0.2-1,0.5c-0.3,0.3-0.5,0.6-0.5,1c0,0.4,0.1,0.7,0.3,1C95.1,95.7,95.4,95.8,95.8,95.8z"/>
<path d="M49.6,105.8l-1.1-0.3c-0.4,0.7-2.5,7.1-2.5,7.1l1.4,0.4L49.6,105.8z"/>
<path d="M59.6,111c0.2-1.7-0.1-3.7-2.4-4c-1.6-0.2-2.8,0.8-2.9,2.2c-0.2,1.5,0.6,2.6,2.1,2.7c0.9,0.1,1.4-0.3,1.6-0.5l0,0
	c-0.1,0.9-0.5,2.2-1.6,2.1c-0.5-0.1-0.9-0.4-0.9-1l-1.5,0c0.1,1.3,0.9,2,2.2,2.2C58.2,115,59.3,113.4,59.6,111z M56.8,110.8
	c-0.7-0.1-1.1-0.6-1-1.4c0.1-0.8,0.5-1.2,1.3-1.1c0.7,0.1,1.1,0.6,1,1.4C58,110.4,57.5,110.8,56.8,110.8z"/>
<path d="M66.8,114.9c2-0.2,2.8-1.7,2.6-4.1c-0.2-2.4-1.2-3.8-3.2-3.6c-2,0.2-2.8,1.7-2.6,4.1C63.8,113.7,64.8,115.1,66.8,114.9z
	 M65.1,111.2c-0.2-1.9,0.2-2.7,1.1-2.8c0.9-0.1,1.4,0.7,1.5,2.5c0.2,1.9-0.2,2.7-1.1,2.8C65.8,113.8,65.3,113,65.1,111.2z"/>
<path d="M76.6,112c-0.7,0.2-1.2-0.2-1.4-0.8l-1.5,0.6c0.5,1.4,1.8,1.8,3.3,1.4c1.6-0.5,2.6-1.8,2.1-3.4c-0.4-1.3-1.5-2.3-3.1-1.8
	c-0.5,0.1-0.9,0.5-1.2,0.9l-0.2-1.6l3-0.8l-0.2-1.3l-4.3,1.2l0.6,4.1l1.3-0.3c0.1-0.5,0.3-0.8,0.9-1c0.8-0.2,1.4,0,1.7,1
	C77.7,110.9,77.5,111.7,76.6,112z"/>
<circle cx="63.6" cy="18.2" r="0.9"/>
<ellipse transform="matrix(6.073643e-02 -0.9982 0.9982 6.073643e-02 43.9141 83.3529)" cx="66.2" cy="18.3" rx="0.9" ry="0.9"/>
<ellipse transform="matrix(0.1214 -0.9926 0.9926 0.1214 41.9573 84.7253)" cx="68.8" cy="18.7" rx="0.9" ry="0.9"/>
<ellipse transform="matrix(0.1821 -0.9833 0.9833 0.1821 39.5833 85.8648)" cx="71.4" cy="19.1" rx="0.9" ry="0.9"/>
<ellipse transform="matrix(0.2421 -0.9702 0.9702 0.2421 36.8541 86.7233)" cx="73.9" cy="19.8" rx="0.9" ry="0.9"/>
<ellipse transform="matrix(0.3007 -0.9537 0.9537 0.3007 33.841 87.2677)" cx="76.4" cy="20.6" rx="0.9" ry="0.9"/>
<ellipse transform="matrix(0.3585 -0.9335 0.9335 0.3585 30.5266 87.4116)" cx="78.9" cy="21.5" rx="0.9" ry="0.9"/>
<ellipse transform="matrix(0.4153 -0.9097 0.9097 0.4153 26.9691 87.1098)" cx="81.2" cy="22.6" rx="0.9" ry="0.9"/>
<ellipse transform="matrix(0.4701 -0.8826 0.8826 0.4701 23.2652 86.3558)" cx="83.5" cy="23.8" rx="0.9" ry="0.9"/>
<ellipse transform="matrix(0.5224 -0.8527 0.8527 0.5224 19.5028 85.1578)" cx="85.8" cy="25.2" rx="0.9" ry="0.9"/>
<ellipse transform="matrix(0.5731 -0.8195 0.8195 0.5731 15.6773 83.427)" cx="87.9" cy="26.7" rx="0.9" ry="0.9"/>
<ellipse transform="matrix(0.6216 -0.7833 0.7833 0.6216 11.8749 81.1684)" cx="90" cy="28.3" rx="0.9" ry="0.9"/>
<ellipse transform="matrix(0.6678 -0.7443 0.7443 0.6678 8.1658 78.3773)" cx="91.9" cy="30" rx="0.9" ry="0.9"/>
<ellipse transform="matrix(0.712 -0.7022 0.7022 0.712 4.5959 75.0084)" cx="93.7" cy="31.9" rx="0.9" ry="0.9"/>
<ellipse transform="matrix(0.7532 -0.6578 0.6578 0.7532 1.272 71.1364)" cx="95.4" cy="33.9" rx="0.9" ry="0.9"/>
<ellipse transform="matrix(0.7924 -0.61 0.61 0.7924 -1.7829 66.6513)" cx="97" cy="35.9" rx="0.9" ry="0.9"/>
<ellipse transform="matrix(0.8278 -0.561 0.561 0.8278 -4.422 61.8113)" cx="98.5" cy="38.1" rx="0.9" ry="0.9"/>
<ellipse transform="matrix(0.8602 -0.5099 0.5099 0.8602 -6.6289 56.535)" cx="99.8" cy="40.4" rx="0.9" ry="0.9"/>
<ellipse transform="matrix(0.8902 -0.4557 0.4557 0.8902 -8.3559 50.7114)" cx="101" cy="42.7" rx="0.9" ry="0.9"/>
<ellipse transform="matrix(0.916 -0.4011 0.4011 0.916 -9.514 44.7174)" cx="102" cy="45.1" rx="0.9" ry="0.9"/>
<ellipse transform="matrix(0.9391 -0.3438 0.3438 0.9391 -10.0677 38.284)" cx="102.9" cy="47.5" rx="0.9" ry="0.9"/>
<ellipse transform="matrix(0.9582 -0.2861 0.2861 0.9582 -9.9832 31.7581)" cx="103.7" cy="50" rx="0.9" ry="0.9"/>
<path d="M104.1,51.7c-0.5,0.1-0.8,0.6-0.7,1.1c0,0,0,0.1,0,0.1c-1.5,0-4.8,0.5-6.7,0.8c-2.5,0.5-7.8,1.1-7.6,1.7
	c0.1,0.6,1.7,0.2,7.6-0.5c4.4-0.5,6.4-1.2,7.2-1.6c0.2,0.1,0.4,0.1,0.6,0.1c0.5-0.1,0.8-0.6,0.7-1.1C105,51.9,104.5,51.6,104.1,51.7
	z"/>
<ellipse transform="matrix(0.9858 -0.168 0.168 0.9858 -7.7779 18.3706)" cx="104.7" cy="55.2" rx="0.9" ry="0.9"/>
<ellipse transform="matrix(0.9942 -0.1074 0.1074 0.9942 -5.594 11.6034)" cx="105" cy="57.8" rx="0.9" ry="0.9"/>
<ellipse transform="matrix(0.999 -4.556905e-02 4.556905e-02 0.999 -2.6416 4.8513)" cx="105.1" cy="60.4" rx="0.9" ry="0.9"/>
<ellipse transform="matrix(1.514978e-02 -0.9999 0.9999 1.514978e-02 40.4789 167.049)" cx="105" cy="63" rx="0.9" ry="0.9"/>
<path d="M105.7,65.7c0-0.5-0.3-0.9-0.8-1c-0.5,0-0.9,0.3-1,0.8c0,0.5,0.3,0.9,0.8,1C105.3,66.5,105.7,66.1,105.7,65.7z"/>
<path d="M105.4,68.3c0.1-0.5-0.3-0.9-0.8-1c-0.5-0.1-0.9,0.3-1,0.8c-0.1,0.5,0.3,1,0.8,1C104.8,69.1,105.3,68.8,105.4,68.3z"/>
<path d="M104.8,70.9c0.1-0.5-0.2-1-0.7-1.1c-0.5-0.1-1,0.2-1.1,0.7c-0.1,0.5,0.2,1,0.7,1.1C104.3,71.7,104.7,71.4,104.8,70.9z"/>
<path d="M104.1,73.5c0.1-0.5-0.2-1-0.6-1.1c-0.5-0.1-1,0.2-1.1,0.6c-0.1,0.5,0.2,1,0.6,1.1C103.5,74.2,104,74,104.1,73.5z"/>
<path d="M102.3,76c0.2-0.5-0.1-1-0.6-1.1c-0.4-0.1-0.7,0-1,0.3c-1-0.8-4.7-2.3-6.8-3.2c-2.5-1-7.6-3.2-7.8-2.7
	c-0.2,0.6,1.4,1.1,7.1,3.7c4.3,2,6.5,2.5,7.4,2.6c-0.1,0.4,0.2,0.9,0.6,1C101.6,76.7,102.1,76.5,102.3,76z"/>
<path d="M102.3,78.5c0.2-0.5,0-1-0.5-1.2c-0.5-0.2-1,0-1.2,0.5c-0.2,0.5,0,1,0.5,1.2C101.6,79.2,102.1,78.9,102.3,78.5z"/>
<path d="M101.2,80.9c0.2-0.5,0-1-0.4-1.2c-0.4-0.2-1,0-1.2,0.4c-0.2,0.5,0,1,0.4,1.2C100.4,81.5,100.9,81.3,101.2,80.9z"/>
<path d="M98.6,83.6c0.4,0.2,1,0.1,1.2-0.4c0.2-0.4,0.1-1-0.4-1.2c-0.4-0.2-1-0.1-1.2,0.3C98.1,82.8,98.2,83.3,98.6,83.6z"/>
<path d="M98.4,85.5c0.3-0.4,0.1-1-0.3-1.2c-0.4-0.3-1-0.1-1.2,0.3c-0.3,0.4-0.1,1,0.3,1.2C97.6,86,98.2,85.9,98.4,85.5z"/>
<path d="M95.6,87.8c0.4,0.3,1,0.2,1.3-0.2c0.3-0.4,0.2-1-0.2-1.3c-0.4-0.3-1-0.2-1.3,0.2C95.1,87,95.2,87.5,95.6,87.8z"/>
<path d="M95.2,89.7c0.3-0.4,0.3-1-0.1-1.3c-0.4-0.3-0.9-0.3-1.3,0.1c-0.3,0.4-0.3,1,0.1,1.3C94.3,90.1,94.9,90.1,95.2,89.7z"/>
<path d="M93.4,91.6c0.3-0.4,0.3-0.9,0-1.3c-0.4-0.3-0.9-0.3-1.3,0c-0.3,0.4-0.3,0.9,0,1.3C92.5,92,93,92,93.4,91.6z"/>
<ellipse transform="matrix(0.7261 -0.6876 0.6876 0.7261 -38.9547 87.8671)" cx="90.8" cy="92.8" rx="0.9" ry="0.9"/>
<ellipse transform="matrix(0.7666 -0.6421 0.6421 0.7666 -39.9567 79.0795)" cx="88.8" cy="94.5" rx="0.9" ry="0.9"/>
<ellipse transform="matrix(0.8046 -0.5938 0.5938 0.8046 -40.0994 70.2601)" cx="86.7" cy="96.1" rx="0.9" ry="0.9"/>
<ellipse transform="matrix(0.8392 -0.5439 0.5439 0.8392 -39.425 61.6465)" cx="84.5" cy="97.5" rx="0.9" ry="0.9"/>
<path d="M81.8,98c-0.4,0.2-0.6,0.8-0.3,1.2c0.2,0.4,0.8,0.6,1.2,0.3c0.4-0.2,0.6-0.8,0.3-1.2C82.8,97.9,82.2,97.7,81.8,98z"/>
<path d="M79.5,99.1c-0.4,0.2-0.6,0.8-0.4,1.2c0.2,0.4,0.8,0.6,1.2,0.4c0.4-0.2,0.6-0.8,0.4-1.2C80.5,99.1,80,98.9,79.5,99.1z"/>
<path d="M77.1,100.1c-0.5,0.2-0.7,0.7-0.5,1.2c0.2,0.5,0.7,0.7,1.2,0.5c0.5-0.2,0.7-0.7,0.5-1.2C78.1,100.1,77.6,99.9,77.1,100.1z"
	/>
<path d="M75.3,102.6c0.5-0.2,0.7-0.7,0.6-1.1c-0.2-0.5-0.7-0.7-1.1-0.6c-0.5,0.2-0.7,0.7-0.6,1.1C74.3,102.5,74.8,102.8,75.3,102.6z
	"/>
<path d="M72.3,101.6c-0.5,0.1-0.8,0.6-0.6,1.1c0.1,0.5,0.6,0.8,1.1,0.6c0.5-0.1,0.8-0.6,0.6-1.1C73.2,101.7,72.7,101.5,72.3,101.6z"
	/>
<path d="M69.8,102.1c-0.5,0.1-0.8,0.6-0.7,1.1c0.1,0.5,0.6,0.8,1.1,0.7c0.5-0.1,0.8-0.6,0.7-1.1C70.7,102.3,70.3,102,69.8,102.1z"/>
<path d="M67.5,104.3c0.5-0.1,0.8-0.5,0.8-1c-0.1-0.5-0.5-0.8-1-0.8c-0.5,0.1-0.8,0.5-0.8,1C66.5,104,67,104.4,67.5,104.3z"/>
<path d="M64.8,104.5c0.5,0,0.9-0.5,0.8-1c0-0.5-0.5-0.9-1-0.8c-0.5,0-0.9,0.5-0.8,1C63.9,104.2,64.3,104.6,64.8,104.5z"/>
<path d="M62.2,104.6c0.5,0,0.9-0.4,0.9-0.9c0-0.5-0.4-0.9-0.9-0.9c-0.5,0-0.9,0.4-0.9,0.9C61.3,104.2,61.7,104.6,62.2,104.6z"/>
<path d="M59.6,102.7c-0.5,0-0.9,0.4-0.9,0.9c0,0.5,0.4,0.9,0.9,0.9c0.5,0,0.9-0.4,0.9-0.9C60.5,103.1,60.1,102.7,59.6,102.7z"/>
<path d="M56,103.3c-0.1,0.5,0.3,0.9,0.8,1c0.5,0,0.9-0.3,1-0.8c0-0.5-0.3-0.9-0.8-1C56.5,102.4,56.1,102.8,56,103.3z"/>
<path d="M54.2,103.8c0.5,0.1,1-0.3,1-0.8c0.1-0.5-0.3-0.9-0.7-1c-0.5-0.1-1,0.3-1,0.8C53.4,103.3,53.7,103.8,54.2,103.8z"/>
<path d="M52.7,102.6c0.1-0.5-0.2-1-0.7-1.1c-0.5-0.1-1,0.2-1.1,0.7c-0.1,0.5,0.2,1,0.7,1.1C52.1,103.4,52.6,103.1,52.7,102.6z"/>
<path d="M48.4,101.4c-0.1,0.5,0.1,1,0.6,1.1c0.5,0.1,1-0.1,1.1-0.6c0.1-0.5-0.1-1-0.6-1.1C49.1,100.7,48.6,100.9,48.4,101.4z"/>
<path d="M46.5,101.6c0.5,0.2,1-0.1,1.2-0.6c0.2-0.5-0.1-1-0.5-1.1c-0.5-0.2-1,0.1-1.2,0.6C45.8,101,46.1,101.5,46.5,101.6z"/>
<path d="M44.1,100.6c0.5,0.2,1,0,1.2-0.5c0.2-0.5,0-1-0.5-1.2c-0.5-0.2-1,0-1.2,0.5C43.4,99.9,43.6,100.4,44.1,100.6z"/>
<path d="M41.3,98.2c-0.2,0.4,0,1,0.4,1.2c0.4,0.2,1,0,1.2-0.4c0.2-0.4,0-1-0.4-1.2C42.1,97.6,41.5,97.8,41.3,98.2z"/>
<path d="M39.4,98.1c0.4,0.2,1,0.1,1.2-0.3c0.2-0.4,0.1-1-0.3-1.2c-0.4-0.2-1-0.1-1.2,0.3C38.8,97.3,39,97.8,39.4,98.1z"/>
<path d="M38.2,95.1c-0.4-0.3-1-0.2-1.3,0.3c-0.3,0.4-0.2,1,0.3,1.2c0.4,0.3,1,0.2,1.3-0.3C38.7,96,38.6,95.4,38.2,95.1z"/>
<path d="M34.8,93.8c-0.3,0.4-0.2,1,0.2,1.3c0.4,0.3,1,0.2,1.3-0.2c0.3-0.4,0.2-1-0.2-1.3C35.7,93.3,35.2,93.4,34.8,93.8z"/>
<path d="M34.3,93.2c0.3-0.4,0.3-0.9-0.1-1.3c-0.4-0.3-0.9-0.3-1.3,0.1c-0.3,0.4-0.3,0.9,0.1,1.3C33.4,93.6,34,93.6,34.3,93.2z"/>
<path d="M32.4,91.4c0.3-0.4,0.3-0.9,0-1.3c-0.4-0.3-0.9-0.3-1.3,0c-0.3,0.4-0.3,0.9,0,1.3C31.4,91.8,32,91.8,32.4,91.4z"/>
<path d="M30.6,89.5c0.4-0.3,0.4-0.9,0.1-1.3c-0.3-0.4-0.9-0.4-1.3-0.1c-0.4,0.3-0.4,0.9-0.1,1.3C29.6,89.8,30.2,89.9,30.6,89.5z"/>
<path d="M28.9,87.5c0.4-0.3,0.4-0.9,0.1-1.3c-0.3-0.4-0.9-0.4-1.3-0.1c-0.4,0.3-0.4,0.9-0.1,1.3C27.9,87.8,28.5,87.8,28.9,87.5z"/>
<path d="M27.3,85.4c0.4-0.3,0.5-0.8,0.2-1.3c-0.3-0.4-0.9-0.5-1.3-0.2c-0.4,0.3-0.5,0.8-0.2,1.3C26.3,85.6,26.9,85.7,27.3,85.4z"/>
<path d="M25.9,83.3c0.4-0.3,0.5-0.8,0.3-1.2c-0.3-0.4-0.8-0.5-1.2-0.3c-0.4,0.3-0.5,0.8-0.3,1.2C24.9,83.4,25.5,83.5,25.9,83.3z"/>
<path d="M24.6,81c0.4-0.2,0.6-0.8,0.4-1.2c-0.2-0.4-0.8-0.6-1.2-0.4c-0.4,0.2-0.6,0.8-0.4,1.2C23.6,81.1,24.1,81.2,24.6,81z"/>
<path d="M23.4,78.7c0.4-0.2,0.6-0.7,0.4-1.2c-0.2-0.4-0.8-0.6-1.2-0.4c-0.5,0.2-0.6,0.7-0.4,1.2C22.4,78.7,23,78.9,23.4,78.7z"/>
<path d="M22.4,76.3c0.5-0.2,0.7-0.7,0.5-1.2c-0.2-0.5-0.7-0.7-1.2-0.5c-0.5,0.2-0.7,0.7-0.5,1.2C21.4,76.2,22,76.4,22.4,76.3z"/>
<path d="M21.6,73.8c0.5-0.2,0.7-0.7,0.6-1.1c-0.2-0.5-0.7-0.7-1.1-0.6c-0.5,0.2-0.7,0.7-0.6,1.1C20.6,73.7,21.1,73.9,21.6,73.8z"/>
<path d="M20.8,71.3c0.5-0.1,0.8-0.6,0.6-1.1c-0.1-0.5-0.6-0.8-1.1-0.6c-0.5,0.1-0.8,0.6-0.6,1.1C19.9,71.1,20.4,71.4,20.8,71.3z"/>
<path d="M20.3,68.7c0.5-0.1,0.8-0.6,0.7-1.1c-0.1-0.5-0.6-0.8-1.1-0.7c-0.5,0.1-0.8,0.6-0.7,1.1C19.3,68.5,19.8,68.8,20.3,68.7z"/>
<path d="M19.9,66.1c0.5-0.1,0.8-0.5,0.8-1c-0.1-0.5-0.5-0.8-1-0.8c-0.5,0.1-0.8,0.5-0.8,1C18.9,65.9,19.4,66.2,19.9,66.1z"/>
<path d="M19.7,63.5c0.5,0,0.9-0.5,0.8-1c0-0.5-0.5-0.9-1-0.8c-0.5,0-0.9,0.5-0.8,1C18.7,63.2,19.2,63.6,19.7,63.5z"/>
<path d="M19.6,60.9c0.5,0,0.9-0.4,0.9-0.9c0-0.5-0.4-0.9-0.9-0.9c-0.5,0-0.9,0.4-0.9,0.9C18.7,60.5,19.1,60.9,19.6,60.9z"/>
<path d="M18.8,57.4c0,0.5,0.4,0.9,0.9,1c0.5,0,0.9-0.4,0.9-0.9c0-0.5-0.4-0.9-0.9-0.9C19.2,56.5,18.8,56.9,18.8,57.4z"/>
<path d="M19.1,54.7c-0.1,0.5,0.3,0.9,0.8,1c0.5,0.1,0.9-0.3,1-0.8c0.1-0.5-0.3-0.9-0.8-1C19.6,53.9,19.2,54.2,19.1,54.7z"/>
<path d="M19.6,52.1c-0.1,0.5,0.2,1,0.7,1c0.5,0.1,1-0.2,1-0.7c0.1-0.5-0.2-1-0.7-1C20.1,51.3,19.6,51.6,19.6,52.1z"/>
<path d="M20.2,49.5c-0.1,0.5,0.2,1,0.7,1.1c0.5,0.1,1-0.2,1.1-0.7c0.1-0.5-0.2-1-0.7-1.1C20.8,48.7,20.3,49,20.2,49.5z"/>
<path d="M20.9,47c-0.1,0.5,0.1,1,0.6,1.1c0.5,0.1,1-0.1,1.1-0.6c0.1-0.5-0.1-1-0.6-1.1C21.6,46.2,21.1,46.5,20.9,47z"/>
<path d="M21.9,44.5c-0.2,0.5,0.1,1,0.5,1.2c0.5,0.2,1-0.1,1.2-0.5c0.2-0.5-0.1-1-0.5-1.2C22.6,43.8,22.1,44,21.9,44.5z"/>
<path d="M23,42c-0.2,0.5,0,1,0.5,1.2c0.5,0.2,1,0,1.2-0.5c0.2-0.5,0-1-0.5-1.2C23.7,41.4,23.2,41.6,23,42z"/>
<path d="M24.2,39.7c-0.2,0.4-0.1,1,0.4,1.2c0.4,0.2,1,0.1,1.2-0.4c0.2-0.4,0-1-0.4-1.2C25,39,24.4,39.2,24.2,39.7z"/>
<path d="M25.6,37.4c-0.3,0.4-0.1,1,0.3,1.2c0.4,0.3,1,0.1,1.2-0.3c0.3-0.4,0.1-1-0.3-1.2C26.4,36.8,25.8,36.9,25.6,37.4z"/>
<path d="M27.1,35.2c-0.3,0.4-0.2,1,0.2,1.3c0.4,0.3,1,0.2,1.3-0.2c0.3-0.4,0.2-1-0.2-1.3C27.9,34.6,27.3,34.8,27.1,35.2z"/>
<path d="M30.1,34.2c0.3-0.4,0.2-1-0.2-1.3c-0.4-0.3-1-0.2-1.3,0.2c-0.3,0.4-0.2,1,0.2,1.3C29.2,34.6,29.8,34.6,30.1,34.2z"/>
<path d="M30.5,32.3c0.4,0.3,0.9,0.3,1.3-0.1c0.3-0.4,0.3-0.9-0.1-1.3c-0.4-0.3-0.9-0.3-1.3,0.1C30.1,31.4,30.2,32,30.5,32.3z"/>
<path d="M33.6,30.4c0.3-0.3,0.3-0.9,0-1.3c-0.4-0.3-0.9-0.3-1.3,0c-0.3,0.4-0.3,0.9,0,1.3C32.7,30.8,33.3,30.8,33.6,30.4z"/>
<path d="M35.5,28.7c0.4-0.3,0.4-0.9,0.1-1.3c-0.3-0.4-0.9-0.4-1.3-0.1c-0.4,0.3-0.4,0.9-0.1,1.3C34.6,29,35.2,29.1,35.5,28.7z"/>
<path d="M37.6,27.2c0.4-0.3,0.5-0.9,0.2-1.3c-0.3-0.4-0.9-0.5-1.3-0.2C36,26.1,36,26.6,36.3,27C36.6,27.4,37.2,27.5,37.6,27.2z"/>
<path d="M38.6,24.2c-0.4,0.3-0.5,0.9-0.2,1.3c0.3,0.4,0.8,0.5,1.3,0.2c0.4-0.3,0.5-0.8,0.2-1.3C39.6,24.1,39,24,38.6,24.2z"/>
<path d="M40.9,22.9c-0.4,0.3-0.6,0.8-0.3,1.2c0.3,0.4,0.8,0.6,1.2,0.3c0.4-0.3,0.6-0.8,0.3-1.2C41.9,22.7,41.3,22.6,40.9,22.9z"/>
<path d="M44.1,23.2c0.4-0.2,0.6-0.8,0.4-1.2c-0.2-0.4-0.8-0.6-1.2-0.4c-0.4,0.2-0.6,0.8-0.4,1.2C43.1,23.3,43.7,23.5,44.1,23.2z"/>
<path d="M46.4,22.2c0.5-0.2,0.7-0.7,0.5-1.2c-0.2-0.5-0.7-0.7-1.2-0.5c-0.5,0.2-0.7,0.7-0.5,1.2C45.5,22.2,46,22.4,46.4,22.2z"/>
<path d="M48.8,21.3c0.5-0.2,0.7-0.7,0.5-1.2c-0.2-0.5-0.7-0.7-1.2-0.5c-0.5,0.2-0.7,0.7-0.5,1.2C47.9,21.2,48.4,21.5,48.8,21.3z"/>
<path d="M50.8,18.8c-0.5,0.2-0.7,0.7-0.6,1.1c0.1,0.5,0.6,0.7,1.1,0.6c0.5-0.1,0.7-0.7,0.6-1.1C51.7,18.9,51.2,18.7,50.8,18.8z"/>
<path d="M53.8,19.9c0.5-0.1,0.8-0.6,0.7-1.1c-0.1-0.5-0.6-0.8-1.1-0.7c-0.5,0.1-0.8,0.6-0.7,1.1C52.8,19.8,53.3,20.1,53.8,19.9z"/>
<path d="M57,18.5c-0.1-0.5-0.6-0.8-1-0.7c-0.5,0.1-0.8,0.6-0.7,1c0.1,0.5,0.5,0.8,1,0.7C56.8,19.4,57.1,18.9,57,18.5z"/>
<path d="M58.6,17.4c-0.5,0.1-0.9,0.5-0.8,1c0.1,0.5,0.5,0.8,1,0.8c0.5-0.1,0.8-0.5,0.8-1C59.6,17.7,59.1,17.4,58.6,17.4z"/>
<path d="M62.2,18.1c0-0.5-0.5-0.9-0.9-0.9c-0.5,0-0.9,0.5-0.9,1c0,0.5,0.4,0.9,1,0.8C61.9,19,62.3,18.6,62.2,18.1z"/>
<polygon points="36,105.8 36.6,103.9 38.5,103.4 36.9,102.2 37,100.2 35.4,101.4 33.5,100.7 34.1,102.6 32.9,104.1 34.9,104.2 "/>
<polygon points="88.7,105.8 89.8,104.2 91.7,104.1 90.5,102.6 91.1,100.7 89.3,101.4 87.7,100.2 87.7,102.2 86.2,103.4 88,103.9 "/>
<path d="M31.3,50.3c-5.6-2.4-7.6-2.5-7.7-2.3c-0.2,0.5,4.5,2.4,7,3.3c2.5,0.9,7.5,3,7.7,2.5C38.5,53.2,36.9,52.6,31.3,50.3z"/>
<path d="M21.6,57.3c-0.1,0.6,5,1.2,7.6,1.5c2.7,0.3,8,1.1,8.1,0.5c0-0.6-1.6-0.7-7.7-1.7C23.6,56.7,21.6,57.1,21.6,57.3z"/>
<path d="M38.1,64.1c-0.1-0.6-1.7-0.4-7.8-0.4c-6.1,0.1-8,0.8-8,1c0,0.6,5.1,0.4,7.8,0.2C32.7,64.8,38.1,64.7,38.1,64.1z"/>
<path d="M38.5,69c-0.2-0.5-1.5,0-6.7,1.3c-5.1,1.3-6.5,2.3-6.5,2.5c0.1,0.5,4.4-0.7,6.6-1.4C34.1,70.7,38.6,69.5,38.5,69z"/>
<path d="M41.4,73.2c-0.3-0.5-1.8,0.4-7.4,3.1c-5.6,2.7-7,4.2-6.9,4.4c0.2,0.5,4.8-1.9,7.2-3.2C36.7,76.2,41.7,73.7,41.4,73.2z"/>
<path d="M45.6,77.1c-0.4-0.4-1.7,0.7-6.7,4.4c-5,3.7-6.1,5.4-6,5.6c0.3,0.5,4.4-2.7,6.5-4.5C41.5,80.9,46,77.6,45.6,77.1z"/>
<path d="M42.1,84.4c1.8-1.9,5.6-5.4,5.2-5.8c-0.4-0.4-1.5,0.8-5.8,4.8c-4.3,4-5.2,5.7-5,5.9C36.8,89.7,40.3,86.3,42.1,84.4z"/>
<path d="M48.5,80.5c-0.5-0.3-1.5,1.1-5.5,5.8c-4,4.7-4.8,6.6-4.6,6.8c0.4,0.4,3.7-3.6,5.4-5.8C45.4,85.1,49,80.8,48.5,80.5z"/>
<path d="M50.2,81.8c-0.4-0.3-1.2,1-4.2,5.3c-3,4.3-3.5,6-3.3,6.1c0.4,0.3,2.8-3.4,4-5.3C48,85.9,50.6,82,50.2,81.8z"/>
<path d="M52.5,82.6c-0.6-0.2-1.2,1.4-4,6.9c-2.8,5.5-3.1,7.6-2.8,7.7c0.5,0.3,2.8-4.4,3.9-6.9C50.6,87.8,53.1,82.8,52.5,82.6z"/>
<path d="M58.1,84.6c-0.6-0.1-1,1.5-3.1,7.4c-2.1,5.8-2.1,7.9-1.8,8c0.5,0.2,2.2-4.7,2.9-7.3C56.8,89.9,58.6,84.7,58.1,84.6z"/>
<path d="M62.7,85.8c-0.6,0-0.6,1.7-1.3,7.9c-0.7,6.2-0.2,8.2,0.1,8.2c0.6,0.1,1-5.1,1.2-7.8C62.8,91.3,63.4,85.8,62.7,85.8z"/>
<path d="M69.3,92.8c-0.5-2.7-1.1-8.2-1.7-8.1c-0.6,0.1-0.2,1.8,0.5,8c0.7,6.2,1.6,8,1.9,8C70.5,100.6,69.8,95.5,69.3,92.8z"/>
<path d="M75.5,91c-1-2.5-2.7-7.8-3.2-7.6c-0.6,0.2,0.1,1.8,2,7.7c1.9,5.9,3.1,7.5,3.4,7.5C78.2,98.4,76.5,93.5,75.5,91z"/>
<path d="M85.6,94c0.5-0.3-2.5-4.6-4.1-6.8c-1.6-2.2-4.7-6.8-5.1-6.4c-0.5,0.4,0.6,1.7,4,6.9C83.7,92.9,85.4,94.2,85.6,94z"/>
<path d="M94.3,86.8c0.4-0.4-3.4-3.9-5.5-5.7c-2.1-1.8-6.1-5.6-6.4-5.1c-0.4,0.5,1,1.6,5.4,5.9C92.2,86.1,94.1,87,94.3,86.8z"/>
<path d="M97.2,83.5c0.4-0.5-3.8-3.6-6-5.1c-2.2-1.6-6.6-5-6.9-4.4c-0.3,0.5,1.1,1.4,6,5.3C95.1,83.1,97,83.7,97.2,83.5z"/>
<path d="M94.8,68c5.7,1.5,7.6,1.4,7.7,1.1c0.1-0.5-4.6-1.7-7.2-2.2c-2.5-0.5-7.6-1.9-7.7-1.3C87.5,66.2,89.1,66.5,94.8,68z"/>
<path d="M94,48.1c-2.1,0.9-6.6,2.4-6.4,2.9c0.2,0.5,1.6-0.1,6.6-1.8c5-1.7,6.4-2.8,6.3-3C100.3,45.7,96.2,47.3,94,48.1z"/>
<path d="M79.2,41.1c0.5,0.3,1.4-0.9,5.4-4.9c4-4,4.7-5.7,4.6-5.9c-0.4-0.4-3.6,3.1-5.3,4.9C82.3,37.1,78.8,40.8,79.2,41.1z"/>
<path d="M92.5,46.4c5.1-2.5,6.4-3.8,6.3-4.1c-0.2-0.5-4.4,1.7-6.6,2.9c-2.2,1.2-6.7,3.5-6.4,4C86.1,49.7,87.4,48.9,92.5,46.4z"/>
<path d="M103.1,60.7c0-0.4-4.5-0.6-6.9-0.6c-2.4,0-7.3-0.3-7.2,0.2c0,0.5,1.5,0.4,7,0.8C101.3,61.3,103.1,60.9,103.1,60.7z"/>
<path d="M55,83.9c-0.4-0.1-0.8,1-2.5,4.9c-1.7,3.9-1.8,5.3-1.7,5.4c0.4,0.2,1.7-3.1,2.4-4.9C53.9,87.5,55.4,84,55,83.9z"/>
<path d="M60.1,85.8c-0.4-0.1-0.5,1-1.5,4.9c-0.9,3.9-0.8,5.2-0.6,5.2c0.4,0.1,1.1-3.2,1.4-4.9C59.6,89.3,60.5,85.9,60.1,85.8z"/>
<path d="M65.8,91.5c-0.1-1.9-0.1-5.7-0.6-5.6c-0.4,0.1-0.3,1.2-0.3,5.5c0,4.3,0.5,5.6,0.7,5.6C66,96.9,65.9,93.3,65.8,91.5z"/>
<path d="M73.2,96.9c0.4-0.1-0.6-4.1-1.2-6.2c-0.6-2.1-1.6-6.4-2.1-6.2c-0.4,0.2,0,1.5,1.1,6.3C72.2,95.6,73,96.9,73.2,96.9z"/>
<path d="M74.6,82.6c-0.4,0.2,0.1,1.3,1.8,5.5c1.6,4.2,2.6,5.4,2.8,5.3c0.4-0.1-1-3.6-1.9-5.5C76.5,86.2,75,82.4,74.6,82.6z"/>
<path d="M78.7,79.9c-0.4,0.3,0.4,1.3,2.9,5c2.5,3.8,3.7,4.7,3.9,4.6c0.4-0.2-1.8-3.3-3-4.9C81.3,82.9,79,79.6,78.7,79.9z"/>
<path d="M86,82.6c-1.8-1.5-5.2-4.8-5.5-4.4c-0.3,0.4,0.8,1.3,4.6,5c3.8,3.7,5.4,4.4,5.6,4.2C91,87.1,87.8,84.1,86,82.6z"/>
<path d="M96.3,78c0.2-0.4-3-2.3-4.8-3.3c-1.7-1-5.2-3.1-5.4-2.7c-0.2,0.4,0.9,1,4.7,3.4C94.7,77.9,96.2,78.2,96.3,78z"/>
<path d="M92.9,70c4.2,1.6,5.8,1.6,5.8,1.4c0.2-0.4-3.4-1.6-5.3-2.2c-1.9-0.6-5.7-2-5.8-1.5C87.5,68.1,88.7,68.4,92.9,70z"/>
<path d="M88.1,62.5c-0.1,0.5,1.2,0.6,5.6,1.5c4.4,0.9,5.9,0.7,6,0.5c0.1-0.4-3.6-1.1-5.6-1.4C92.1,62.8,88.1,62,88.1,62.5z"/>
<path d="M100.2,57.6c0-0.4-3.6-0.5-5.6-0.4c-1.9,0-5.8-0.1-5.8,0.3c0,0.4,1.2,0.4,5.6,0.6C98.7,58.2,100.1,57.8,100.2,57.6z"/>
<path d="M88.5,53c0.2,0.4,1.4,0,6.2-1.1c4.8-1.1,6.2-2,6.1-2.2c-0.1-0.4-4.1,0.6-6.1,1.2C92.6,51.5,88.3,52.5,88.5,53z"/>
<path d="M36.6,79.2c-3.8,2.4-4.7,3.6-4.6,3.7c0.2,0.4,3.4-1.7,5-2.9c1.6-1.1,5-3.3,4.7-3.7C41.4,76,40.4,76.8,36.6,79.2z"/>
<path d="M40.1,48.3c0.2-0.5-1.2-1.2-6-4.1c-4.8-2.9-6.7-3.3-6.8-3.1c-0.3,0.4,3.8,2.8,6,3.9C35.5,46.2,39.8,48.8,40.1,48.3z"/>
<path d="M42.5,43.6c0.1-0.9-1.2-1.7-5.1-5.6c-3.9-3.9-5.1-4.1-5.2-3.8c-0.2,0.8,3.2,3.9,4.9,5.3C38.9,41.1,42.4,44.5,42.5,43.6z"/>
<path d="M38.4,28c-0.4,0.3,2.2,4,3.7,5.9c1.4,1.9,4.2,6,4.6,5.6c0.4-0.3-0.5-1.5-3.6-6.1C40,28.9,38.6,27.8,38.4,28z"/>
<path d="M48.5,38.2c0.4-0.3-0.3-1.5-2.7-6.1c-2.3-4.6-3.6-5.8-3.8-5.7c-0.4,0.2,1.6,4,2.8,6C46,34.3,48.1,38.5,48.5,38.2z"/>
<path d="M46.4,25.5c-0.4,0.2,1.2,3.8,2.1,5.7c0.9,1.9,2.5,5.8,2.9,5.6c0.4-0.2-0.2-1.4-2-5.8C47.6,26.6,46.6,25.5,46.4,25.5z"/>
<path d="M50,22.9c-0.4,0.1,0.9,4.3,1.7,6.4c0.8,2.1,2.2,6.6,2.6,6.4c0.4-0.2-0.1-1.5-1.6-6.5C51.2,24.2,50.2,22.8,50,22.9z"/>
<path d="M53.6,22.3c-0.5,0.1,0.7,4.3,1.4,6.4c0.7,2.2,1.8,6.6,2.3,6.4c0.5-0.2,0-1.5-1.3-6.5C54.8,23.7,53.8,22.3,53.6,22.3z"/>
<path d="M63.3,27c0.1,2.3,0,6.9,0.5,6.8c0.5,0,0.4-1.5,0.6-6.6c0.1-5.2-0.4-6.8-0.6-6.8C63.2,20.4,63.2,24.7,63.3,27z"/>
<path d="M69.6,34c0.5,0.1,0.7-1.3,1.9-6.4c1.2-5,1-6.7,0.8-6.8c-0.5-0.1-1.4,4.1-1.8,6.3C70.2,29.4,69.1,33.9,69.6,34z"/>
<path d="M71.8,34.3c0.4,0.1,0.8-1.1,2.6-5.5c1.7-4.4,1.8-5.9,1.6-6c-0.4-0.2-1.8,3.5-2.4,5.5C72.9,30.3,71.4,34.2,71.8,34.3z"/>
<path d="M76.6,36.7c0.3,0.2,0.9-0.8,3.3-4.1c2.4-3.3,2.8-4.6,2.6-4.7c-0.3-0.2-2.2,2.6-3.2,4.1C78.3,33.6,76.2,36.5,76.6,36.7z"/>
<path d="M78.4,38.5c0.5,0.2,1.2-0.9,4-4.5c2.9-3.6,3.1-5,2.9-5.1c-0.5-0.2-2.8,2.9-3.9,4.5C80.4,35,77.9,38.3,78.4,38.5z"/>
<path d="M82.2,42.9c0.6,0.3,1.5-0.7,5.5-4.1c4-3.4,4.6-4.9,4.4-5.1c-0.5-0.4-3.7,2.6-5.3,4.2C85.1,39.4,81.6,42.5,82.2,42.9z"/>
<path d="M89.5,41.7c4.7-3.6,5.5-5.2,5.2-5.4c-0.5-0.4-4.3,2.7-6.2,4.3c-1.9,1.7-6.1,4.9-5.4,5.3C83.7,46.4,84.9,45.3,89.5,41.7z"/>
<path d="M90.9,42.9c-1.7,1.3-5.3,3.8-4.8,4.2c0.5,0.4,1.5-0.5,5.6-3.2c4.1-2.8,4.8-4.1,4.6-4.3C95.9,39.2,92.6,41.6,90.9,42.9z"/>
<path d="M58.6,21.2c-0.5,0,0,4.5,0.4,6.9c0.4,2.4,0.8,7.2,1.4,7.1c0.5-0.1,0.3-1.6-0.3-7C59.6,22.8,58.9,21.2,58.6,21.2z"/>
<path d="M66.1,34.3c0.5,0.1,0.7-1.4,1.8-6.7c1.1-5.3,0.8-7.1,0.6-7.1c-0.5-0.1-1.3,4.4-1.7,6.7C66.5,29.5,65.6,34.2,66.1,34.3z"/>
<path d="M73.9,36.3c0.5,0.2,1-1.2,3.3-6.2c2.3-4.9,2.4-6.7,2.2-6.8c-0.5-0.2-2.3,4-3.1,6.2C75.4,31.7,73.4,36.1,73.9,36.3z"/>
<path d="M36.9,49.9c0.3-0.7-8.7-4.4-8.8-4C27.8,46.7,36.6,50.6,36.9,49.9z"/>
<path d="M36.6,56c0.3-0.9-11.7-3.9-11.8-3.3C24.7,53.6,36.4,56.9,36.6,56z"/>
<path d="M40.8,45.7c0.5-0.6-8.3-6.7-8.5-6.3C31.9,40.1,40.3,46.3,40.8,45.7z"/>
<path d="M44.4,40.9c0.6-0.5-7-8-7.3-7.6C36.6,33.9,43.8,41.4,44.4,40.9z"/>
<path d="M35.7,61.3c-0.1-1-10.1-0.6-10.1-0.1C25.6,62.1,35.8,62.3,35.7,61.3z"/>
<path d="M26.1,68c0.2,0.8,10.3-0.4,10-1.4C35.9,65.6,26,67.5,26.1,68z"/>
<path d="M28.1,75.8c0.4,0.8,10.6-3.2,10.1-4.2C37.7,70.7,27.9,75.3,28.1,75.8z"/>
</svg>
