<?xml version="1.0" encoding="utf-8"?>
<!-- Generator: Adobe Illustrator 19.2.1, SVG Export Plug-In . SVG Version: 6.00 Build 0)  -->
<svg version="1.1" id="Layer_1" xmlns="http://www.w3.org/2000/svg" xmlns:xlink="http://www.w3.org/1999/xlink" x="0px" y="0px"
	 viewBox="0 0 570.2 191.9" style="enable-background:new 0 0 570.2 191.9;" xml:space="preserve">
<style type="text/css">
	.st0 {
		fill: #31B1DD;
		animation: fadeIn 1.0s ease-out 1;
		animation-delay: 0.25s;
		animation-fill-mode: forwards;
		opacity: 0;
	}
	.st1 {
		fill: #FFFFFF;
		animation: fadeIn 1.0s ease-out 1;
	}
	@keyframes fadeIn {
	  0% { opacity: 0; transform:  translate(-10px, 10px)  rotate(0deg); }
		25% { opacity: 0; transform:  translate(-10px, 10px)  rotate(0deg); }
		100% { opacity: 1; transform:  translate(0px, 0px)  rotate(0deg); }
	}
</style>
<g>
	<g>
		<polygon class="st0" points="430.8,0 424.4,24 84,24 42.2,179.9 18.2,179.9 60,24 12,24 18.4,0 		"/>
		<path class="st0" d="M98.3,60L66.2,179.9h119.9L218.2,60H98.3z M168.5,155.9h-72l19.3-72h72L168.5,155.9z"/>
		<polygon class="st0" points="362.2,60 330,179.9 306.1,179.9 331.8,84 259.8,84 234.1,179.9 210.1,179.9 242.2,60 		"/>
		<polygon class="st0" points="354,179.9 360.5,155.9 384.4,155.9 378,179.9 		"/>
		<polygon class="st0" points="467.8,24 453.3,78 489.3,78 482.9,102 446.9,102 432.4,155.9 528.4,155.9 521.9,179.9 402,179.9
			450.2,0 570.2,0 563.7,24 		"/>
	</g>
	<g>
		<polygon class="st1" points="412.1,12 405.7,36 72,36 30.2,191.9 6.2,191.9 48,36 0,36 6.4,12 		"/>
		<path class="st1" d="M86.3,72L54.2,191.9h119.9L206.3,72H86.3z M156.6,167.9h-72l19.3-72h72L156.6,167.9z"/>
		<polygon class="st1" points="350.2,72 318,191.9 294.1,191.9 319.8,96 247.8,96 222.1,191.9 198.1,191.9 230.2,72 		"/>
		<polygon class="st1" points="342,191.9 348.5,167.9 372.5,167.9 366,191.9 		"/>
		<polygon class="st1" points="455.8,36 441.3,90 477.3,90 470.9,113.9 434.9,113.9 420.4,167.9 516.4,167.9 510,191.9 390,191.9
			438.2,12 558.2,12 551.7,36 		"/>
	</g>
</g>
</svg>
