<?xml version="1.0" encoding="utf-8"?>
<!-- Generator: Adobe Illustrator 20.1.0, SVG Export Plug-In . SVG Version: 6.00 Build 0)  -->
<svg version="1.1" id="Layer_1" xmlns="http://www.w3.org/2000/svg" xmlns:xlink="http://www.w3.org/1999/xlink" x="0px" y="0px"
	 viewBox="0 0 107.6 107.6" style="enable-background:new 0 0 107.6 107.6;" xml:space="preserve">
<style type="text/css">
	.st0{fill:#FFFFFF;}
	.st1{fill:#231F20;}
</style>
<g>
	
		<image style="overflow:visible;opacity:0.5;" width="126" height="126" xlink:href="83E88B572ED55C70.png"  transform="matrix(1 0 0 1 -9.2223 -7.2197)">
	</image>
	<g>
		<g>
			<ellipse class="st0" cx="53.8" cy="53.8" rx="53.8" ry="53.8"/>
			<g>
				<path class="st1" d="M43.8,67.6c-0.6,0.2-0.6,0.3-0.7,0.2c-0.2-0.1,0.2-0.5,0.7-0.6c0.4-0.1,0.9,0.1,1,0.3
					C44.9,67.7,44.4,67.4,43.8,67.6L43.8,67.6z M44.2,46.6c0,0,0.1,0,0.4,0c0.3,0,0.3,0,0.3,0c0.2,1.5-0.4,1.5-0.4,1.5l-0.2-0.3
					c0,0,0.4,0,0.4-0.4C44.6,47.1,44.2,47.2,44.2,46.6L44.2,46.6z M51.1,37.5C51.1,37.5,51.1,37.5,51.1,37.5
					c0.1-0.1,0.1-0.1,0.1-0.2c0,0,0-0.1,0-0.1c-0.1-0.1-0.2-0.1-0.3-0.1c-0.1,0.1-0.2,0.1-0.2,0.1c-0.2,0.1-0.5,0.1-0.8-0.1
					c-0.4-0.3-1-0.3-1.5-0.2c0.2-0.2,0.5-0.3,0.9-0.4c0.6-0.1,1.1-0.3,1.6-0.6c0.5-0.2,1-0.5,1.5-0.5c0.7,0,1.6-0.5,2.2-0.9l0.1,3
					c-0.8,0.3-2.9,1.2-4.4,1.2c-0.9,0-1.5,0.2-1.9,0.3c0.5-0.4,1.6-1.1,2.6-1.6c0.1,0,0.1-0.1,0.2-0.1C51,37.5,51,37.5,51.1,37.5
					C51.1,37.5,51.1,37.5,51.1,37.5L51.1,37.5z M39.5,65.8l-0.2-0.1c-1.5-0.8-5.6-3-5.6-9.5c0-4,0.7-5.1,1.2-6
					c0.4-0.7,0.8-1.3,0.8-2.8l0-1.5c-0.1-2.4-0.1-3.6,2.3-5.8c1.3-1.2,1.9-2,2.4-2.7c0.7-0.9,1.1-1.5,2.6-2.1c0.5-0.2,1-0.3,1.5-0.4
					c-0.1,0.1-0.1,0.2-0.1,0.3c-0.1,0-0.2,0.1-0.2,0.2c-0.1,0-0.1-0.1-0.2-0.1c-0.2,0-0.4,0.2-0.4,0.4c0,0-0.1,0-0.2,0
					c-0.2,0-0.3,0.1-0.3,0.3c-0.1,0-0.2,0.1-0.2,0.2c0,0-0.1,0-0.1,0c-0.1,0-0.2,0.1-0.2,0.2c0,0.1,0.1,0.2,0.2,0.2c0,0,0.1,0,0.1,0
					c0.1,0.1,0.1,0.1,0.2,0.1c0.1,0,0.2-0.1,0.3-0.2c0,0,0,0,0,0c0.1,0,0.2,0,0.2-0.1c0.1,0,0.1,0.1,0.2,0.1c0.1,0,0.1,0,0.2,0
					c0,0,0,0,0,0c0.2,0,0.3-0.1,0.4-0.2c0.1,0,0.2,0.1,0.3,0.1c0.3,0,0.5-0.2,0.5-0.5c0,0,0-0.1,0-0.1c0.1-0.1,0.1-0.2,0.1-0.3
					c0-0.2-0.1-0.3-0.2-0.3c0.3,0,0.6-0.1,0.9-0.1c-0.1,0.1-0.1,0.1-0.1,0.2c0,0.2,0.1,0.3,0.3,0.3c0.2,0,0.3-0.1,0.3-0.3
					c0-0.1,0-0.2-0.1-0.2c0.2,0,0.4,0,0.6,0c1.4,0,2.8,0,4.2-0.8c0,0.1-0.1,0.1-0.1,0.2c0,0.2,0.2,0.4,0.4,0.4s0.4-0.2,0.4-0.4
					c0-0.2-0.2-0.4-0.4-0.4c2.9-1.5,7.6-2.2,11.4-0.5c1.4,0.6,2.2,1.2,2.7,1.8c-0.1,0-0.2,0.1-0.2,0.2c0,0.1,0.1,0.3,0.3,0.3
					c0,0,0,0,0,0c0,0,0,0,0,0.1c0,0.2,0.1,0.3,0.3,0.3c0.1,0,0.2,0,0.2-0.1c0.2,0.4,0.4,0.8,0.6,1.3c0.4,0.9,0.8,1.9,1.9,3l1.8,1.5
					c2.2,1.7,4.1,3.2,3.3,8.1c-0.3,1.9,0,2.7,0.2,3.5c0.3,1,0.6,1.9,0,5.2c-0.1,0.7-0.5,1.2-1,1.8c-0.4,0.5-0.7,1-1,1.6
					c-0.7,1.7-1.5,3.5-2.6,4.9c-1,0.2-2.3,0-2.3,0s1.4-0.2,1.5-0.2c0.1,0,0.2-0.2,1-1.3c0.8-1.1,0.1-1.3,0.3-1.4
					c0.2,0,0.9-0.8,1.1-1.3c0.2-0.4-1-0.2-2-0.2c-1,0-2.1,0.7-1.9,1c0.2,0.3,0.6,0.2,1.4,0.1c0.8-0.1,1,0.2,0.7,0.6
					c-0.3,0.3-0.9,0.1-1.4,0.1c-0.4,0-1.6,0-1.8,0c0.1,0,0.2-0.1,0.2-0.4c0-0.5-0.7-0.5-1.2-0.4c0.6-0.6,0.9-1.2,0.9-1.8
					c0-1.8-0.3-1.5-0.3-3c0-1.5,0.4-2.1,1-2.1c0.5,0,0.9,0.2,1.4,0.2c0.5,0,1-0.2,1-0.8c0-1.1-0.4-2-2.1-2c-0.5,0-0.9,0.1-1.2,0.2
					c-1.4-1.6-4.3-6.5-4.7-7.1c0.3-1.6,0.6-2.3,0.7-2.3l0.2-0.3c0.2-0.3,0.4-0.6,0.3-1.1l0.3,0c0.2,0,0.4-0.1,0.4-0.3
					c0-0.2-0.1-0.4-0.3-0.4l-1.9-0.1c0-0.1-0.1-0.1-0.1-0.1L55.5,40l-0.2-5.8c0.2-0.1,0.3-0.4,0.3-0.6c0-0.4-0.4-0.8-0.8-0.8
					c-0.4,0-0.8,0.4-0.8,0.8c0,0.3,0.2,0.5,0.4,0.7c-0.5,0.3-1.5,0.9-2.1,0.9c-0.5,0-1.1,0.3-1.6,0.5c-0.5,0.2-1,0.5-1.5,0.5
					c-1.2,0.1-1.8,1.1-1.8,1.1c0,0.1,0,0.2,0,0.3c0.1,0.1,0.2,0.1,0.2,0.1c0.4-0.2,1.5-0.5,1.9-0.2c0.1,0.1,0.3,0.1,0.4,0.1
					c-2.3,1.4-2.6,1.8-2.6,2c0,0,0,0,0,0.1c0,0.1,0.1,0.2,0.2,0.2c0.1,0.1,0.3,0,0.5-0.1c0.3-0.2,0.9-0.5,2.1-0.5
					c1.5,0,3.5-0.8,4.5-1.2l0,1.5L51.2,42L49.7,42c-0.2,0-0.4,0.1-0.4,0.3c0,0.2,0.1,0.4,0.3,0.4l0.3,0c0,0.1-0.1,0.3-0.1,0.4l0,0
					c-0.1,0.1-1.6,1.4-1.6,7.1c0,4.2,1.1,5.4,1.1,5.4l0.1,0.1l0.1,0c0,0,3.8,0.2,5.5,0.5l0.1,2.6c-6.1-0.9-7.6-3.7-7.6-4.5
					c0-1,0.6-2.2,0.6-3.4c0-1.2-0.2-2.1-0.9-3c-0.7-0.9,0.1-1.3-0.4-1.7c-0.5-0.5-1,0.2-1.3,0.2c-0.2,0-0.4-0.3-0.2-0.6
					c0.2-0.3,0.4-0.7,0-1c-0.4-0.3-0.3,0-0.8,0.7c-0.5,0.7-1.1,0-1.5,0.3c-1.2,1-0.1,1.2-1.7,2.1c-0.7,0.4-1.3,0.6-1.3,1.5
					c0,0.5,1,0.8,1.7,0.5c0.8-0.3,1,0.3,0.5,0.6C42,50.7,41.9,51,42,51.3c0.1,0.3,0.6,0.3,1,0.1c0.7-0.6,1.8-0.5,1.8-0.2
					c0,1-2.3,3.1-2.3,6.1c0,2.3,1.3,5,4.7,6.8c-0.1,0.4-0.3,0.8-1.1,0.8c-1.2,0-2.3-0.8-3.6-0.8c-1.3,0-2.9,0.6-2.9,1
					c0,0.4,0.6,0.5,1.4,0.5c0.8,0,2.2,0.3,2,0.7c-0.3,0.7-0.4-0.2-1.9-0.2c-0.5,0-0.9,0.1-1.1,0.2C39.9,66.1,39.7,65.9,39.5,65.8
					L39.5,65.8z M56,71.1c-0.1,0.1-0.7,0-0.8-0.2c-0.1-0.2,0.8-0.2,1.1,0.1C56.4,71.1,56.1,70.9,56,71.1L56,71.1z M58.6,71.7
					c0,0-1.6,0-1.8-0.3c0,0,0.5-0.3,0.5-0.3c0-0.1,0.1,0.4,1,0.3C58.8,71.3,58.6,71.7,58.6,71.7L58.6,71.7z M53.8,68.5
					c0.4-0.2,0.6-0.6,0.1-0.6c-0.4,0-1.6,0-2.2-0.4c-0.7-0.3-1.1-0.5-1.1-0.5c0.2-0.2,0.9-0.2,1.4,0.2c0.6,0.3,2.5,0.3,3-0.1
					c0.5-0.4,0.9-0.5,0.6-0.8c-0.3-0.3-0.5-0.7-0.2-0.6c0.2,0.1,1.4,0.4,1.6,0.4c0.1,0-1.5,0.8-1.3,1.4c0,0,1.1-0.5,1.7-0.1
					c0.6,0.5,1.8,0.2,1.8,0.2s-0.7,0.7-2,0.3c-1.2-0.3-2.4,0-2.5,0.2c-0.1,0.2-0.1,0.6,0.2,0.7c0.3,0,0.9-0.4,1.7,0.2
					c0,0-0.8,0.3-1.1,0.4c-0.3,0.1,0,0.3-0.6,0.1c-0.7-0.2-1.3-0.5-1.4-0.6C53.4,68.8,53.4,68.7,53.8,68.5L53.8,68.5z M47.4,65.7
					c0.4,0.3,0.7,0,0.7,0.2c0,0.2-0.1,0.3-0.4,0.3c-0.3,0-1.2-0.2-1.5-0.5C46,65.5,47,65.3,47.4,65.7L47.4,65.7z M56.6,63.8
					c3.3,0,4.3-0.5,4.3-0.5s-0.4,0.9-3.4,0.9c-11,0-12.5-5.4-12.5-5.4S47.7,63.8,56.6,63.8L56.6,63.8z M62.7,59.1
					c0,0-1.3,2.6-7.9,1.7c-8-1.1-8.1-4.9-8.1-4.9s1,2.3,5.3,3.6C60,61.8,62.7,59.1,62.7,59.1L62.7,59.1z M59.1,59.1
					c-1.1,0-2.1-0.1-3-0.2L56,56.5c1.5,0.4,5.4,1,5.5,1l0.3,0l-0.1-0.3c0,0-1.1-3.5-1.1-7.3c0-0.9,0-1.7,0.1-2.3
					c0.8,1.4,3.1,5.1,4.4,6.6C63.3,55.5,63.9,59.1,59.1,59.1L59.1,59.1z M50.9,69.1c0.7,0.3,1,0.3,1,0.4c0.1,0.1-3.4-0.4-2.2-0.7
					C50.1,68.7,50.2,68.9,50.9,69.1L50.9,69.1z M49.8,67c-0.2,0.5-1.8,0.8-2.4,0.3c-0.3-0.2,0.7-0.3,1.1-0.6
					c0.5-0.4,1.6-0.7,1.8-0.5C50.5,66.5,50,66.5,49.8,67L49.8,67z M52.5,65.3c-0.1,0.5-1.3,0.5-1.3,0.5c0.5-0.5-0.1-0.6,0.2-0.6
					c0.2,0,0.5-0.1,0.7-0.1c0.1,0,0.2,0,0.3,0C52.5,65.1,52.5,65.2,52.5,65.3L52.5,65.3z M53.9,65.7c-0.2,0-0.6-0.1-0.6-0.4
					c0-0.2,1.2,0,1.4,0.3C55.1,65.9,54.2,65.8,53.9,65.7L53.9,65.7z M63,68c-0.2,0.1-0.7,0.2-0.8,0.1c-0.2-0.1,0.4-0.8,0.8-0.7
					C63.3,67.5,63.2,67.8,63,68L63,68z M64.4,68.9c-0.4,0-1-0.1-0.9-0.3c0.1-0.2,0.1-0.2,0.1-0.2c0.1-0.1,0.4,0.1,0.9,0.1
					c0.5,0,1-0.1,1,0.2C65.5,68.8,64.8,68.9,64.4,68.9L64.4,68.9z M64.7,66.1c0.6,0,1.4-0.1,1.5,0.1c0.1,0.2,0.1,0.2,0.1,0.2
					s-0.8,0.3-1.3,0.3c-0.5,0-1.1,0.1-1.2,0.3c-0.1,0.2-0.3,0.2-0.7-0.1c-0.3-0.3-0.7-0.5-1.2-0.1c-0.6,0.4-0.7,0.3-0.7,0.3
					s0.2-0.6-0.8-0.6c-1,0-1.5-0.3-1.5-0.3c0-0.1,0.5-0.4,1.3-0.3s2.2,0.3,2.6,0.1c0.4-0.1,1.4-1,1.4-1.2c0-0.2-1.2,0-1.9-0.2
					c-0.7-0.2-2.6-0.1-2.9,0.4c-0.3,0.5-1.9,1.5-1.9,1c0-0.4,0.7-0.2,1-0.7c0.3-0.5,1.4-1,3-1c1.6,0,2.1,0.7,3.7,0.1
					c0,0-0.1,0.3-0.8,0.9C63.8,65.8,64.2,66.1,64.7,66.1L64.7,66.1z M57,43l0,0.2l0,0c0,0-0.7,0.4-1.3,0.3l0-0.5L57,43L57,43z
					 M59.3,43.1l0,0.4c-0.1,0-1.4,0.6-2-0.2l0,0l0-0.2L59.3,43.1L59.3,43.1z M59.5,43.1l2.2,0.1c0.1,0.5-0.2,0.9-0.3,1.1l-0.1,0
					c0,0-0.9,0.2-1.8-0.8l0,0L59.5,43.1L59.5,43.1z M55.6,42.2l-0.1-1.7l4,1.9L55.6,42.2L55.6,42.2z M51.1,44c0.6,0,1.1-0.3,1.3-0.5
					c0.3,0.3,0.6,0.5,1,0.5c0.6,0,1.2-0.3,1.4-0.5c0.8,0.6,1.7,0.3,2.3,0c0.7,0.7,1.9,0.4,2.3,0.3c0.7,0.7,1.3,0.9,1.7,0.9
					c-0.3,0.7-0.8,2.3-0.8,5.2c0,3.2,0.7,6.1,1,7.1c-1-0.2-4.4-0.7-5.4-1c-1.1-0.4-5.6-0.6-6.2-0.7c-0.2-0.3-1-1.6-1-5.1
					c0-4.6,1-6.3,1.3-6.7C50.4,43.8,50.7,44,51.1,44L51.1,44z M52.2,42.8c0,0.1,0,0.2,0,0.3l0,0c0,0-0.5,0.5-1.1,0.5
					c-0.3,0-0.6-0.2-0.9-0.5l0,0c0-0.1,0-0.3,0.1-0.4L52.2,42.8L52.2,42.8z M54.7,42.9l0,0.1l-0.1,0.1c0,0-0.6,0.5-1.2,0.5
					c-0.3,0-0.6-0.2-0.8-0.5l-0.1-0.1c0-0.1,0-0.2,0-0.3L54.7,42.9L54.7,42.9z M51.9,42.1c0.8-0.5,2.2-1.4,2.7-1.8l0.1,1.9
					L51.9,42.1L51.9,42.1z M50.4,60.9c6.9,2.6,10.7,0.7,10.7,0.7s-3.4,2.2-9.3,0.3c-7.9-2.5-5.6-7.1-5.6-7.1S45.3,59,50.4,60.9
					L50.4,60.9z M46.1,70.1c-0.2-0.2,0.3-0.3,0.7-0.5c0.4-0.2,0.7-0.3,0.9-0.1C47.8,69.6,46.2,70.2,46.1,70.1L46.1,70.1z M65,70.3
					c4.3-1.2,6.3-4.7,7.7-8.3c0.2-0.6,0.6-1,0.9-1.5c0.4-0.6,0.9-1.3,1.1-2.1c0.6-3.4,0.3-4.5,0-5.4c-0.2-0.8-0.4-1.4-0.2-3.2
					c0.8-5.3-1.3-7-3.6-8.7L69,39.6c-1.1-1-1.4-1.9-1.8-2.8c-0.6-1.4-1.1-2.7-4.2-4.1c-4.1-1.8-9.2-0.9-12.2,0.7
					c-1.3,0.7-2.6,0.7-4,0.7c-1.3,0-2.6,0-4,0.6c-1.7,0.7-2.2,1.4-2.9,2.3c-0.5,0.7-1.1,1.5-2.3,2.6C35,42.1,35,43.6,35.1,46l0,1.5
					c0,1.3-0.3,1.8-0.7,2.4c-0.6,0.9-1.3,2.1-1.3,6.3c0,6.8,4.4,9.2,5.9,10l0.2,0.1c0.6,0.3,0.9,0.8,1.3,1.4c0.4,0.6,0.9,1.4,1.7,2
					c2.4,1.9,3.4,1.8,4.2,1.7l0.4,0c3.1,0,3.9,0.7,4.7,1.4c0.7,0.6,1.3,1.2,3.4,1.2c3,0,3.5-0.5,4.4-1.2
					C60.1,72.2,61.1,71.3,65,70.3"/>
				<path class="st1" d="M50.5,49.6l0.3,2l-0.7,0L50.5,49.6L50.5,49.6z M49.2,53.3l0,0.5l0.9,0.1l0-0.5c-0.1,0-0.2,0-0.2-0.1
					c0-0.1-0.1-0.2-0.1-0.3c0-0.1,0-0.3,0.1-0.5l0.1-0.3l0.9,0.1l0.1,0.5l0,0.2c0,0.1,0,0.2,0,0.3c0,0.1,0,0.2-0.1,0.2
					c0,0.1-0.1,0.1-0.2,0.1l0,0.5l1.4,0.1l0-0.5c-0.1,0-0.1-0.1-0.2-0.2c-0.1-0.1-0.1-0.4-0.2-0.9L51,47.2l-0.2,0l-1,5
					C49.6,52.9,49.4,53.3,49.2,53.3"/>
				<path class="st1" d="M54.1,53.6c-0.1,0-0.2-0.1-0.3-0.2c0-0.1-0.1-0.3,0-0.6l0-1.3l0.3-0.6l0.5,1.9c0.1,0.3,0.1,0.5,0.1,0.6
					c0,0.2-0.1,0.3-0.3,0.3l0,0.5l1.6,0.1l0-0.5c-0.1,0-0.3-0.1-0.3-0.2c-0.1-0.2-0.2-0.5-0.3-0.9l-0.7-2.7l0.3-0.5
					c0.2-0.5,0.4-0.8,0.6-0.9c0.1-0.1,0.3-0.2,0.4-0.2l0-0.5l-1.3-0.1l0,0.5c0.2,0,0.2,0.1,0.2,0.3c0,0.2-0.1,0.4-0.2,0.7l-0.8,1.6
					l0.1-1.8c0-0.3,0-0.5,0.1-0.6c0-0.1,0.1-0.2,0.3-0.2l0,0l0-0.5l-1.5-0.1l0,0.5l0,0c0.1,0,0.2,0.1,0.3,0.2c0,0.1,0.1,0.3,0,0.6
					L53,52.7c0,0.3,0,0.5-0.1,0.6c0,0.1-0.1,0.2-0.3,0.2l0,0l0,0.5l1.5,0.1L54.1,53.6"/>
				<path class="st1" d="M56.6,48.8c0,0.9,0.3,2.5,1.3,2.5l-0.1,1.7c0,0.3,0,0.5-0.1,0.6c0,0.1-0.1,0.2-0.2,0.2l0,0l0,0.5l1.2,0.1
					l0-0.5c-0.1,0-0.2-0.1-0.2-0.2c0-0.1,0-0.3,0-0.6l0-1.3l0-0.4c0.9,0.1,1.4-1.4,1.4-2.4c0-0.2,0.2-0.2,0.3-0.2l0-0.5l-1.1-0.1
					l0,0.5c0.1,0,0.2,0.1,0.2,0.3c0,1.3-0.3,1.8-0.9,1.7l0.1-2.3c0-0.3,0-0.5,0.1-0.6c0-0.1,0.1-0.2,0.2-0.2l0,0l0-0.5l-1.3-0.1
					l0,0.5l0,0c0.1,0,0.2,0.1,0.2,0.2c0,0.1,0,0.3,0,0.6l-0.1,2.3c-0.6,0-0.8-0.5-0.8-1.9c0-0.2,0.1-0.3,0.2-0.3l0-0.5l-1.1-0.1
					l0,0.5C56.4,48.6,56.6,48.6,56.6,48.8"/>
				<path class="st1" d="M37.1,61.9c-0.1,0-0.3,0.1-0.3,0.3c0,0.1,0.1,0.3,0.3,0.3c0.1,0,0.3-0.1,0.3-0.3
					C37.4,62,37.3,61.9,37.1,61.9"/>
				<path class="st1" d="M37.1,62.4c-0.1,0-0.1,0.1-0.1,0.1c0,0.1,0.1,0.1,0.1,0.1c0.1,0,0.1-0.1,0.1-0.1
					C37.3,62.5,37.2,62.4,37.1,62.4"/>
				<path class="st1" d="M36.1,59.9c0-0.1,0.1-0.1,0.1-0.2c0-0.2-0.2-0.4-0.4-0.4c0,0-0.1,0-0.1,0c0,0,0.1-0.1,0.1-0.1
					c0-0.1-0.1-0.2-0.2-0.2c-0.1,0-0.2,0.1-0.2,0.2c0,0.1,0.1,0.2,0.2,0.2c0,0,0,0,0.1,0c-0.1,0.1-0.1,0.2-0.1,0.3
					c0,0.2,0.2,0.4,0.4,0.4c0,0,0,0.1,0,0.1c0,0,0,0,0,0.1c0,0-0.1-0.1-0.2-0.1c-0.1,0-0.3,0.1-0.3,0.3c0,0.1,0.1,0.3,0.3,0.3
					c0.1,0,0.3-0.1,0.3-0.3c0,0,0,0,0,0c0.1,0.1,0.1,0.1,0.2,0.1c0.2,0,0.3-0.1,0.3-0.3C36.4,60,36.3,59.9,36.1,59.9"/>
				<path class="st1" d="M35.3,58.3c-0.1,0-0.3,0.1-0.3,0.3c0,0,0,0.1,0.1,0.1c0,0-0.1,0.1-0.1,0.1c0,0.1,0.1,0.3,0.3,0.3
					c0.1,0,0.3-0.1,0.3-0.3c0,0,0-0.1-0.1-0.1c0,0,0.1-0.1,0.1-0.1C35.5,58.4,35.4,58.3,35.3,58.3"/>
				<path class="st1" d="M34.8,58.8c0-0.1,0-0.1-0.1-0.1c-0.1,0-0.1,0-0.1,0.1c0,0.1,0,0.1,0.1,0.1C34.7,58.9,34.8,58.8,34.8,58.8"
					/>
				<path class="st1" d="M34.9,58.4c0-0.1-0.1-0.2-0.2-0.2c-0.1,0-0.2,0.1-0.2,0.2c0,0.1,0.1,0.2,0.2,0.2
					C34.8,58.6,34.9,58.5,34.9,58.4"/>
				<path class="st1" d="M34.9,59.3c-0.1,0-0.3,0.1-0.3,0.3c0,0.1,0.1,0.3,0.3,0.3c0.1,0,0.3-0.1,0.3-0.3
					C35.2,59.4,35.1,59.3,34.9,59.3"/>
				<path class="st1" d="M35.7,57.9c0-0.2-0.1-0.3-0.3-0.3c0,0,0,0-0.1,0c0,0,0-0.1,0-0.1c0-0.2-0.2-0.4-0.4-0.4
					c-0.2,0-0.4,0.2-0.4,0.4s0.2,0.4,0.4,0.4c0,0,0.1,0,0.1,0c0,0,0,0.1,0,0.1c0,0.2,0.1,0.3,0.3,0.3C35.5,58.2,35.7,58,35.7,57.9"
					/>
				<path class="st1" d="M35.1,56.3c0-0.1,0-0.1,0-0.2c0,0,0-0.1,0-0.1c0.2-0.1,0.3-0.2,0.3-0.4c0-0.2-0.2-0.4-0.4-0.4
					c-0.2,0-0.3,0.1-0.4,0.2c-0.2,0-0.4,0.2-0.4,0.5c0,0.1,0,0.2,0.1,0.3c0,0,0,0,0,0.1c0,0.2,0.2,0.4,0.4,0.4
					C34.9,56.7,35.1,56.5,35.1,56.3"/>
				<path class="st1" d="M34.4,54.2c-0.1,0.1-0.1,0.1-0.1,0.2c0,0.2,0.1,0.3,0.3,0.3c0.1,0,0.3-0.1,0.3-0.2c0,0,0.1,0,0.1,0
					c0,0,0.1,0.1,0.1,0.1c0.1,0,0.3-0.1,0.3-0.3c0-0.1,0-0.1-0.1-0.1c0,0,0.1,0,0.1,0c0.2,0,0.4-0.2,0.4-0.4c0-0.2-0.2-0.4-0.4-0.4
					c-0.1-0.1-0.2-0.2-0.3-0.2c-0.2,0-0.4,0.2-0.4,0.3c-0.1-0.1-0.2-0.2-0.3-0.2c-0.2,0-0.4,0.2-0.4,0.4C34,54,34.2,54.2,34.4,54.2
					C34.4,54.2,34.4,54.2,34.4,54.2"/>
				<path class="st1" d="M34.6,52.1C34.6,52.1,34.6,52.1,34.6,52.1c0,0.2,0.1,0.4,0.3,0.4c0.2,0,0.3-0.1,0.3-0.3
					c0-0.2-0.1-0.3-0.3-0.3c0,0,0,0,0,0c0-0.1-0.1-0.1-0.2-0.1c-0.1,0-0.2,0.1-0.2,0.2C34.5,52,34.5,52.1,34.6,52.1"/>
				<path class="st1" d="M35.8,52.4c0.1,0,0.2-0.1,0.2-0.2c0-0.1-0.1-0.2-0.2-0.2c-0.1,0-0.2,0.1-0.2,0.2
					C35.6,52.3,35.7,52.4,35.8,52.4"/>
				<path class="st1" d="M36.6,47.4c-0.2,0-0.3,0.1-0.3,0.3c0,0.2,0.1,0.3,0.3,0.3c0.2,0,0.3-0.1,0.3-0.3
					C36.9,47.6,36.8,47.4,36.6,47.4"/>
				<path class="st1" d="M36.9,46.8c0.2,0,0.3-0.1,0.3-0.3c0-0.2-0.1-0.3-0.3-0.3c0,0,0.1-0.1,0.1-0.2c0-0.2-0.1-0.3-0.3-0.3
					c-0.2,0-0.3,0.1-0.3,0.3c0,0.1,0.1,0.3,0.2,0.3c0,0.1-0.1,0.1-0.1,0.2C36.6,46.6,36.7,46.8,36.9,46.8"/>
				<path class="st1" d="M36.7,45.4c0,0.1,0.1,0.3,0.3,0.3c0.1,0,0.3-0.1,0.3-0.3c0-0.1-0.1-0.3-0.3-0.3
					C36.8,45.1,36.7,45.2,36.7,45.4"/>
				<path class="st1" d="M37.3,44.9c0-0.1-0.1-0.2-0.2-0.2c-0.1,0-0.2,0.1-0.2,0.2c0,0.1,0.1,0.2,0.2,0.2
					C37.2,45.1,37.3,45,37.3,44.9"/>
				<path class="st1" d="M36.5,44.2c0.1,0,0.2-0.1,0.2-0.2c0-0.1-0.1-0.2-0.2-0.2c-0.1,0-0.2,0.1-0.2,0.2
					C36.3,44.1,36.4,44.2,36.5,44.2"/>
				<path class="st1" d="M38.1,41.7c-0.1,0-0.1,0-0.2,0.1c-0.1-0.1-0.2-0.1-0.3-0.1c-0.3,0-0.5,0.2-0.5,0.5c0,0.2,0.1,0.3,0.3,0.4
					c-0.1,0-0.1,0.1-0.1,0.2c0,0,0,0.1,0,0.1c0,0-0.1,0-0.1,0c-0.2,0-0.4,0.2-0.4,0.4c0,0.2,0.1,0.3,0.3,0.4c0,0,0,0,0,0
					c-0.1,0-0.2,0.2-0.2,0.3c0,0.1,0,0.2,0.1,0.2c-0.1,0-0.2,0.1-0.2,0.2c0,0.2,0.1,0.3,0.3,0.3c0.2,0,0.3-0.1,0.3-0.3
					c0-0.1,0-0.1-0.1-0.2c0.1,0,0.3-0.1,0.3-0.3c0.2,0,0.3-0.2,0.3-0.4c0-0.2-0.1-0.3-0.3-0.4c0-0.1,0-0.1-0.1-0.2c0,0,0,0,0,0
					c0.1,0,0.2-0.1,0.2-0.2c0-0.1,0-0.1-0.1-0.1c0.1,0,0.2-0.1,0.3-0.2c0.1,0,0.1,0,0.2,0c0.2,0,0.4-0.2,0.4-0.4
					C38.5,41.9,38.3,41.7,38.1,41.7"/>
				<path class="st1" d="M38.6,40.3c-0.1,0-0.2,0.1-0.2,0.2c0,0-0.1,0-0.1,0.1c0,0,0,0,0,0c-0.1,0-0.2,0.1-0.2,0.2c0,0,0,0,0,0
					c-0.1,0-0.2,0.1-0.2,0.3c0,0.1,0.1,0.3,0.3,0.3c0,0,0,0.1,0,0.1c0,0.1,0.1,0.2,0.2,0.2s0.2-0.1,0.2-0.2c0-0.1-0.1-0.2-0.2-0.2
					c0,0,0.1-0.1,0.1-0.1c0,0,0-0.1,0-0.1c0,0,0,0,0.1,0c0,0,0.1,0,0.1,0c0.1,0,0.2-0.1,0.2-0.2c0,0,0,0,0,0c0.1,0,0.1-0.1,0.1-0.2
					C38.8,40.4,38.7,40.3,38.6,40.3"/>
				<path class="st1" d="M39.7,39.9C39.7,39.9,39.7,39.8,39.7,39.9C39.7,39.8,39.7,39.8,39.7,39.9c0.1,0,0.3-0.2,0.3-0.3
					c0,0,0,0,0-0.1c0.1-0.1,0.2-0.2,0.2-0.3c0-0.1-0.1-0.2-0.2-0.3c0,0,0.1,0.1,0.1,0.1c0.1,0,0.1,0,0.2-0.1c0,0,0,0,0,0
					c0.2,0,0.3-0.1,0.3-0.3c0-0.2-0.1-0.3-0.3-0.3c-0.1,0-0.3,0.1-0.3,0.2c-0.1,0-0.2,0.1-0.2,0.2c0,0.1,0,0.1,0.1,0.2
					c0,0-0.1,0-0.1,0c-0.2,0-0.4,0.2-0.4,0.4c0,0.1,0,0.2,0.1,0.3c0,0,0,0.1,0,0.1c0,0,0,0,0,0.1c-0.1,0-0.1,0-0.2,0.1c0,0,0,0,0,0
					c-0.1,0-0.3,0.1-0.3,0.3c0,0.1,0.1,0.3,0.3,0.3c0.1,0,0.2-0.1,0.2-0.2C39.7,40,39.7,40,39.7,39.9"/>
				<path class="st1" d="M41,39c0.1,0,0.2-0.1,0.2-0.2c0-0.1-0.1-0.2-0.2-0.2c-0.1,0-0.2,0.1-0.2,0.2C40.9,39,40.9,39,41,39"/>
				<path class="st1" d="M41.5,37.7c-0.1,0.1-0.1,0.1-0.1,0.3c0,0.2,0.1,0.3,0.3,0.3c0.2,0,0.3-0.1,0.3-0.3c0-0.1-0.1-0.2-0.1-0.2
					c0.1,0,0.1-0.1,0.2-0.2c0.1,0,0.1,0,0.2,0v0c0,0.1,0,0.2,0.1,0.2c0,0-0.1,0.1-0.1,0.1c0,0.1,0.1,0.2,0.2,0.2
					c0.1,0,0.2-0.1,0.2-0.2c0,0,0,0,0,0c0.2,0,0.3-0.2,0.3-0.3c0-0.2-0.1-0.3-0.2-0.3c0,0,0-0.1,0-0.1c0-0.2-0.2-0.4-0.4-0.4
					c-0.2,0-0.4,0.1-0.4,0.3c0,0-0.1,0-0.1,0c-0.2,0-0.4,0.2-0.4,0.4C41.3,37.5,41.4,37.6,41.5,37.7"/>
				<path class="st1" d="M45.7,36.1c0.2,0,0.3-0.1,0.3-0.3c0-0.2-0.1-0.3-0.3-0.3c-0.2,0-0.3,0.1-0.3,0.3
					C45.5,36,45.6,36.1,45.7,36.1"/>
				<path class="st1" d="M47.6,35.4c0.2,0,0.3-0.1,0.3-0.3c0-0.2-0.1-0.3-0.3-0.3c-0.2,0-0.3,0.1-0.3,0.3
					C47.3,35.3,47.5,35.4,47.6,35.4"/>
				<path class="st1" d="M57.3,33.3C57.3,33.3,57.3,33.3,57.3,33.3c0.1,0.1,0.2,0.2,0.4,0.2c0.1,0,0.2-0.1,0.3-0.1
					c0,0,0.1,0.1,0.2,0.1c0.1,0,0.3-0.1,0.3-0.3c0-0.1-0.1-0.3-0.3-0.3c-0.1,0-0.1,0-0.2,0.1c-0.1-0.1-0.2-0.1-0.3-0.1
					c0,0-0.1,0-0.1,0c0-0.1-0.1-0.2-0.3-0.2c-0.2,0-0.3,0.2-0.3,0.3C57,33.1,57.1,33.3,57.3,33.3"/>
				<path class="st1" d="M58.4,32.9c0.2,0,0.3-0.1,0.3-0.3c0-0.2-0.1-0.3-0.3-0.3c-0.2,0-0.3,0.1-0.3,0.3
					C58.1,32.8,58.3,32.9,58.4,32.9"/>
				<path class="st1" d="M59.1,34.1c0.1,0,0.1,0,0.2-0.1c0,0,0.1,0,0.1,0c0,0,0,0,0,0c0,0.1,0.1,0.2,0.2,0.2c0.1,0,0.2-0.1,0.2-0.2
					c0-0.1-0.1-0.2-0.2-0.2c0,0,0,0,0,0c0-0.1-0.1-0.2-0.2-0.2c0,0,0,0,0,0c-0.1-0.1-0.2-0.2-0.3-0.2c-0.2,0-0.3,0.1-0.3,0.3
					C58.8,34,59,34.1,59.1,34.1"/>
				<path class="st1" d="M60.2,33.6c0,0,0,0.1,0,0.1c0,0.1,0.1,0.2,0.2,0.2c0.1,0,0.2-0.1,0.2-0.2c0,0,0,0,0-0.1
					c0.1,0,0.2-0.1,0.2-0.2c0-0.1-0.1-0.2-0.2-0.2c0,0-0.1,0-0.1,0c0,0-0.1,0-0.1,0c-0.1,0-0.2,0.1-0.2,0.2
					C60,33.5,60.1,33.6,60.2,33.6"/>
				<path class="st1" d="M61.6,33.9C61.6,33.9,61.6,33.9,61.6,33.9c0,0.1,0,0.2,0.1,0.2c-0.1,0-0.2,0.1-0.2,0.2
					c0,0.1,0.1,0.3,0.3,0.3s0.3-0.1,0.3-0.3c0-0.1,0-0.1-0.1-0.1c0.1,0,0.2-0.1,0.2-0.3c0-0.1,0-0.2-0.1-0.2c0,0,0-0.1,0-0.1
					c0-0.2-0.1-0.3-0.3-0.3c-0.2,0-0.3,0.1-0.3,0.3C61.4,33.8,61.5,33.9,61.6,33.9"/>
				<path class="st1" d="M62.6,35.2C62.6,35.2,62.6,35.2,62.6,35.2c0.1,0,0.2,0,0.2,0c0.1,0,0.2,0,0.3-0.1c0.1,0,0.1,0.1,0.2,0.1
					c0.1,0,0.2,0,0.2-0.1c0.1,0,0.1,0.1,0.2,0.1c0,0,0,0,0.1,0c0,0,0,0,0,0.1c0,0.1,0,0.1,0.1,0.2c0,0.1-0.1,0.1-0.1,0.2
					c0,0.2,0.2,0.4,0.4,0.4c0,0,0,0,0,0c0,0.1,0.1,0.3,0.2,0.3c0,0,0,0.1,0,0.1c0,0.2,0.1,0.3,0.3,0.3c0.1,0,0.2-0.1,0.3-0.2
					c0,0.2,0.2,0.3,0.4,0.3c0.2,0,0.4-0.2,0.4-0.4c0-0.2-0.2-0.4-0.4-0.4c0-0.1,0-0.1-0.1-0.2l0,0c0.1,0,0.2-0.1,0.2-0.2
					c0-0.1-0.1-0.2-0.2-0.2c-0.1,0-0.2,0.1-0.2,0.2c0,0,0,0,0,0.1c0,0-0.1,0-0.1,0c-0.1,0-0.2,0-0.2,0.1c0-0.1-0.1-0.2-0.2-0.2
					c0,0,0-0.1,0-0.1c0-0.1-0.1-0.3-0.2-0.3c0,0,0,0,0,0c0-0.2-0.1-0.3-0.3-0.3c0,0,0,0,0,0c0,0,0-0.1,0-0.1c0,0,0.1,0.1,0.2,0.1
					c0.2,0,0.3-0.1,0.3-0.3c0-0.2-0.1-0.3-0.3-0.3c-0.1,0-0.2,0.1-0.3,0.2c0,0,0,0-0.1,0c0,0,0,0,0,0c0-0.1-0.1-0.3-0.3-0.3
					s-0.3,0.1-0.3,0.3c0,0-0.1,0-0.1,0c-0.1,0-0.2,0-0.2,0.1c0,0-0.1-0.1-0.1-0.1c0,0,0,0,0,0c0-0.1-0.1-0.2-0.2-0.2
					c-0.1,0-0.2,0.1-0.2,0.2c0,0.1,0,0.1,0.1,0.2c0,0,0,0.1-0.1,0.1c-0.1,0-0.1,0.1-0.1,0.2C62.3,35.1,62.4,35.2,62.6,35.2"/>
				<path class="st1" d="M65.5,37.5c0,0.1,0.1,0.2,0.2,0.2c0.1,0,0.2-0.1,0.2-0.2c0-0.1-0.1-0.2-0.2-0.2
					C65.6,37.3,65.5,37.4,65.5,37.5"/>
				<path class="st1" d="M65.8,37.9c0,0.1,0.1,0.2,0.2,0.2c0.1,0,0.2-0.1,0.2-0.2c0-0.1-0.1-0.2-0.2-0.2
					C65.9,37.7,65.8,37.8,65.8,37.9"/>
				<path class="st1" d="M68,40.2c0.1,0,0.3-0.1,0.3-0.3c0-0.1-0.1-0.3-0.3-0.3s-0.3,0.1-0.3,0.3C67.8,40.1,67.9,40.2,68,40.2"/>
				<path class="st1" d="M69.5,42.2C69.5,42.2,69.5,42.2,69.5,42.2C69.5,42.3,69.5,42.3,69.5,42.2c0,0.2,0.1,0.3,0.3,0.4
					c0,0,0,0,0,0c0,0.1,0,0.1,0.1,0.2c0,0,0,0.1,0,0.1c0,0.2,0.1,0.3,0.3,0.3c0.2,0,0.3-0.1,0.3-0.3c0-0.2-0.1-0.3-0.3-0.3
					c0,0,0-0.1,0-0.1c0,0,0.1,0,0.1,0c0.2,0,0.3-0.1,0.3-0.3c0-0.2-0.1-0.3-0.3-0.3c-0.1,0-0.2,0-0.2,0.1C70,42,69.9,42,69.8,42
					c0,0,0,0,0,0c0,0,0,0,0,0c0-0.2-0.1-0.3-0.3-0.3c-0.2,0-0.3,0.1-0.3,0.3C69.2,42.1,69.3,42.2,69.5,42.2"/>
				<path class="st1" d="M70.5,43.3c0,0.1,0.1,0.2,0.1,0.3c-0.1,0.1-0.1,0.2-0.1,0.3c0,0.3,0.2,0.5,0.5,0.5c0.1,0,0.1,0,0.2-0.1
					c0.1,0,0.1,0.1,0.2,0.1c0,0,0,0,0,0c0,0,0,0.1,0.1,0.1c0,0-0.1,0.1-0.1,0.2c0,0.1,0.1,0.2,0.1,0.2c0,0,0,0,0,0c0,0,0,0,0,0
					c-0.1,0-0.3,0.1-0.3,0.3c0,0.1,0.1,0.3,0.3,0.3c0.1,0,0.1,0,0.2-0.1c0,0,0.1,0,0.1,0c0.1,0,0.2-0.1,0.2-0.1c0,0,0.1,0,0.1,0
					C72,45.2,72,45.3,72,45.4c0,0,0,0.1,0,0.1c0,0-0.1,0-0.1,0c0,0,0,0-0.1,0c0,0,0,0-0.1,0c-0.2,0-0.3,0.1-0.3,0.3
					c0,0.2,0.1,0.3,0.3,0.3c0,0,0,0,0.1,0c0,0,0,0,0.1,0c0.1,0,0.1,0,0.2-0.1c0,0.2,0.2,0.4,0.4,0.4c0,0,0,0-0.1,0
					c-0.1,0-0.1-0.1-0.2-0.1c-0.1,0-0.2,0-0.2,0.1c0,0-0.1,0-0.1,0c-0.2,0-0.3,0.1-0.3,0.3c0,0.1,0,0.1,0.1,0.2
					c-0.1,0-0.2,0.1-0.2,0.3c0,0.2,0.1,0.3,0.3,0.3c0.2,0,0.3-0.1,0.3-0.3c0-0.1,0-0.1-0.1-0.1c0,0,0,0,0.1,0
					c0.1,0.1,0.2,0.1,0.2,0.1c0.1,0,0.1,0,0.2,0c0.1,0.1,0.2,0.1,0.3,0.1c0.2,0,0.4-0.2,0.4-0.4c0-0.2-0.2-0.4-0.4-0.4
					c0.2-0.1,0.3-0.2,0.3-0.4c0-0.2-0.2-0.4-0.3-0.4c0,0,0-0.1,0-0.1c0-0.2-0.1-0.3-0.3-0.3c0.1-0.1,0.1-0.2,0.1-0.3
					c0-0.2-0.2-0.4-0.3-0.4c0-0.1,0.1-0.2,0.1-0.2c0,0,0-0.1,0-0.1c0.1-0.1,0.1-0.2,0.1-0.3c0-0.2-0.2-0.4-0.4-0.4c0,0,0,0,0,0
					c0-0.2-0.2-0.3-0.3-0.3c0,0,0,0,0,0c0,0,0,0,0,0c0-0.3-0.2-0.5-0.5-0.5c-0.3,0-0.5,0.2-0.5,0.5c0,0,0,0.1,0,0.1
					C70.5,43.1,70.5,43.2,70.5,43.3"/>
				<path class="st1" d="M72.8,47.6c-0.1-0.1-0.1-0.1-0.2-0.1c-0.1,0-0.2,0-0.3,0.1c-0.1-0.1-0.2-0.2-0.3-0.2
					c-0.2,0-0.3,0.1-0.3,0.3c0,0,0,0.1,0,0.1c0,0,0,0.1,0,0.2c0,0.2,0.1,0.3,0.3,0.3c0.1,0,0.1,0,0.2-0.1c0,0,0,0,0,0
					c0,0.1,0.1,0.3,0.3,0.3c0.1,0,0.3-0.1,0.3-0.3c0-0.1,0-0.1-0.1-0.1c0.1,0,0.2-0.1,0.2-0.2c0,0,0,0,0,0c-0.1,0.1-0.1,0.1-0.1,0.2
					c0,0.2,0.1,0.3,0.3,0.3c0.2,0,0.3-0.1,0.3-0.3c0-0.1,0-0.2-0.1-0.2c0.1-0.1,0.2-0.2,0.2-0.3c0-0.2-0.2-0.4-0.4-0.4
					C73,47.4,72.9,47.4,72.8,47.6"/>
				<path class="st1" d="M71.9,49.4c0,0.2,0.1,0.3,0.3,0.3s0.3-0.1,0.3-0.3c0,0,0,0,0,0c0.2,0,0.3-0.1,0.3-0.3
					c0-0.2-0.1-0.3-0.3-0.3c-0.2,0-0.3,0.1-0.3,0.3c0,0,0,0,0,0.1C72,49.2,71.9,49.3,71.9,49.4"/>
				<path class="st1" d="M73.1,49.7c0.2,0,0.3-0.1,0.3-0.3c0-0.2-0.1-0.3-0.3-0.3c-0.2,0-0.3,0.1-0.3,0.3
					C72.8,49.6,73,49.7,73.1,49.7"/>
				<path class="st1" d="M72.5,50.4c-0.1,0-0.2,0.1-0.2,0.2c0,0.1,0.1,0.2,0.2,0.2c0,0,0.1,0,0.1,0c0,0,0,0,0,0c0,0.1,0,0.2,0.1,0.2
					c-0.1,0-0.2,0.1-0.2,0.2c0,0.1,0.1,0.2,0.2,0.2c0.1,0,0.2-0.1,0.2-0.2c0-0.1,0-0.1-0.1-0.1c0,0,0,0,0,0c0.2,0,0.3-0.1,0.3-0.3
					c0-0.2-0.1-0.3-0.3-0.3c-0.1,0-0.2,0-0.2,0.1C72.7,50.4,72.6,50.4,72.5,50.4"/>
				<path class="st1" d="M73,53.2C73,53.2,73,53.3,73,53.2C73,53.3,73,53.3,73,53.2c-0.1-0.1-0.2-0.3-0.3-0.3c0,0,0-0.1,0-0.1
					c0-0.1-0.1-0.2-0.2-0.2c-0.1,0-0.2,0.1-0.2,0.2c0,0.1,0,0.1,0.1,0.2c-0.1,0.1-0.1,0.2-0.1,0.3c0,0.2,0.2,0.3,0.3,0.3
					c0,0,0,0,0,0c0,0,0,0,0,0.1c0,0.2,0.2,0.4,0.4,0.4c0.2,0,0.4-0.2,0.4-0.4C73.4,53.4,73.2,53.2,73,53.2"/>
				<path class="st1" d="M72.6,55.2c0.2,0,0.3-0.1,0.3-0.3c0-0.2-0.1-0.3-0.3-0.3c-0.2,0-0.3,0.1-0.3,0.3
					C72.2,55,72.4,55.2,72.6,55.2"/>
				<path class="st1" d="M73.1,55.8C73.1,55.8,73.1,55.8,73.1,55.8c-0.1-0.1-0.2-0.3-0.4-0.3c-0.2,0-0.3,0.1-0.3,0.3
					c0,0.2,0.1,0.3,0.3,0.3c0,0,0.1,0,0.1,0c0,0.2,0.1,0.3,0.3,0.3c0.2,0,0.3-0.1,0.3-0.3C73.4,55.9,73.3,55.8,73.1,55.8"/>
				<path class="st1" d="M72.6,56.4c-0.2,0-0.4,0.2-0.4,0.4c0,0.1,0,0.1,0,0.2c-0.1,0.1-0.2,0.2-0.2,0.4c0,0.2,0.1,0.4,0.3,0.4
					c0.1,0.1,0.2,0.2,0.4,0.2c0.2,0,0.4-0.2,0.4-0.4c0-0.1,0-0.2-0.1-0.3c0-0.1,0-0.1-0.1-0.2C73,57.1,73,57,73,56.8
					C73,56.6,72.8,56.4,72.6,56.4"/>
				<path class="st1" d="M72.7,58.4c-0.1,0-0.2,0.1-0.2,0.2c-0.1,0-0.1-0.1-0.2-0.1c-0.1,0-0.1,0-0.2,0.1c-0.1,0-0.1-0.1-0.2-0.1
					c-0.2,0-0.3,0.2-0.3,0.3c0,0.2,0.2,0.3,0.3,0.3c0,0,0.1,0,0.1,0c0.1,0.1,0.1,0.1,0.2,0.1c0,0,0,0.1,0.1,0.1c0,0,0,0-0.1,0
					c0,0-0.1,0-0.1,0c-0.1,0-0.1-0.1-0.2-0.1c-0.2,0-0.3,0.1-0.3,0.3c0,0.2,0.1,0.3,0.3,0.3c0.1,0,0.1,0,0.2,0c0,0,0.1,0,0.1,0
					c0.2,0,0.3-0.1,0.3-0.3c0-0.1,0-0.1-0.1-0.2c0,0,0,0,0,0c0.1,0,0.3-0.1,0.3-0.3c0-0.1,0-0.1-0.1-0.2c0-0.1,0.1-0.1,0.1-0.2
					c0,0,0,0,0,0c0.2,0,0.3-0.1,0.3-0.3C73,58.6,72.9,58.4,72.7,58.4"/>
				<path class="st1" d="M71.9,60.1c-0.2,0-0.3,0.1-0.3,0.3c0,0.1,0.1,0.2,0.2,0.3c-0.1,0-0.1,0.1-0.1,0.2c0,0.1,0.1,0.2,0.2,0.2
					c0.1,0,0.2-0.1,0.2-0.2c0-0.1,0-0.1-0.1-0.2c0.1-0.1,0.2-0.2,0.2-0.3C72.3,60.2,72.1,60.1,71.9,60.1"/>
				<path class="st1" d="M71,60.1c-0.1,0-0.3,0.1-0.3,0.3c0,0.1,0.1,0.3,0.3,0.3c0.1,0,0.3-0.1,0.3-0.3C71.3,60.2,71.2,60.1,71,60.1
					"/>
				<path class="st1" d="M34.4,8.1l-1.7-3.8c-0.5,0.2-1.1,0.5-1.6,0.7l1.7,3.8C33.3,8.6,33.8,8.3,34.4,8.1"/>
				<path class="st1" d="M36.4,7.3l-1.5-3.9c-0.5,0.2-1.1,0.4-1.6,0.6l1.5,3.9C35.4,7.7,35.9,7.5,36.4,7.3"/>
				<path class="st1" d="M40.7,5.9l-1.2-4c-0.6,0.2-1.1,0.3-1.7,0.5l1.2,4C39.6,6.2,40.2,6,40.7,5.9"/>
				<path class="st1" d="M30.3,10.1l-2-3.6c-0.5,0.3-1,0.6-1.5,0.9l2,3.6C29.3,10.6,29.8,10.3,30.3,10.1"/>
				<path class="st1" d="M28.3,11.2l-2.2-3.5c-0.5,0.3-1,0.6-1.5,0.9l2.2,3.5C27.3,11.8,27.8,11.5,28.3,11.2"/>
				<path class="st1" d="M63.6,5.1L64.4,1c-0.6-0.1-1.1-0.2-1.7-0.3l-0.8,4.1C62.5,4.9,63,5,63.6,5.1"/>
				<path class="st1" d="M26.4,12.4L24.1,9c-0.5,0.3-0.9,0.7-1.4,1l2.3,3.4C25.5,13,25.9,12.7,26.4,12.4"/>
				<path class="st1" d="M42.9,5.4l-1-4c-0.6,0.1-1.1,0.2-1.7,0.4l1,4C41.8,5.6,42.4,5.5,42.9,5.4"/>
				<path class="st1" d="M59.5,0.3c-0.6-0.1-1.1-0.1-1.7-0.1l-0.4,4.1c0.6,0,1.2,0.1,1.7,0.1L59.5,0.3"/>
				<path class="st1" d="M57.1,0.1c-0.6,0-1.1-0.1-1.7-0.1l-0.2,4.2c0.6,0,1.2,0,1.7,0.1L57.1,0.1"/>
				<path class="st1" d="M61.9,0.6c-0.6-0.1-1.1-0.1-1.7-0.2l-0.6,4.1c0.6,0.1,1.1,0.1,1.7,0.2L61.9,0.6"/>
				<path class="st1" d="M45.1,4.9l-0.8-4.1c-0.6,0.1-1.1,0.2-1.7,0.3l0.8,4.1C44,5.1,44.6,5,45.1,4.9"/>
				<path class="st1" d="M54.6,4.2V0c-0.3,0-0.6,0-0.9,0c-0.3,0-0.6,0-0.9,0v4.2c0.3,0,0.6,0,0.9,0C54.1,4.2,54.4,4.2,54.6,4.2"/>
				<path class="st1" d="M52.3,4.2L52.1,0c-0.6,0-1.2,0-1.7,0.1l0.2,4.2C51.1,4.2,51.7,4.2,52.3,4.2"/>
				<path class="st1" d="M47.4,4.6l-0.6-4.1c-0.6,0.1-1.1,0.2-1.7,0.2l0.6,4.1C46.2,4.7,46.8,4.7,47.4,4.6"/>
				<path class="st1" d="M49.8,4.3l-0.4-4.1c-0.6,0-1.1,0.1-1.7,0.2L48,4.5C48.6,4.4,49.2,4.4,49.8,4.3"/>
				<path class="st1" d="M32.3,9l-1.9-3.7c-0.5,0.3-1,0.5-1.5,0.8l1.9,3.7C31.3,9.6,31.8,9.3,32.3,9"/>
				<path class="st1" d="M8.9,32.6l-3.8-1.7c-0.2,0.5-0.5,1-0.7,1.6l3.8,1.7C8.4,33.6,8.7,33.1,8.9,32.6"/>
				<path class="st1" d="M7.2,36.7l-3.9-1.4C3,35.9,2.9,36.4,2.7,37l3.9,1.4C6.8,37.8,7,37.3,7.2,36.7"/>
				<path class="st1" d="M8,34.6l-3.9-1.5c-0.2,0.5-0.4,1.1-0.6,1.6l3.9,1.5C7.6,35.7,7.8,35.2,8,34.6"/>
				<path class="st1" d="M9.9,30.6l-3.7-1.9c-0.3,0.5-0.5,1-0.8,1.5l3.7,1.9C9.4,31.6,9.7,31.1,9.9,30.6"/>
				<path class="st1" d="M11,28.6l-3.6-2.1c-0.3,0.5-0.6,1-0.9,1.5l3.6,2.1C10.4,29.6,10.7,29.1,11,28.6"/>
				<path class="st1" d="M6.4,38.9l-4-1.2c-0.2,0.5-0.3,1.1-0.5,1.7l4,1.2C6.1,40,6.3,39.4,6.4,38.9"/>
				<path class="st1" d="M4.9,45.4l-4.1-0.6c-0.1,0.6-0.2,1.1-0.3,1.7l4.1,0.6C4.7,46.6,4.8,46,4.9,45.4"/>
				<path class="st1" d="M5.8,41l-4-1c-0.1,0.6-0.3,1.1-0.4,1.7l4,1C5.5,42.1,5.7,41.6,5.8,41"/>
				<path class="st1" d="M14.9,23l-3.3-2.5c-0.4,0.5-0.7,0.9-1.1,1.4l3.3,2.5C14.1,23.9,14.5,23.5,14.9,23"/>
				<path class="st1" d="M21.1,16.5l-2.8-3.1c-0.4,0.4-0.9,0.8-1.3,1.2l2.8,3.1C20.2,17.3,20.6,16.9,21.1,16.5"/>
				<path class="st1" d="M17.8,19.6l-3.1-2.8c-0.4,0.4-0.8,0.8-1.2,1.3l3.1,2.8C17,20.5,17.4,20,17.8,19.6"/>
				<path class="st1" d="M22.8,15l-2.6-3.2c-0.4,0.4-0.9,0.7-1.3,1.1l2.6,3.2C21.9,15.8,22.3,15.4,22.8,15"/>
				<path class="st1" d="M24.6,13.7l-2.5-3.3c-0.5,0.3-0.9,0.7-1.4,1l2.5,3.3C23.6,14.4,24.1,14,24.6,13.7"/>
				<path class="st1" d="M13.5,24.8l-3.4-2.4c-0.3,0.5-0.7,0.9-1,1.4l3.4,2.4C12.8,25.8,13.2,25.3,13.5,24.8"/>
				<path class="st1" d="M12.2,26.7l-3.5-2.2c-0.3,0.5-0.6,1-0.9,1.5l3.5,2.2C11.6,27.6,11.9,27.2,12.2,26.7"/>
				<path class="st1" d="M16.3,21.3l-3.2-2.7c-0.4,0.4-0.8,0.9-1.1,1.3l3.2,2.7C15.5,22.2,15.9,21.7,16.3,21.3"/>
				<path class="st1" d="M38.6,6.5l-1.3-3.9c-0.5,0.2-1.1,0.4-1.6,0.6l1.3,3.9C37.5,6.9,38,6.7,38.6,6.5"/>
				<path class="st1" d="M101.5,40l4-1.2c-0.2-0.6-0.3-1.1-0.5-1.7l-4,1.2C101.1,38.9,101.3,39.5,101.5,40"/>
				<path class="st1" d="M102,42.2l4-1c-0.1-0.6-0.3-1.1-0.4-1.7l-4,1C101.8,41.1,101.9,41.6,102,42.2"/>
				<path class="st1" d="M100.8,37.9l3.9-1.4c-0.2-0.5-0.4-1.1-0.6-1.6l-3.9,1.4C100.4,36.8,100.6,37.3,100.8,37.9"/>
				<path class="st1" d="M102.5,44.4l4.1-0.9c-0.1-0.6-0.2-1.1-0.4-1.7l-4.1,0.9C102.3,43.3,102.4,43.8,102.5,44.4"/>
				<path class="st1" d="M98.2,31.6l3.7-1.9c-0.3-0.5-0.5-1-0.8-1.5l-3.7,1.9C97.7,30.6,97.9,31.1,98.2,31.6"/>
				<path class="st1" d="M102.9,46.6l4.1-0.7c-0.1-0.6-0.2-1.1-0.3-1.7l-4.1,0.7C102.7,45.5,102.8,46,102.9,46.6"/>
				<path class="st1" d="M65.8,5.6l0.9-4c-0.6-0.1-1.1-0.3-1.7-0.4l-0.9,4C64.7,5.4,65.2,5.5,65.8,5.6"/>
				<path class="st1" d="M99.1,33.7l3.8-1.8c-0.2-0.5-0.5-1.1-0.7-1.6l-3.8,1.8C98.7,32.6,98.9,33.1,99.1,33.7"/>
				<path class="st1" d="M103.4,53.3l4.2-0.1c0-0.6,0-1.2,0-1.7l-4.2,0.1C103.4,52.2,103.4,52.8,103.4,53.3"/>
				<path class="st1" d="M19.4,18l-2.9-2.9c-0.4,0.4-0.8,0.8-1.2,1.2l2.9,2.9C18.6,18.8,19,18.4,19.4,18"/>
				<path class="st1" d="M4.2,53.8c0-0.6,0-1.1,0-1.6L0,52.1c0,0.6,0,1.1,0,1.7c0,0,0,0,0,0L4.2,53.8C4.2,53.8,4.2,53.8,4.2,53.8"/>
				<path class="st1" d="M18.6,88.8l-2.9,3c0.4,0.4,0.8,0.8,1.2,1.2l2.9-3C19.4,89.6,19,89.2,18.6,88.8"/>
				<path class="st1" d="M88.1,89.6l2.9,2.9c0.4-0.4,0.8-0.8,1.2-1.2l-2.9-2.9C88.9,88.8,88.5,89.2,88.1,89.6"/>
				<path class="st1" d="M89,18.9l2.9-3c-0.4-0.4-0.8-0.8-1.2-1.2l-2.9,3C88.2,18.1,88.6,18.4,89,18.9"/>
				<path class="st1" d="M103.3,51.1l4.1-0.3c0-0.6-0.1-1.1-0.1-1.7l-4.1,0.3C103.2,49.9,103.3,50.5,103.3,51.1"/>
				<path class="st1" d="M97.1,29.6l3.6-2.1c-0.3-0.5-0.6-1-0.9-1.5l-3.6,2.1C96.6,28.6,96.9,29.1,97.1,29.6"/>
				<path class="st1" d="M103.2,48.8l4.1-0.5c-0.1-0.6-0.1-1.1-0.2-1.7l-4.1,0.5C103,47.7,103.1,48.3,103.2,48.8"/>
				<path class="st1" d="M100,35.7l3.8-1.6c-0.2-0.5-0.4-1.1-0.6-1.6l-3.8,1.6C99.6,34.7,99.8,35.2,100,35.7"/>
				<path class="st1" d="M82.1,13.1l2.3-3.5c-0.5-0.3-1-0.6-1.4-1l-2.3,3.5C81.2,12.4,81.7,12.7,82.1,13.1"/>
				<path class="st1" d="M76.3,9.6l1.8-3.7c-0.5-0.3-1-0.5-1.5-0.8l-1.8,3.7C75.3,9.1,75.8,9.3,76.3,9.6"/>
				<path class="st1" d="M80.3,11.8l2.2-3.6c-0.5-0.3-1-0.6-1.5-0.9l-2.2,3.6C79.3,11.2,79.8,11.5,80.3,11.8"/>
				<path class="st1" d="M74.3,8.6L76,4.8c-0.5-0.2-1-0.5-1.6-0.7l-1.7,3.8C73.3,8.1,73.8,8.4,74.3,8.6"/>
				<path class="st1" d="M78.3,10.7l2-3.6c-0.5-0.3-1-0.6-1.5-0.8l-2,3.6C77.3,10.1,77.8,10.4,78.3,10.7"/>
				<path class="st1" d="M72.2,7.7l1.5-3.9c-0.5-0.2-1.1-0.4-1.6-0.6l-1.5,3.9C71.2,7.3,71.7,7.5,72.2,7.7"/>
				<path class="st1" d="M68,6.2l1.1-4c-0.6-0.2-1.1-0.3-1.7-0.5l-1.1,4C66.9,5.9,67.4,6.1,68,6.2"/>
				<path class="st1" d="M70.1,6.9L71.4,3c-0.5-0.2-1.1-0.4-1.6-0.6l-1.3,3.9C69,6.5,69.6,6.7,70.1,6.9"/>
				<path class="st1" d="M96,27.7l3.5-2.2c-0.3-0.5-0.6-1-0.9-1.5l-3.5,2.2C95.4,26.7,95.7,27.2,96,27.7"/>
				<path class="st1" d="M92.1,22.2l3.2-2.7c-0.4-0.4-0.7-0.9-1.1-1.3l-3.2,2.7C91.3,21.3,91.7,21.8,92.1,22.2"/>
				<path class="st1" d="M93.5,24l3.3-2.6c-0.3-0.5-0.7-0.9-1.1-1.4l-3.3,2.6C92.7,23.1,93.1,23.5,93.5,24"/>
				<path class="st1" d="M94.8,25.8l3.4-2.4c-0.3-0.5-0.7-0.9-1-1.4l-3.4,2.4C94.1,24.9,94.4,25.3,94.8,25.8"/>
				<path class="st1" d="M85.7,15.8l2.6-3.2c-0.4-0.4-0.9-0.7-1.3-1.1l-2.6,3.2C84.8,15.1,85.3,15.4,85.7,15.8"/>
				<path class="st1" d="M84,14.4l2.5-3.3c-0.5-0.3-0.9-0.7-1.4-1l-2.5,3.3C83,13.7,83.5,14,84,14.4"/>
				<path class="st1" d="M90.6,20.5l3-2.8c-0.4-0.4-0.8-0.8-1.2-1.3l-3,2.8C89.8,19.7,90.2,20.1,90.6,20.5"/>
				<path class="st1" d="M87.4,17.3l2.8-3.1c-0.4-0.4-0.9-0.8-1.3-1.1l-2.8,3.1C86.5,16.5,87,16.9,87.4,17.3"/>
				<path class="st1" d="M5.3,43.2l-4.1-0.8C1.1,43,1,43.5,0.9,44.1L5,44.9C5.1,44.3,5.2,43.8,5.3,43.2"/>
				<path class="st1" d="M89.7,88l3.1,2.8c0.4-0.4,0.8-0.8,1.2-1.3l-3.1-2.8C90.5,87.2,90.1,87.6,89.7,88"/>
				<path class="st1" d="M81.1,95.2l2.3,3.4c0.5-0.3,1-0.6,1.4-1l-2.3-3.4C82,94.6,81.5,94.9,81.1,95.2"/>
				<path class="st1" d="M52.9,103.4v4.2c0.3,0,0.6,0,0.9,0c0.3,0,0.6,0,0.9,0v-4.2c-0.3,0-0.6,0-0.9,0
					C53.5,103.4,53.2,103.4,52.9,103.4"/>
				<path class="st1" d="M75.2,98.6l1.9,3.7c0.5-0.2,1-0.5,1.5-0.8l-1.9-3.7C76.2,98,75.7,98.3,75.2,98.6"/>
				<path class="st1" d="M73.1,99.5l1.7,3.8c0.5-0.2,1.1-0.5,1.6-0.7l-1.7-3.8C74.2,99,73.7,99.3,73.1,99.5"/>
				<path class="st1" d="M82.9,93.9l2.5,3.3c0.5-0.3,0.9-0.7,1.4-1l-2.5-3.3C83.8,93.3,83.4,93.6,82.9,93.9"/>
				<path class="st1" d="M86.4,91.1l2.8,3.1c0.4-0.4,0.9-0.8,1.3-1.2L87.7,90C87.3,90.4,86.9,90.8,86.4,91.1"/>
				<path class="st1" d="M84.7,92.6l2.6,3.2c0.4-0.4,0.9-0.7,1.3-1.1L86,91.5C85.6,91.9,85.1,92.2,84.7,92.6"/>
				<path class="st1" d="M79.2,96.4l2.2,3.5c0.5-0.3,1-0.6,1.5-0.9l-2.2-3.5C80.1,95.8,79.7,96.1,79.2,96.4"/>
				<path class="st1" d="M57.8,103.2l0.4,4.1c0.6,0,1.1-0.1,1.7-0.2l-0.4-4.1C58.9,103.1,58.4,103.2,57.8,103.2"/>
				<path class="st1" d="M62.4,102.6l0.8,4.1c0.6-0.1,1.1-0.2,1.7-0.3l-0.8-4.1C63.5,102.4,63,102.5,62.4,102.6"/>
				<path class="st1" d="M60.2,103l0.6,4.1c0.6-0.1,1.1-0.2,1.7-0.2l-0.6-4.1C61.3,102.8,60.7,102.9,60.2,103"/>
				<path class="st1" d="M55.3,103.4l0.2,4.1c0.6,0,1.2,0,1.7-0.1l-0.2-4.1C56.4,103.3,55.9,103.4,55.3,103.4"/>
				<path class="st1" d="M71.1,100.3l1.5,3.9c0.5-0.2,1.1-0.4,1.6-0.6l-1.5-3.9C72.1,99.9,71.6,100.1,71.1,100.3"/>
				<path class="st1" d="M68.9,101l1.3,3.9c0.5-0.2,1.1-0.4,1.6-0.6l-1.3-3.9C70,100.7,69.5,100.9,68.9,101"/>
				<path class="st1" d="M66.8,101.7l1.2,4c0.6-0.2,1.1-0.3,1.7-0.5l-1.2-4C67.9,101.4,67.3,101.5,66.8,101.7"/>
				<path class="st1" d="M64.6,102.2l1,4c0.6-0.1,1.1-0.2,1.7-0.4l-1-4C65.7,102,65.2,102.1,64.6,102.2"/>
				<path class="st1" d="M77.2,97.5l2,3.6c0.5-0.3,1-0.6,1.5-0.9l-2-3.6C78.2,97,77.7,97.3,77.2,97.5"/>
				<path class="st1" d="M100.3,71l3.9,1.4c0.2-0.5,0.4-1.1,0.6-1.6l-3.9-1.4C100.7,69.9,100.5,70.5,100.3,71"/>
				<path class="st1" d="M101.7,66.7l4,1c0.1-0.6,0.3-1.1,0.4-1.7l-4-1C102,65.6,101.8,66.1,101.7,66.7"/>
				<path class="st1" d="M102.2,64.5l4.1,0.8c0.1-0.6,0.2-1.1,0.3-1.7l-4.1-0.8C102.5,63.4,102.4,64,102.2,64.5"/>
				<path class="st1" d="M91.2,86.4l3.2,2.7c0.4-0.4,0.8-0.9,1.1-1.3l-3.2-2.7C91.9,85.5,91.6,85.9,91.2,86.4"/>
				<path class="st1" d="M102.7,62.3l4.1,0.6c0.1-0.6,0.2-1.1,0.3-1.7l-4.1-0.6C102.8,61.2,102.8,61.7,102.7,62.3"/>
				<path class="st1" d="M103.4,53.9c0,0.6,0,1.2,0,1.7l4.2,0.1c0-0.6,0-1.1,0-1.7L103.4,53.9"/>
				<path class="st1" d="M103,60.1l4.1,0.4c0.1-0.6,0.1-1.1,0.2-1.7l-4.1-0.4C103.1,58.9,103.1,59.5,103,60.1"/>
				<path class="st1" d="M103.2,57.8l4.1,0.3c0-0.6,0.1-1.1,0.1-1.7l-4.1-0.3C103.3,56.7,103.3,57.3,103.2,57.8"/>
				<path class="st1" d="M101.1,68.9l4,1.2c0.2-0.5,0.3-1.1,0.5-1.7l-4-1.2C101.4,67.8,101.2,68.3,101.1,68.9"/>
				<path class="st1" d="M94,82.9l3.4,2.4c0.3-0.5,0.7-0.9,1-1.4L95,81.4C94.7,81.9,94.3,82.4,94,82.9"/>
				<path class="st1" d="M99.5,73.1l3.9,1.5c0.2-0.5,0.4-1.1,0.6-1.6l-3.9-1.5C99.9,72,99.7,72.6,99.5,73.1"/>
				<path class="st1" d="M95.3,81l3.5,2.2c0.3-0.5,0.6-1,0.9-1.5l-3.5-2.2C95.9,80,95.6,80.5,95.3,81"/>
				<path class="st1" d="M92.6,84.6l3.3,2.5c0.4-0.5,0.7-0.9,1.1-1.4l-3.3-2.5C93.3,83.7,93,84.2,92.6,84.6"/>
				<path class="st1" d="M96.5,79.1l3.6,2.1c0.3-0.5,0.6-1,0.9-1.5l-3.6-2.1C97,78.1,96.8,78.6,96.5,79.1"/>
				<path class="st1" d="M98.6,75.1l3.8,1.7c0.2-0.5,0.5-1,0.7-1.6l-3.8-1.7C99.1,74.1,98.8,74.6,98.6,75.1"/>
				<path class="st1" d="M97.6,77.1l3.7,1.9c0.3-0.5,0.5-1,0.8-1.5l-3.7-1.9C98.1,76.1,97.8,76.6,97.6,77.1"/>
				<path class="st1" d="M31.3,98l-1.8,3.7c0.5,0.3,1,0.5,1.5,0.8l1.8-3.7C32.3,98.5,31.8,98.3,31.3,98"/>
				<path class="st1" d="M9.4,76.1L5.8,78c0.3,0.5,0.5,1,0.8,1.5l3.7-1.9C10,77.1,9.7,76.6,9.4,76.1"/>
				<path class="st1" d="M15.6,85.5l-3.2,2.7c0.4,0.4,0.7,0.9,1.1,1.3l3.2-2.7C16.3,86.3,16,85.9,15.6,85.5"/>
				<path class="st1" d="M10.5,78.1l-3.6,2.1c0.3,0.5,0.6,1,0.9,1.5l3.6-2.1C11.1,79.1,10.8,78.6,10.5,78.1"/>
				<path class="st1" d="M7.6,72l-3.8,1.6c0.2,0.5,0.4,1.1,0.7,1.6l3.8-1.6C8,73,7.8,72.5,7.6,72"/>
				<path class="st1" d="M14.2,83.7l-3.3,2.6c0.3,0.5,0.7,0.9,1.1,1.4l3.3-2.6C14.9,84.6,14.5,84.2,14.2,83.7"/>
				<path class="st1" d="M11.6,80l-3.5,2.2c0.3,0.5,0.6,1,0.9,1.5l3.5-2.2C12.3,81,12,80.5,11.6,80"/>
				<path class="st1" d="M6.8,69.9l-3.9,1.4c0.2,0.5,0.4,1.1,0.6,1.6l3.9-1.4C7.2,70.9,7,70.4,6.8,69.9"/>
				<path class="st1" d="M12.9,81.9l-3.4,2.4c0.3,0.5,0.7,0.9,1,1.4l3.4-2.4C13.5,82.8,13.2,82.4,12.9,81.9"/>
				<path class="st1" d="M8.5,74l-3.8,1.8c0.2,0.5,0.5,1.1,0.7,1.6l3.8-1.8C9,75.1,8.7,74.6,8.5,74"/>
				<path class="st1" d="M4.2,54.4L0,54.5c0,0.6,0,1.2,0,1.7l4.2-0.1C4.2,55.5,4.2,55,4.2,54.4"/>
				<path class="st1" d="M4.2,56.6l-4.1,0.3c0,0.6,0.1,1.1,0.1,1.7l4.1-0.3C4.3,57.8,4.3,57.2,4.2,56.6"/>
				<path class="st1" d="M4.4,58.9l-4.1,0.5c0.1,0.6,0.1,1.1,0.2,1.7l4.1-0.5C4.6,60,4.5,59.5,4.4,58.9"/>
				<path class="st1" d="M4.3,49.9l-4.1-0.3c0,0.6-0.1,1.1-0.1,1.7l4.1,0.3C4.2,51,4.3,50.5,4.3,49.9"/>
				<path class="st1" d="M5.1,63.3L1,64.2c0.1,0.6,0.2,1.1,0.4,1.7L5.4,65C5.3,64.5,5.2,63.9,5.1,63.3"/>
				<path class="st1" d="M5.6,65.5l-4,1c0.1,0.6,0.3,1.1,0.4,1.7l4-1C5.9,66.7,5.7,66.1,5.6,65.5"/>
				<path class="st1" d="M6.2,67.7l-4,1.2c0.2,0.6,0.3,1.1,0.5,1.6l4-1.2C6.5,68.8,6.3,68.3,6.2,67.7"/>
				<path class="st1" d="M4.7,61.1l-4.1,0.7c0.1,0.6,0.2,1.1,0.3,1.7L5,62.8C4.9,62.3,4.8,61.7,4.7,61.1"/>
				<path class="st1" d="M48.1,107.3c0.6,0.1,1.1,0.1,1.7,0.1l0.4-4.1c-0.6,0-1.2-0.1-1.7-0.1L48.1,107.3"/>
				<path class="st1" d="M41.8,101.9l-0.9,4c0.6,0.1,1.1,0.3,1.7,0.4l0.9-4C42.9,102.2,42.4,102.1,41.8,101.9"/>
				<path class="st1" d="M33.3,99l-1.7,3.8c0.5,0.2,1,0.5,1.6,0.7l1.7-3.8C34.4,99.5,33.8,99.2,33.3,99"/>
				<path class="st1" d="M39.6,101.3l-1.1,4c0.6,0.2,1.1,0.3,1.7,0.5l1.1-4C40.7,101.7,40.2,101.5,39.6,101.3"/>
				<path class="st1" d="M35.4,99.9l-1.5,3.9c0.5,0.2,1.1,0.4,1.6,0.6l1.5-3.9C36.5,100.3,35.9,100.1,35.4,99.9"/>
				<path class="st1" d="M37.5,100.7l-1.3,3.9c0.5,0.2,1.1,0.4,1.6,0.6l1.3-3.9C38.6,101,38,100.8,37.5,100.7"/>
				<path class="st1" d="M44,102.4l-0.8,4.1c0.6,0.1,1.1,0.2,1.7,0.3l0.8-4.1C45.1,102.6,44.6,102.5,44,102.4"/>
				<path class="st1" d="M50.5,107.5c0.6,0,1.1,0.1,1.7,0.1l0.2-4.2c-0.6,0-1.2,0-1.7-0.1L50.5,107.5"/>
				<path class="st1" d="M17.1,87.2L14,90c0.4,0.4,0.8,0.8,1.2,1.2l3-2.8C17.9,88,17.5,87.6,17.1,87.2"/>
				<path class="st1" d="M45.6,106.9c0.6,0.1,1.1,0.1,1.7,0.2l0.6-4.1c-0.6-0.1-1.1-0.1-1.7-0.2L45.6,106.9"/>
				<path class="st1" d="M21.9,91.8l-2.6,3.2c0.4,0.4,0.9,0.7,1.3,1.1l2.6-3.2C22.8,92.6,22.4,92.2,21.9,91.8"/>
				<path class="st1" d="M23.7,93.2l-2.5,3.3c0.5,0.3,0.9,0.7,1.4,1l2.5-3.3C24.6,93.9,24.1,93.6,23.7,93.2"/>
				<path class="st1" d="M20.2,90.3l-2.8,3.1c0.4,0.4,0.9,0.8,1.3,1.1l2.8-3.1C21.1,91.1,20.7,90.7,20.2,90.3"/>
				<path class="st1" d="M29.3,96.9l-2,3.6c0.5,0.3,1,0.6,1.5,0.8l2-3.6C30.3,97.5,29.8,97.2,29.3,96.9"/>
				<path class="st1" d="M4.5,47.7l-4.1-0.4c-0.1,0.6-0.1,1.1-0.2,1.7l4.1,0.4C4.4,48.8,4.5,48.2,4.5,47.7"/>
				<path class="st1" d="M25.5,94.6L23.2,98c0.5,0.3,1,0.6,1.4,1l2.3-3.5C26.5,95.2,26,94.9,25.5,94.6"/>
				<path class="st1" d="M27.4,95.8l-2.2,3.6c0.5,0.3,1,0.6,1.5,0.9l2.2-3.6C28.4,96.4,27.9,96.1,27.4,95.8"/>
				<path class="st1" d="M21.6,80.7l1.1,1.3l-1.9,0.5L21.6,80.7L21.6,80.7z M23.8,82.3c0.7-0.2,1.1-0.1,1.4,0.2l0.4-0.3l-1.5-1.7
					l-0.4,0.3c0.2,0.2,0.3,0.3,0.3,0.5c0,0.1,0,0.2-0.1,0.3c-0.1,0.1-0.2,0.1-0.4,0.2l-0.3,0.1l-1.4-1.6l0.2-0.4l0.1-0.1
					c0-0.1,0.1-0.2,0.1-0.2c0.1,0,0.1-0.1,0.2,0c0.1,0,0.2,0.2,0.4,0.4l0.4-0.3L21,76.9l-0.4,0.3c0.1,0.1,0.2,0.3,0.2,0.5
					c0,0.2,0,0.5-0.2,1l-2.1,4.6l0.4,0.5L23.8,82.3"/>
				<path class="st1" d="M16.3,78l3-1.7c0.2-0.1,0.4-0.2,0.6-0.1c0.1,0,0.3,0.2,0.5,0.5l0.1,0.1l0.4-0.2l-3.1-5.4l-1.7,1l0.3,0.5
					c0.4-0.1,0.8-0.1,1.2,0c0.4,0.1,0.7,0.4,1,1c0.2,0.3,0.3,0.5,0.3,0.7c0,0.2,0,0.3,0,0.3c-0.1,0.1-0.2,0.2-0.4,0.3l-2.9,1.7
					c-0.2,0.1-0.4,0.2-0.6,0.1c-0.1,0-0.3-0.2-0.5-0.5L14.3,76l-0.4,0.2l1.9,3.2l0.4-0.2l-0.1-0.1c-0.2-0.3-0.2-0.5-0.2-0.7
					C16,78.3,16.1,78.2,16.3,78"/>
				<path class="st1" d="M11.4,69.7c-0.2-0.4-0.2-0.7-0.3-0.9c0-0.2,0-0.4,0.2-0.6c0.1-0.2,0.3-0.3,0.6-0.4c0.3-0.1,0.6-0.1,0.8,0
					c0.2,0.1,0.5,0.4,0.6,0.9l0.1,0.3L11.4,69.7L11.4,69.7z M12.7,71.1l3.2-1.2c0.2-0.1,0.4-0.1,0.6,0c0.1,0.1,0.3,0.2,0.4,0.6
					l0,0.1l0.4-0.2l-1.3-3.5l-0.4,0.2l0.1,0.1c0.1,0.3,0.1,0.5,0.1,0.7c-0.1,0.1-0.2,0.2-0.5,0.3L14,68.8l-0.2-0.5
					c-0.2-0.6-0.5-1.1-0.7-1.5c-0.2-0.4-0.5-0.6-0.9-0.8c-0.4-0.2-0.7-0.2-1.1-0.1c-0.3,0.1-0.5,0.3-0.6,0.5
					c-0.2,0.2-0.3,0.5-0.3,0.9c0,0.3,0,0.7,0.1,1.1c0.1,0.4,0.3,0.9,0.5,1.5l1,2.6l0.4-0.2l-0.1-0.2c-0.1-0.3-0.1-0.5-0.1-0.7
					C12.3,71.4,12.4,71.2,12.7,71.1"/>
				<path class="st1" d="M10.2,63.6l3.4-0.5c0.3,0,0.5,0,0.6,0.1c0.1,0.1,0.2,0.3,0.2,0.7l0.5-0.1l-0.5-3.5l-0.5,0.1
					c0.1,0.4,0,0.6,0,0.7c-0.1,0.1-0.3,0.2-0.5,0.2l-1.6,0.2l-0.4-2.8l1.6-0.2c0.3,0,0.5,0,0.6,0.1s0.2,0.3,0.3,0.7l0.5-0.1
					l-0.5-3.5l-0.5,0.1c0.1,0.4,0,0.6,0,0.7c-0.1,0.1-0.3,0.2-0.5,0.3l-3.4,0.5c-0.3,0-0.5,0-0.6-0.1c-0.1-0.1-0.2-0.3-0.2-0.7
					l-0.5,0.1L8.5,60L8.9,60c-0.1-0.4,0-0.6,0-0.7C9.1,59.1,9.2,59,9.5,59l1.3-0.2l0.4,2.8l-1.3,0.2c-0.3,0-0.5,0-0.6-0.1
					c-0.1-0.1-0.2-0.3-0.3-0.7l-0.5,0.1l0.5,3.5l0.5-0.1c-0.1-0.4,0-0.6,0-0.7C9.7,63.7,9.9,63.6,10.2,63.6"/>
				<path class="st1" d="M11.9,51.4L11.8,53l-1.7-0.9L11.9,51.4L11.9,51.4z M8,51.7l4.4,2.3c0.6,0.3,0.9,0.7,0.9,1.1l0.5,0l0.1-2.3
					l-0.5,0c0,0.3-0.1,0.4-0.1,0.5c-0.1,0.1-0.2,0.2-0.3,0.2c-0.1,0-0.2-0.1-0.4-0.2l-0.3-0.1l0.1-2.1l0.4-0.2l0.1-0.1
					c0.1-0.1,0.2-0.1,0.3-0.1c0.1,0,0.1,0,0.2,0.1c0,0.1,0.1,0.3,0,0.6l0.5,0l0.2-3.4l-0.5,0c0,0.2-0.1,0.3-0.2,0.5
					c-0.1,0.2-0.4,0.3-0.8,0.5L8,51.1L8,51.7"/>
				<path class="st1" d="M11.3,38.2L10.8,38l-1.3,3.4l0.4,0.2l0-0.1c0.1-0.3,0.2-0.5,0.4-0.6c0.1-0.1,0.3,0,0.6,0l3.2,1.2
					c0.2,0.1,0.4,0.2,0.5,0.3c0.1,0.1,0,0.4-0.1,0.7l0,0.1l0.4,0.2l1.2-3.4l-0.4-0.2c-0.1,0.3-0.2,0.5-0.4,0.6c-0.1,0.1-0.3,0-0.6,0
					l-1-0.4l-0.3-0.8l2-0.7c0.3-0.1,0.5-0.1,0.6-0.1c0.2,0.1,0.2,0.3,0,0.8l0.4,0.2l1.4-3.7l-0.4-0.2c-0.1,0.3-0.3,0.6-0.5,0.7
					c-0.2,0.2-0.5,0.3-1,0.5l-2.9,0.9L12.8,37c-0.2-0.7-0.3-1.2-0.3-1.5c0-0.3,0-0.6,0.1-0.9l-0.4-0.2l-1.1,2.8l0.4,0.2
					c0.1-0.4,0.3-0.5,0.5-0.5c0.2,0.1,0.3,0.3,0.4,0.7l0.7,2.2l-1.5-0.6c-0.2-0.1-0.4-0.2-0.5-0.3c-0.1-0.1,0-0.4,0.1-0.7L11.3,38.2
					"/>
				<path class="st1" d="M18.8,30.6l-0.9,1.4l-1-1.6L18.8,30.6L18.8,30.6z M15.3,28.9l2.6,4.2c0.4,0.6,0.4,1.1,0.2,1.4l0.4,0.3
					l1.2-1.9l-0.4-0.3C19.2,32.8,19.1,33,19,33c-0.1,0.1-0.2,0.1-0.3,0c-0.1,0-0.2-0.2-0.3-0.4l-0.2-0.3l1.2-1.8l0.5,0.1l0.1,0
					c0.1,0,0.2,0,0.3,0.1c0.1,0,0.1,0.1,0.1,0.2c0,0.1-0.1,0.3-0.3,0.5l0.4,0.3l1.9-2.8l-0.4-0.3c-0.1,0.1-0.2,0.2-0.4,0.3
					c-0.2,0.1-0.5,0.1-1,0l-5-0.7L15.3,28.9"/>
				<path class="st1" d="M23.6,23.2l-0.2,0.2l-1.6-1.6c0.3-0.3,0.6-0.5,0.8-0.6c0.2-0.1,0.4-0.1,0.6-0.1c0.2,0,0.4,0.2,0.6,0.4
					c0.2,0.2,0.4,0.5,0.4,0.8C24.1,22.5,23.9,22.8,23.6,23.2L23.6,23.2z M25.1,22.2c0.2-0.4,0.4-0.7,0.4-1.1c0-0.4-0.1-0.7-0.4-1
					c-0.2-0.2-0.4-0.3-0.7-0.4c-0.3-0.1-0.6,0-0.9,0.1c-0.3,0.1-0.6,0.3-0.9,0.5c-0.3,0.2-0.7,0.6-1.2,1.1l-1.9,2l0.3,0.3l0.1-0.1
					c0.2-0.2,0.4-0.4,0.6-0.4c0.1,0,0.3,0.1,0.5,0.3l2.4,2.5c0.2,0.2,0.3,0.4,0.3,0.5c0,0.1-0.1,0.3-0.4,0.6l-0.1,0.1l0.3,0.3
					l2.6-2.6l-0.3-0.3l-0.1,0.1c-0.2,0.2-0.4,0.4-0.6,0.4c-0.1,0-0.3-0.1-0.5-0.3l-1-1l0.4-0.4C24.5,22.9,24.9,22.5,25.1,22.2"/>
				<path class="st1" d="M30.7,17.5l-0.3,0.2l-1.2-1.9c0.4-0.2,0.7-0.4,0.9-0.5c0.2-0.1,0.4,0,0.6,0c0.2,0.1,0.4,0.3,0.6,0.5
					c0.2,0.3,0.2,0.6,0.2,0.8C31.4,16.9,31.1,17.2,30.7,17.5L30.7,17.5z M32.2,14.3c-0.3-0.1-0.6-0.1-0.9-0.1c-0.3,0-0.7,0.2-1,0.3
					c-0.3,0.2-0.8,0.5-1.4,0.8l-2.3,1.5l0.3,0.4l0.1-0.1c0.3-0.2,0.5-0.3,0.6-0.2c0.1,0,0.3,0.2,0.4,0.4l1.9,2.9
					c0.1,0.2,0.2,0.4,0.2,0.5c0,0.1-0.2,0.3-0.5,0.5l-0.1,0.1l0.3,0.4l3.1-2l-0.3-0.4l-0.1,0.1c-0.3,0.2-0.5,0.3-0.6,0.2
					c-0.1,0-0.3-0.2-0.4-0.4l-0.7-1.2l0.4-0.3c0.6-0.4,1-0.7,1.3-1c0.3-0.3,0.5-0.6,0.6-1c0.1-0.4,0-0.7-0.2-1
					C32.7,14.6,32.5,14.4,32.2,14.3"/>
				<path class="st1" d="M37.3,15.1l0.1-1.9l1.4,1.3L37.3,15.1L37.3,15.1z M42,14.9c-0.2,0-0.5-0.2-0.8-0.5l-3.6-3.4L37,11.1l-0.3,5
					c0,0.7-0.3,1.1-0.7,1.3l0.2,0.4l2.1-0.8l-0.2-0.4c-0.2,0.1-0.4,0.1-0.5,0.1c-0.1,0-0.2-0.1-0.3-0.2c0-0.1,0-0.2,0-0.5l0-0.3
					l2-0.8l0.3,0.3l0.1,0.1c0.1,0.1,0.2,0.2,0.2,0.2c0,0.1,0,0.1,0,0.2c-0.1,0.1-0.2,0.2-0.5,0.3l0.2,0.4l3.2-1.2l-0.2-0.4
					C42.4,14.9,42.2,14.9,42,14.9"/>
				<path class="st1" d="M53,8.6c0.2,0,0.4,0.2,0.5,0.3c0.1,0.2,0.2,0.4,0.2,0.7c0,0.3-0.1,0.6-0.2,0.8c-0.2,0.2-0.5,0.3-1.1,0.3
					l-0.3,0L52,8.5C52.5,8.5,52.8,8.5,53,8.6L53,8.6z M49.2,8.2l0,0.5l0.2,0c0.3,0,0.6,0,0.7,0.1c0.1,0.1,0.2,0.3,0.2,0.6l0.1,3.4
					c0,0.3,0,0.4-0.1,0.6c-0.1,0.1-0.3,0.2-0.7,0.2l-0.1,0l0,0.5l3.7-0.1l0-0.5l-0.2,0c-0.3,0-0.6,0-0.7-0.1
					c-0.1-0.1-0.2-0.3-0.2-0.6l0-1.4l0.5,0c0.7,0,1.2-0.1,1.6-0.2c0.4-0.1,0.8-0.3,1-0.6c0.3-0.3,0.4-0.6,0.4-1
					c0-0.3-0.1-0.5-0.3-0.8c-0.2-0.2-0.4-0.4-0.7-0.5C54.3,8.1,54,8,53.6,8c-0.4,0-0.9,0-1.6,0L49.2,8.2"/>
				<path class="st1" d="M61.1,13.9C60.9,14,60.7,14,60.4,14c-0.4-0.1-0.7-0.2-1-0.6c-0.3-0.3-0.5-0.8-0.5-1.4l-0.6-0.1l-0.3,2
					l0.6,0.1c0.1-0.2,0.1-0.3,0.2-0.4c0.2,0.2,0.4,0.4,0.7,0.6c0.3,0.2,0.6,0.3,1,0.4c0.6,0.1,1.2,0,1.7-0.2
					c0.5-0.3,0.8-0.7,0.9-1.2c0-0.3,0-0.5-0.1-0.8c-0.1-0.3-0.3-0.5-0.5-0.7c-0.2-0.2-0.5-0.4-1-0.7c-0.5-0.3-0.8-0.5-1-0.6
					c-0.2-0.1-0.3-0.2-0.4-0.4C60,9.8,60,9.7,60,9.5c0-0.2,0.1-0.3,0.3-0.4C60.5,9,60.7,9,61,9c0.3,0.1,0.6,0.2,0.9,0.5
					c0.2,0.3,0.4,0.6,0.4,1l0.6,0.1l0.3-1.7l-0.6-0.1c-0.1,0.2-0.1,0.3-0.2,0.4c-0.3-0.4-0.8-0.6-1.4-0.7c-0.5-0.1-1.1,0-1.5,0.2
					c-0.5,0.3-0.7,0.6-0.8,1.1c0,0.3,0,0.6,0.1,0.9c0.1,0.3,0.3,0.5,0.6,0.7c0.2,0.2,0.7,0.5,1.4,1c0.4,0.2,0.6,0.4,0.7,0.6
					c0.1,0.2,0.1,0.3,0.1,0.4C61.4,13.6,61.3,13.7,61.1,13.9"/>
				<path class="st1" d="M66.1,14.5C66,14.8,65.9,15,65.8,15c-0.1,0.1-0.4,0-0.7-0.1l-0.2,0.5l3.4,1.2l0.2-0.5l-0.1,0
					c-0.3-0.1-0.5-0.2-0.6-0.4c-0.1-0.1-0.1-0.3,0-0.6l1.1-3.3c0.1-0.2,0.2-0.4,0.3-0.5c0.1-0.1,0.4,0,0.7,0.1l0.1,0l0.2-0.5
					l-3.4-1.2l-0.2,0.5c0.4,0.1,0.6,0.2,0.6,0.4c0.1,0.1,0.1,0.3,0,0.6L66.1,14.5"/>
				<path class="st1" d="M76.4,19.4c-0.2,0.2-0.3,0.3-0.4,0.4c-0.1,0-0.4-0.1-0.6-0.3l-0.1-0.1l-0.3,0.4l3,2.2l0.3-0.4l-0.1-0.1
					c-0.3-0.2-0.4-0.4-0.5-0.5c0-0.1,0-0.3,0.2-0.5l0.9-1.3l0.4,0.3c0.2,0.2,0.3,0.3,0.4,0.4c0,0.1,0,0.3-0.2,0.6l0.5,0.3l1.2-1.6
					l-0.5-0.3c-0.2,0.2-0.4,0.3-0.5,0.4c-0.1,0-0.3,0-0.5-0.2l-0.4-0.3l1.2-1.6l0.9,0.7c0.2,0.2,0.4,0.3,0.5,0.4
					c0.1,0.1,0.1,0.3,0.1,0.5c0,0.2,0,0.4-0.1,0.7l0.5,0.3l0.9-1.3l-4.7-3.4l-0.3,0.4l0.1,0.1c0.3,0.2,0.4,0.4,0.4,0.5
					c0,0.1,0,0.3-0.2,0.5L76.4,19.4"/>
				<path class="st1" d="M85.6,21.7c0.1,0.1,0.1,0.1,0.2,0.2c0.4,0.4,0.6,0.7,0.6,1c0,0.3-0.1,0.6-0.4,0.8c-0.2,0.2-0.4,0.3-0.6,0.4
					c-0.2,0-0.4,0-0.6-0.1c-0.2-0.1-0.5-0.4-0.9-0.8L85.6,21.7L85.6,21.7z M89.9,29.1l-1,1.7L88,29.4L89.9,29.1L89.9,29.1z
					 M81.4,23.2c-0.2,0.2-0.4,0.3-0.5,0.3c-0.1,0-0.3-0.1-0.6-0.4L80.2,23l-0.3,0.3l2.6,2.7l0.3-0.3l-0.1-0.1
					c-0.2-0.2-0.3-0.4-0.3-0.6c0-0.2,0.1-0.3,0.3-0.5l1-1c0.3,0.3,0.4,0.5,0.5,0.6c0.1,0.1,0.1,0.2,0.1,0.4c0,0.2-0.1,0.5-0.2,1
					c-0.2,0.9-0.3,1.5-0.3,1.8l1.4,1.5l0,0l1.3,1.9l0.4-0.3c-0.1-0.2-0.2-0.4-0.2-0.5c0-0.1,0-0.2,0.2-0.3c0.1,0,0.2-0.1,0.4-0.1
					l0.3,0l1.2,1.8l-0.2,0.4l-0.1,0.1c-0.1,0.1-0.1,0.2-0.2,0.2c-0.1,0-0.1,0-0.2,0c-0.1,0-0.2-0.2-0.4-0.4l-0.4,0.3l1.9,2.8
					l0.4-0.3c-0.1-0.1-0.1-0.3-0.2-0.5c0-0.2,0.1-0.5,0.4-0.9l2.6-4.3l-0.3-0.5l-4.9,0.7c-0.7,0.1-1.1,0-1.4-0.4l0,0
					c-0.1-0.1-0.2-0.3-0.3-0.5c0-0.2,0-0.6,0.1-1.3c0.1-0.9,0.2-1.4,0.1-1.7c0.8,0.5,1.5,0.5,2,0c0.2-0.2,0.3-0.4,0.4-0.7
					c0.1-0.3,0-0.5-0.1-0.8c-0.1-0.3-0.2-0.5-0.4-0.8c-0.2-0.2-0.5-0.6-0.9-1L86,21.3l-1.9-2l-0.3,0.3l0.1,0.1
					c0.2,0.2,0.3,0.4,0.3,0.6c0,0.2-0.1,0.3-0.3,0.5L81.4,23.2"/>
				<path class="st1" d="M90.4,36.3c-0.1-0.1-0.3-0.2-0.4-0.5l-0.1-0.1l-0.4,0.2l1.5,3.5l0.4-0.2l-0.1-0.2c-0.1-0.3-0.2-0.5-0.1-0.7
					c0.1-0.1,0.2-0.3,0.4-0.4l3.8-1.7l0.2,0.5c0.2,0.4,0.2,0.7,0.2,0.9c-0.1,0.2-0.3,0.5-0.6,0.8l0.2,0.5l1.5-0.7L94.2,32l-1.5,0.7
					l0.2,0.5c0.2-0.1,0.5-0.1,0.7-0.1c0.2,0,0.4,0.1,0.5,0.2c0.1,0.1,0.3,0.3,0.4,0.7l0.2,0.5L91,36.2
					C90.7,36.3,90.5,36.3,90.4,36.3"/>
				<path class="st1" d="M96.6,41.1l-3.4,0.8c-0.3,0.1-0.4,0.1-0.6,0c-0.1-0.1-0.2-0.3-0.3-0.6l0-0.1l-0.5,0.1l1.5,6.1l1.9-0.4
					L95,46.5c-0.3,0-0.6-0.1-0.8-0.2c-0.3-0.1-0.5-0.3-0.6-0.4c-0.1-0.2-0.3-0.5-0.4-0.9c-0.1-0.3-0.1-0.6-0.1-0.7
					c0-0.2,0.1-0.3,0.1-0.3c0.1-0.1,0.2-0.1,0.5-0.2l1.4-0.3l0.2,0.6c0.1,0.3,0.1,0.6,0,0.7c-0.1,0.1-0.2,0.2-0.4,0.2c0,0,0,0-0.1,0
					l0.1,0.6l1.9-0.5l-0.1-0.6c-0.3,0.1-0.5,0-0.6,0c-0.1-0.1-0.2-0.3-0.3-0.6l-0.2-0.6l2-0.5L98,44c0.1,0.3,0.1,0.5,0.1,0.6
					c0,0.1-0.1,0.3-0.2,0.4c-0.1,0.2-0.3,0.3-0.5,0.5l0.1,0.6l1.4-0.5l-1.4-5.7l-0.5,0.1l0,0.1c0.1,0.3,0.1,0.6,0,0.7
					C97,41,96.8,41.1,96.6,41.1"/>
				<path class="st1" d="M98.9,50.6c0,0.1,0,0.2,0,0.3c0,0.6,0,1-0.2,1.2c-0.1,0.2-0.4,0.4-0.8,0.4c-0.3,0-0.5,0-0.7-0.1
					c-0.2-0.1-0.3-0.3-0.4-0.5c-0.1-0.2-0.1-0.6-0.1-1.1L98.9,50.6L98.9,50.6z M95.9,51.8c-0.1,0.1-0.4,0.3-0.8,0.6
					c-0.8,0.6-1.3,1-1.4,1.2l0.1,2.1l0.5,0c0-0.2,0-0.4,0.1-0.6c0.1-0.2,0.4-0.5,0.9-0.9c0.7-0.6,1.1-1,1.2-1.2
					c0.3,0.9,0.8,1.3,1.5,1.3c0.3,0,0.5-0.1,0.7-0.3c0.2-0.2,0.4-0.4,0.5-0.7c0.1-0.3,0.2-0.6,0.2-0.8c0-0.3,0-0.7,0-1.3l0-0.6
					l-0.1-2.7l-0.5,0l0,0.1c0,0.3,0,0.6-0.1,0.7c-0.1,0.1-0.3,0.2-0.5,0.2L94.7,49c-0.3,0-0.4,0-0.6-0.1C94,48.8,94,48.6,94,48.3
					l0-0.1l-0.5,0l0.2,3.7l0.5,0l0-0.1c0-0.3,0-0.6,0.1-0.7c0.1-0.1,0.3-0.2,0.5-0.2l1.4-0.1c0,0.4,0,0.6,0,0.7
					C96.1,51.6,96.1,51.7,95.9,51.8"/>
				<path class="st1" d="M99.6,57l-0.5-0.1c-0.1,0.6-0.4,0.9-1,0.8l-2.9-0.4c-0.3,0-0.4-0.1-0.5-0.2c-0.1-0.1-0.2-0.2-0.3-0.4
					c-0.1-0.2-0.1-0.4,0-0.6l-0.5-0.1l-0.4,2.5l0.5,0.1c0-0.3,0.1-0.5,0.3-0.7c0.1-0.2,0.4-0.2,0.9-0.1l2.6,0.4l-4.9,3.8l-0.1,0.6
					l4.4,0.7c0.2,0,0.4,0.1,0.5,0.2c0.1,0.1,0.2,0.2,0.3,0.3c0.1,0.2,0.1,0.3,0,0.5l0.5,0.1l0.4-2.4L98.3,62
					c-0.1,0.6-0.5,0.9-1.1,0.8l-2.1-0.3l4.1-3.2L99.6,57"/>
				<path class="st1" d="M96.4,69.3l0.5,0.1l1.1-3.5l-0.5-0.1c-0.1,0.4-0.2,0.6-0.4,0.7c-0.1,0.1-0.3,0.1-0.6,0l-3.3-1
					c-0.3-0.1-0.4-0.2-0.5-0.3c-0.1-0.1,0-0.4,0.1-0.7l-0.5-0.1l-1.1,3.5l0.5,0.1l0-0.1c0.1-0.3,0.2-0.5,0.4-0.6
					c0.1-0.1,0.3-0.1,0.6,0l3.3,1c0.2,0.1,0.4,0.2,0.5,0.3c0.1,0.1,0.1,0.4,0,0.7L96.4,69.3"/>
				<path class="st1" d="M96.3,70.9l-1.5-0.7l-0.3,0.5c0.2,0.1,0.4,0.3,0.5,0.5c0.1,0.2,0.2,0.4,0.2,0.5c0,0.2-0.1,0.4-0.3,0.7
					L94.8,73l-3.7-1.8c-0.2-0.1-0.4-0.2-0.4-0.4c-0.1-0.1,0-0.4,0.2-0.7l0.1-0.1l-0.4-0.2l-1.7,3.4l0.4,0.2l0.1-0.2
					c0.2-0.3,0.3-0.5,0.4-0.5c0.1,0,0.3,0,0.6,0.1l3.7,1.8l-0.3,0.5c-0.2,0.4-0.4,0.6-0.6,0.7c-0.2,0.1-0.6,0.1-1,0l-0.3,0.5
					l1.5,0.7L96.3,70.9"/>
				<path class="st1" d="M90.4,81.2l2.1-2.7l-0.4-0.3c-0.1,0.2-0.3,0.3-0.4,0.4c-0.1,0.1-0.4,0.1-0.9,0.1l-2.7-0.1l-1-0.7
					c-0.2-0.2-0.3-0.3-0.3-0.5c0-0.1,0.1-0.4,0.3-0.6l0.1-0.1l-0.4-0.3l-2.2,2.9l0.4,0.3l0.1-0.1c0.2-0.3,0.4-0.4,0.5-0.4
					c0.1,0,0.3,0,0.5,0.2l1,0.8l0.6,2.1c0.2,0.5,0.2,0.9,0.2,1.1c0,0.2-0.1,0.4-0.2,0.6l0.4,0.3l1.4-1.9l-0.4-0.3
					c-0.3,0.4-0.5,0.5-0.7,0.3c-0.1-0.1-0.2-0.2-0.2-0.4l-0.5-1.7l1.9,0.1c0.2,0,0.4,0,0.5,0.1c0.1,0.1,0.1,0.3-0.1,0.6L90.4,81.2"
					/>
				<path class="st1" d="M82.7,83.9c0.3,0,0.6-0.2,0.9-0.4c0.3-0.3,0.4-0.6,0.4-0.9c0-0.3-0.1-0.6-0.3-0.8c-0.2-0.2-0.5-0.3-0.8-0.3
					c-0.3,0-0.6,0.2-0.9,0.4c-0.3,0.3-0.4,0.6-0.4,0.9c0,0.3,0.1,0.6,0.3,0.8C82,83.8,82.3,83.9,82.7,83.9"/>
				<path class="st1" d="M42.8,92.5l-1-0.3c-0.4,0.6-2.1,6.1-2.1,6.1l1.2,0.4L42.8,92.5"/>
				<path class="st1" d="M49,96.8c-0.6-0.1-1-0.5-0.9-1.2c0.1-0.7,0.5-1,1.1-1c0.6,0.1,1,0.5,0.9,1.2C50,96.5,49.6,96.8,49,96.8
					L49,96.8z M51.4,97c0.2-1.5,0-3.2-2.1-3.4c-1.4-0.1-2.4,0.7-2.5,1.9c-0.1,1.3,0.5,2.2,1.8,2.3c0.8,0.1,1.2-0.2,1.4-0.5l0,0
					c-0.1,0.8-0.4,1.9-1.4,1.8c-0.5-0.1-0.7-0.4-0.7-0.8l-1.3,0c0.1,1.1,0.8,1.7,1.9,1.9C50.2,100.4,51.2,99.1,51.4,97"/>
				<path class="st1" d="M56.2,97.1c-0.1-1.6,0.2-2.3,1-2.4c0.8-0.1,1.2,0.6,1.3,2.2c0.1,1.6-0.2,2.3-1,2.4
					C56.8,99.4,56.3,98.8,56.2,97.1L56.2,97.1z M57.6,100.4c1.7-0.1,2.4-1.5,2.2-3.5c-0.2-2.1-1.1-3.3-2.8-3.1
					c-1.7,0.1-2.4,1.5-2.2,3.6C55,99.3,55.9,100.5,57.6,100.4"/>
				<path class="st1" d="M66.1,97.9c-0.6,0.2-1.1-0.2-1.2-0.7l-1.3,0.5c0.4,1.2,1.6,1.5,2.8,1.2c1.4-0.4,2.2-1.5,1.8-3
					c-0.3-1.2-1.3-2-2.7-1.6c-0.4,0.1-0.8,0.4-1.1,0.8l-0.2-1.4l2.6-0.7l-0.2-1.1l-3.7,1l0.5,3.6l1.2-0.2c0.1-0.4,0.3-0.7,0.8-0.9
					c0.7-0.2,1.2,0,1.4,0.9C67,96.9,66.9,97.6,66.1,97.9"/>
				<path class="st1" d="M54.9,16.1c-0.4,0-0.8,0.3-0.8,0.8c0,0.4,0.3,0.8,0.8,0.8c0.4,0,0.8-0.3,0.8-0.8
					C55.7,16.5,55.4,16.1,54.9,16.1"/>
				<path class="st1" d="M56.4,17c0,0.4,0.3,0.8,0.7,0.8c0.4,0,0.8-0.3,0.8-0.7c0-0.4-0.3-0.8-0.7-0.8C56.8,16.2,56.4,16.5,56.4,17"
					/>
				<path class="st1" d="M58.6,17.2c-0.1,0.4,0.3,0.8,0.7,0.9c0.4,0.1,0.8-0.3,0.9-0.7c0.1-0.4-0.3-0.8-0.7-0.9
					C59.1,16.5,58.7,16.8,58.6,17.2"/>
				<path class="st1" d="M62.4,17.9c0.1-0.4-0.2-0.8-0.6-0.9c-0.4-0.1-0.8,0.2-0.9,0.6c-0.1,0.4,0.2,0.8,0.6,0.9
					C61.9,18.6,62.3,18.3,62.4,17.9"/>
				<path class="st1" d="M64,17.5c-0.4-0.1-0.8,0.1-0.9,0.6c-0.1,0.4,0.2,0.8,0.6,0.9c0.4,0.1,0.8-0.1,0.9-0.6
					C64.7,18,64.4,17.6,64,17.5"/>
				<path class="st1" d="M66.2,18.2c-0.4-0.1-0.8,0.1-1,0.5c-0.1,0.4,0.1,0.8,0.5,1c0.4,0.1,0.8-0.1,1-0.5
					C66.8,18.8,66.6,18.3,66.2,18.2"/>
				<path class="st1" d="M68.8,20c0.2-0.4,0-0.9-0.4-1c-0.4-0.2-0.9,0-1,0.4c-0.2,0.4,0,0.8,0.4,1C68.2,20.6,68.6,20.4,68.8,20"/>
				<path class="st1" d="M70.4,20c-0.4-0.2-0.9,0-1,0.4c-0.2,0.4,0,0.8,0.4,1c0.4,0.2,0.9,0,1-0.4C71,20.6,70.8,20.1,70.4,20"/>
				<path class="st1" d="M72.5,21.1c-0.4-0.2-0.8-0.1-1.1,0.3c-0.2,0.4-0.1,0.8,0.3,1c0.4,0.2,0.8,0.1,1.1-0.3
					C73,21.7,72.8,21.3,72.5,21.1"/>
				<path class="st1" d="M74.4,22.3c-0.4-0.2-0.8-0.1-1.1,0.3c-0.2,0.4-0.1,0.8,0.3,1.1c0.4,0.2,0.8,0.1,1.1-0.3
					C74.9,23,74.8,22.5,74.4,22.3"/>
				<path class="st1" d="M75.2,23.8c-0.2,0.4-0.2,0.8,0.2,1.1c0.4,0.2,0.8,0.2,1.1-0.2c0.2-0.4,0.2-0.8-0.2-1.1
					C76,23.3,75.5,23.4,75.2,23.8"/>
				<path class="st1" d="M77,25.1c-0.3,0.3-0.2,0.8,0.1,1.1c0.3,0.3,0.8,0.2,1.1-0.1c0.3-0.3,0.2-0.8-0.1-1.1
					C77.8,24.7,77.3,24.8,77,25.1"/>
				<path class="st1" d="M79.9,27.6c0.3-0.3,0.3-0.8-0.1-1.1c-0.3-0.3-0.8-0.3-1.1,0.1c-0.3,0.3-0.3,0.8,0.1,1.1
					C79.1,28,79.6,28,79.9,27.6"/>
				<path class="st1" d="M80.3,28.2c-0.3,0.3-0.3,0.8,0,1.1c0.3,0.3,0.8,0.3,1.1,0c0.3-0.3,0.3-0.8,0-1.1
					C81.1,27.9,80.7,27.9,80.3,28.2"/>
				<path class="st1" d="M81.9,29.8c-0.3,0.3-0.4,0.8-0.1,1.1c0.3,0.3,0.8,0.4,1.1,0.1c0.3-0.3,0.4-0.8,0.1-1.1
					C82.7,29.6,82.2,29.6,81.9,29.8"/>
				<path class="st1" d="M83.3,31.6c-0.3,0.3-0.4,0.7-0.1,1.1c0.3,0.3,0.7,0.4,1.1,0.1c0.3-0.3,0.4-0.7,0.1-1.1
					C84.1,31.4,83.6,31.3,83.3,31.6"/>
				<path class="st1" d="M84.6,33.4c-0.4,0.2-0.4,0.7-0.2,1.1c0.2,0.4,0.7,0.5,1.1,0.2c0.4-0.2,0.4-0.7,0.2-1.1
					C85.4,33.3,84.9,33.2,84.6,33.4"/>
				<path class="st1" d="M85.8,35.4c-0.4,0.2-0.5,0.7-0.3,1.1c0.2,0.4,0.7,0.5,1.1,0.3c0.4-0.2,0.5-0.7,0.3-1.1
					C86.6,35.3,86.1,35.1,85.8,35.4"/>
				<path class="st1" d="M86.8,37.3c-0.4,0.2-0.5,0.7-0.3,1c0.2,0.4,0.7,0.5,1,0.3c0.4-0.2,0.5-0.7,0.3-1
					C87.7,37.3,87.2,37.1,86.8,37.3"/>
				<path class="st1" d="M87.8,39.4c-0.4,0.2-0.6,0.6-0.4,1c0.2,0.4,0.6,0.6,1,0.4c0.4-0.2,0.6-0.6,0.4-1
					C88.6,39.4,88.1,39.2,87.8,39.4"/>
				<path class="st1" d="M88.6,41.5c-0.4,0.1-0.6,0.6-0.5,1c0.1,0.4,0.6,0.6,1,0.5c0.4-0.1,0.6-0.6,0.5-1
					C89.4,41.6,89,41.3,88.6,41.5"/>
				<path class="st1" d="M89.3,43.6c-0.4,0.1-0.6,0.6-0.5,1c0.1,0.4,0.6,0.6,1,0.5c0.4-0.1,0.6-0.6,0.5-1
					C90.1,43.7,89.7,43.5,89.3,43.6"/>
				<path class="st1" d="M89.8,45.8c-0.4,0.1-0.7,0.5-0.6,0.9c0,0,0,0.1,0,0.1c-1.3,0-4.1,0.4-5.8,0.7c-2.2,0.4-6.7,1-6.6,1.5
					c0.1,0.5,1.5,0.2,6.5-0.4c3.8-0.5,5.6-1,6.2-1.3c0.2,0.1,0.3,0.1,0.5,0.1c0.4-0.1,0.7-0.5,0.6-0.9C90.6,46,90.2,45.7,89.8,45.8"
					/>
				<path class="st1" d="M90.2,48c-0.4,0.1-0.7,0.5-0.6,0.9c0.1,0.4,0.5,0.7,0.9,0.6c0.4-0.1,0.7-0.5,0.6-0.9
					C91.1,48.2,90.6,48,90.2,48"/>
				<path class="st1" d="M90.7,51.8c0.4,0,0.7-0.4,0.7-0.9c0-0.4-0.4-0.7-0.9-0.7c-0.4,0-0.7,0.4-0.7,0.9
					C89.9,51.5,90.3,51.9,90.7,51.8"/>
				<path class="st1" d="M90.7,52.5c-0.4,0-0.8,0.4-0.7,0.8c0,0.4,0.4,0.8,0.8,0.7c0.4,0,0.8-0.4,0.7-0.8
					C91.4,52.8,91.1,52.5,90.7,52.5"/>
				<path class="st1" d="M90.7,54.8c-0.4,0-0.8,0.3-0.8,0.8c0,0.4,0.3,0.8,0.8,0.8c0.4,0,0.8-0.3,0.8-0.8
					C91.4,55.1,91.1,54.8,90.7,54.8"/>
				<path class="st1" d="M91.3,57.9c0-0.4-0.3-0.8-0.7-0.8c-0.4,0-0.8,0.3-0.8,0.7c0,0.4,0.3,0.8,0.7,0.8
					C90.8,58.6,91.2,58.3,91.3,57.9"/>
				<path class="st1" d="M90.9,60.1c0.1-0.4-0.2-0.8-0.7-0.9c-0.4-0.1-0.8,0.2-0.9,0.7c-0.1,0.4,0.2,0.8,0.7,0.9
					C90.5,60.9,90.9,60.6,90.9,60.1"/>
				<path class="st1" d="M90.5,62.4c0.1-0.4-0.2-0.8-0.6-0.9c-0.4-0.1-0.8,0.2-0.9,0.6c-0.1,0.4,0.2,0.8,0.6,0.9
					C90,63.1,90.4,62.8,90.5,62.4"/>
				<path class="st1" d="M89.9,64.6c0.1-0.4-0.1-0.8-0.6-1c-0.4-0.1-0.8,0.1-0.9,0.5c-0.1,0.4,0.1,0.8,0.6,1
					C89.3,65.3,89.8,65,89.9,64.6"/>
				<path class="st1" d="M88.3,66.8c0.1-0.4-0.1-0.8-0.5-1c-0.3-0.1-0.6,0-0.8,0.2c-0.8-0.7-4.1-2-5.9-2.7c-2.2-0.8-6.6-2.8-6.7-2.3
					c-0.2,0.5,1.2,1,6.1,3.2c3.7,1.7,5.6,2.2,6.4,2.2c-0.1,0.4,0.1,0.8,0.5,0.9C87.7,67.4,88.2,67.2,88.3,66.8"/>
				<path class="st1" d="M88.3,68.9c0.2-0.4,0-0.9-0.4-1c-0.4-0.2-0.8,0-1,0.4c-0.2,0.4,0,0.9,0.4,1C87.7,69.5,88.1,69.3,88.3,68.9"
					/>
				<path class="st1" d="M87.3,71c0.2-0.4,0-0.9-0.4-1c-0.4-0.2-0.8,0-1,0.4c-0.2,0.4,0,0.9,0.4,1C86.7,71.6,87.1,71.4,87.3,71"/>
				<path class="st1" d="M85.1,73.3c0.4,0.2,0.8,0.1,1.1-0.3c0.2-0.4,0.1-0.8-0.3-1.1c-0.4-0.2-0.8-0.1-1.1,0.3
					C84.6,72.6,84.8,73.1,85.1,73.3"/>
				<path class="st1" d="M85,75c0.2-0.4,0.1-0.8-0.2-1.1c-0.4-0.2-0.8-0.1-1.1,0.2c-0.2,0.4-0.1,0.8,0.2,1.1
					C84.2,75.4,84.7,75.3,85,75"/>
				<path class="st1" d="M82.5,77c0.3,0.3,0.8,0.2,1.1-0.2c0.2-0.4,0.2-0.8-0.2-1.1c-0.3-0.2-0.8-0.2-1.1,0.2
					C82.1,76.3,82.2,76.7,82.5,77"/>
				<path class="st1" d="M82.1,78.6c0.3-0.3,0.2-0.8-0.1-1.1c-0.3-0.3-0.8-0.2-1.1,0.1c-0.3,0.3-0.2,0.8,0.1,1.1
					C81.4,79,81.9,78.9,82.1,78.6"/>
				<path class="st1" d="M80.6,80.3c0.3-0.3,0.3-0.8,0-1.1c-0.3-0.3-0.8-0.3-1.1,0c-0.3,0.3-0.3,0.8,0,1.1
					C79.8,80.6,80.3,80.6,80.6,80.3"/>
				<path class="st1" d="M77.8,80.7c-0.3,0.3-0.3,0.8,0,1.1c0.3,0.3,0.8,0.3,1.1,0c0.3-0.3,0.3-0.8,0-1.1
					C78.6,80.5,78.2,80.5,77.8,80.7"/>
				<path class="st1" d="M76.1,82.2c-0.3,0.3-0.4,0.8-0.1,1.1c0.3,0.3,0.8,0.4,1.1,0.1c0.3-0.3,0.4-0.8,0.1-1.1
					C77,81.9,76.5,81.9,76.1,82.2"/>
				<path class="st1" d="M75.3,84.7c0.3-0.3,0.4-0.7,0.2-1.1c-0.3-0.3-0.7-0.4-1.1-0.2c-0.3,0.3-0.4,0.7-0.2,1.1
					C74.5,84.9,74.9,85,75.3,84.7"/>
				<path class="st1" d="M72.5,84.7c-0.4,0.2-0.5,0.7-0.2,1.1c0.2,0.4,0.7,0.5,1.1,0.2c0.4-0.2,0.5-0.7,0.2-1.1
					C73.4,84.5,72.9,84.4,72.5,84.7"/>
				<path class="st1" d="M70.6,85.8c-0.4,0.2-0.5,0.7-0.3,1.1c0.2,0.4,0.7,0.5,1.1,0.3c0.4-0.2,0.5-0.7,0.3-1.1
					C71.4,85.7,71,85.6,70.6,85.8"/>
				<path class="st1" d="M68.6,86.7c-0.4,0.2-0.5,0.7-0.4,1c0.2,0.4,0.7,0.5,1,0.4c0.4-0.2,0.5-0.7,0.4-1
					C69.5,86.7,69,86.5,68.6,86.7"/>
				<path class="st1" d="M66.6,87.6c-0.4,0.2-0.6,0.6-0.4,1c0.2,0.4,0.6,0.6,1,0.4c0.4-0.2,0.6-0.6,0.4-1
					C67.4,87.6,67,87.4,66.6,87.6"/>
				<path class="st1" d="M65,89.8c0.4-0.1,0.6-0.6,0.5-1c-0.1-0.4-0.6-0.6-1-0.5c-0.4,0.1-0.6,0.6-0.5,1
					C64.1,89.7,64.6,89.9,65,89.8"/>
				<path class="st1" d="M62.4,88.9c-0.4,0.1-0.7,0.5-0.5,1c0.1,0.4,0.5,0.7,1,0.5c0.4-0.1,0.7-0.5,0.5-1
					C63.2,89,62.8,88.8,62.4,88.9"/>
				<path class="st1" d="M60.2,89.3c-0.4,0.1-0.7,0.5-0.6,0.9c0.1,0.4,0.5,0.7,0.9,0.6c0.4-0.1,0.7-0.5,0.6-0.9
					C61,89.5,60.6,89.2,60.2,89.3"/>
				<path class="st1" d="M58.3,91.2c0.4-0.1,0.7-0.5,0.7-0.9c-0.1-0.4-0.5-0.7-0.9-0.7c-0.4,0.1-0.7,0.5-0.7,0.9
					C57.4,91,57.8,91.3,58.3,91.2"/>
				<path class="st1" d="M56,91.4c0.4,0,0.7-0.4,0.7-0.8c0-0.4-0.4-0.7-0.8-0.7c-0.4,0-0.7,0.4-0.7,0.8C55.2,91.1,55.5,91.4,56,91.4
					"/>
				<path class="st1" d="M53.7,91.5c0.4,0,0.8-0.4,0.8-0.8c0-0.4-0.4-0.8-0.8-0.8c-0.4,0-0.8,0.4-0.8,0.8
					C52.9,91.1,53.2,91.5,53.7,91.5"/>
				<path class="st1" d="M51.4,89.8c-0.4,0-0.8,0.3-0.8,0.8c0,0.4,0.3,0.8,0.7,0.8c0.4,0,0.8-0.3,0.8-0.8
					C52.2,90.2,51.8,89.9,51.4,89.8"/>
				<path class="st1" d="M48.4,90.3c0,0.4,0.3,0.8,0.7,0.8c0.4,0,0.8-0.3,0.8-0.7c0-0.4-0.3-0.8-0.7-0.8
					C48.8,89.6,48.4,89.9,48.4,90.3"/>
				<path class="st1" d="M46.8,90.8c0.4,0.1,0.8-0.2,0.9-0.6c0.1-0.4-0.2-0.8-0.6-0.9c-0.4-0.1-0.8,0.2-0.9,0.6
					C46.1,90.4,46.4,90.7,46.8,90.8"/>
				<path class="st1" d="M45.5,89.7c0.1-0.4-0.2-0.8-0.6-0.9c-0.4-0.1-0.8,0.2-0.9,0.6c-0.1,0.4,0.2,0.8,0.6,0.9
					C45,90.4,45.4,90.1,45.5,89.7"/>
				<path class="st1" d="M41.8,88.7c-0.1,0.4,0.1,0.8,0.5,1c0.4,0.1,0.8-0.1,1-0.5c0.1-0.4-0.1-0.8-0.5-1
					C42.4,88.1,41.9,88.3,41.8,88.7"/>
				<path class="st1" d="M40.2,88.9c0.4,0.1,0.9-0.1,1-0.5c0.1-0.4-0.1-0.8-0.5-1c-0.4-0.1-0.9,0.1-1,0.5
					C39.5,88.3,39.8,88.8,40.2,88.9"/>
				<path class="st1" d="M38,88c0.4,0.2,0.9,0,1-0.4c0.2-0.4,0-0.8-0.4-1c-0.4-0.2-0.9,0-1,0.4C37.5,87.4,37.7,87.9,38,88"/>
				<path class="st1" d="M35.6,86c-0.2,0.4,0,0.8,0.3,1c0.4,0.2,0.9,0,1-0.4c0.2-0.4,0-0.8-0.3-1C36.3,85.4,35.8,85.6,35.6,86"/>
				<path class="st1" d="M34,85.9c0.4,0.2,0.9,0.1,1.1-0.3c0.2-0.4,0.1-0.8-0.3-1.1c-0.4-0.2-0.8-0.1-1.1,0.3
					C33.5,85.2,33.6,85.6,34,85.9"/>
				<path class="st1" d="M32.9,83.3c-0.4-0.2-0.8-0.1-1.1,0.2c-0.2,0.4-0.1,0.8,0.2,1.1c0.4,0.2,0.8,0.1,1.1-0.2
					C33.4,84,33.3,83.5,32.9,83.3"/>
				<path class="st1" d="M30.1,82.1c-0.3,0.3-0.2,0.8,0.2,1.1c0.3,0.3,0.8,0.2,1.1-0.2c0.3-0.3,0.2-0.8-0.2-1.1
					C30.8,81.7,30.3,81.8,30.1,82.1"/>
				<path class="st1" d="M29.6,81.6c0.3-0.3,0.2-0.8-0.1-1.1c-0.3-0.3-0.8-0.2-1.1,0.1c-0.3,0.3-0.2,0.8,0.1,1.1
					C28.8,82,29.3,81.9,29.6,81.6"/>
				<path class="st1" d="M27.9,80.1c0.3-0.3,0.3-0.8,0-1.1c-0.3-0.3-0.8-0.3-1.1,0c-0.3,0.3-0.3,0.8,0,1.1
					C27.1,80.4,27.6,80.4,27.9,80.1"/>
				<path class="st1" d="M26.4,78.5c0.3-0.3,0.3-0.8,0-1.1c-0.3-0.3-0.8-0.3-1.1,0c-0.3,0.3-0.3,0.8,0,1.1
					C25.6,78.7,26.1,78.8,26.4,78.5"/>
				<path class="st1" d="M24.9,76.7c0.3-0.3,0.4-0.8,0.1-1.1c-0.3-0.3-0.8-0.4-1.1-0.1c-0.3,0.3-0.4,0.8-0.1,1.1
					C24.1,77,24.6,77,24.9,76.7"/>
				<path class="st1" d="M23.6,74.9c0.3-0.2,0.4-0.7,0.2-1.1c-0.2-0.3-0.7-0.4-1.1-0.2c-0.3,0.2-0.4,0.7-0.2,1.1
					C22.7,75.1,23.2,75.2,23.6,74.9"/>
				<path class="st1" d="M22.3,73.1c0.4-0.2,0.5-0.7,0.2-1.1c-0.2-0.4-0.7-0.5-1.1-0.2c-0.4,0.2-0.5,0.7-0.2,1.1
					C21.5,73.2,22,73.3,22.3,73.1"/>
				<path class="st1" d="M21.2,71.1c0.4-0.2,0.5-0.7,0.3-1.1c-0.2-0.4-0.7-0.5-1.1-0.3c-0.4,0.2-0.5,0.7-0.3,1.1
					C20.4,71.2,20.8,71.3,21.2,71.1"/>
				<path class="st1" d="M20.2,69.1c0.4-0.2,0.6-0.6,0.4-1c-0.2-0.4-0.6-0.6-1-0.4c-0.4,0.2-0.5,0.6-0.4,1
					C19.4,69.1,19.8,69.3,20.2,69.1"/>
				<path class="st1" d="M19.3,67c0.4-0.2,0.6-0.6,0.4-1c-0.2-0.4-0.6-0.6-1-0.4c-0.4,0.2-0.6,0.6-0.4,1C18.5,67,18.9,67.2,19.3,67"
					/>
				<path class="st1" d="M18.6,64.9c0.4-0.1,0.6-0.6,0.5-1c-0.1-0.4-0.6-0.6-1-0.5c-0.4,0.1-0.6,0.6-0.5,1
					C17.8,64.8,18.2,65,18.6,64.9"/>
				<path class="st1" d="M18,62.7c0.4-0.1,0.7-0.5,0.6-0.9c-0.1-0.4-0.5-0.7-1-0.6c-0.4,0.1-0.7,0.5-0.6,0.9
					C17.1,62.6,17.6,62.8,18,62.7"/>
				<path class="st1" d="M17.5,60.5c0.4-0.1,0.7-0.5,0.6-0.9c-0.1-0.4-0.5-0.7-0.9-0.6c-0.4,0.1-0.7,0.5-0.6,0.9
					C16.7,60.3,17.1,60.6,17.5,60.5"/>
				<path class="st1" d="M17.2,58.3c0.4-0.1,0.7-0.4,0.7-0.9c-0.1-0.4-0.5-0.7-0.9-0.7c-0.4,0.1-0.7,0.4-0.7,0.9
					C16.4,58,16.7,58.3,17.2,58.3"/>
				<path class="st1" d="M17,56c0.4,0,0.7-0.4,0.7-0.8c0-0.4-0.4-0.7-0.8-0.7c-0.4,0-0.7,0.4-0.7,0.8C16.2,55.7,16.5,56.1,17,56"/>
				<path class="st1" d="M16.9,53.8c0.4,0,0.8-0.4,0.8-0.8c0-0.4-0.4-0.8-0.8-0.8c-0.4,0-0.8,0.4-0.8,0.8
					C16.1,53.4,16.5,53.8,16.9,53.8"/>
				<path class="st1" d="M16.2,50.7c0,0.4,0.3,0.8,0.7,0.8c0.4,0,0.8-0.3,0.8-0.7c0-0.4-0.3-0.8-0.7-0.8
					C16.6,50,16.3,50.3,16.2,50.7"/>
				<path class="st1" d="M16.5,48.4c0,0.4,0.3,0.8,0.7,0.9c0.4,0,0.8-0.3,0.9-0.7c0-0.4-0.3-0.8-0.7-0.9
					C16.9,47.7,16.5,48,16.5,48.4"/>
				<path class="st1" d="M16.9,46.2c-0.1,0.4,0.2,0.8,0.6,0.9c0.4,0.1,0.8-0.2,0.9-0.6c0.1-0.4-0.2-0.8-0.6-0.9
					C17.4,45.5,17,45.7,16.9,46.2"/>
				<path class="st1" d="M17.4,43.9c-0.1,0.4,0.2,0.8,0.6,0.9c0.4,0.1,0.8-0.2,0.9-0.6c0.1-0.4-0.2-0.8-0.6-0.9
					C17.9,43.2,17.5,43.5,17.4,43.9"/>
				<path class="st1" d="M18.1,41.7c-0.1,0.4,0.1,0.9,0.5,1c0.4,0.1,0.8-0.1,1-0.5c0.1-0.4-0.1-0.8-0.5-1
					C18.6,41.1,18.2,41.3,18.1,41.7"/>
				<path class="st1" d="M18.9,39.6c-0.1,0.4,0.1,0.9,0.5,1c0.4,0.1,0.8-0.1,1-0.5c0.1-0.4-0.1-0.8-0.5-1C19.5,39,19,39.2,18.9,39.6
					"/>
				<path class="st1" d="M19.8,37.5c-0.2,0.4,0,0.9,0.4,1c0.4,0.2,0.8,0,1-0.4c0.2-0.4,0-0.9-0.4-1C20.4,36.9,20,37.1,19.8,37.5"/>
				<path class="st1" d="M20.9,35.4c-0.2,0.4,0,0.9,0.3,1.1c0.4,0.2,0.8,0.1,1-0.3c0.2-0.4,0-0.8-0.3-1.1
					C21.5,34.9,21.1,35,20.9,35.4"/>
				<path class="st1" d="M22.1,33.4c-0.2,0.4-0.1,0.9,0.3,1.1c0.4,0.2,0.8,0.1,1.1-0.3c0.2-0.4,0.1-0.8-0.3-1.1
					C22.8,33,22.3,33.1,22.1,33.4"/>
				<path class="st1" d="M23.4,31.5c-0.2,0.4-0.2,0.8,0.2,1.1c0.4,0.2,0.8,0.2,1.1-0.2c0.2-0.4,0.1-0.8-0.2-1.1
					C24.1,31.1,23.6,31.2,23.4,31.5"/>
				<path class="st1" d="M26,30.7c0.3-0.3,0.2-0.8-0.1-1.1c-0.3-0.3-0.8-0.2-1.1,0.1c-0.3,0.3-0.2,0.8,0.1,1.1
					C25.2,31.1,25.7,31,26,30.7"/>
				<path class="st1" d="M26.4,29.1c0.3,0.3,0.8,0.3,1.1-0.1c0.3-0.3,0.2-0.8-0.1-1.1c-0.3-0.3-0.8-0.2-1.1,0.1
					C26,28.3,26,28.8,26.4,29.1"/>
				<path class="st1" d="M29,27.5c0.3-0.3,0.3-0.8,0-1.1c-0.3-0.3-0.8-0.3-1.1,0c-0.3,0.3-0.3,0.8,0,1.1
					C28.2,27.8,28.7,27.8,29,27.5"/>
				<path class="st1" d="M30.7,26c0.3-0.3,0.3-0.8,0.1-1.1c-0.3-0.3-0.8-0.3-1.1-0.1c-0.3,0.3-0.3,0.8-0.1,1.1
					C29.9,26.3,30.3,26.3,30.7,26"/>
				<path class="st1" d="M32.4,24.6c0.3-0.3,0.4-0.8,0.1-1.1c-0.3-0.3-0.8-0.4-1.1-0.1c-0.3,0.3-0.4,0.8-0.1,1.1
					C31.6,24.8,32.1,24.9,32.4,24.6"/>
				<path class="st1" d="M33.3,22.1c-0.4,0.3-0.4,0.7-0.2,1.1c0.2,0.3,0.7,0.4,1.1,0.2c0.4-0.2,0.4-0.7,0.2-1.1
					C34.2,22,33.7,21.9,33.3,22.1"/>
				<path class="st1" d="M35.3,20.9c-0.4,0.2-0.5,0.7-0.3,1.1c0.2,0.4,0.7,0.5,1.1,0.3c0.4-0.2,0.5-0.7,0.3-1.1
					C36.2,20.8,35.7,20.7,35.3,20.9"/>
				<path class="st1" d="M38.1,21.2c0.4-0.2,0.5-0.7,0.3-1.1c-0.2-0.4-0.7-0.5-1-0.3c-0.4,0.2-0.5,0.7-0.3,1.1
					C37.2,21.3,37.7,21.4,38.1,21.2"/>
				<path class="st1" d="M40.1,20.3c0.4-0.2,0.6-0.6,0.4-1c-0.2-0.4-0.6-0.6-1-0.4c-0.4,0.2-0.6,0.6-0.4,1
					C39.2,20.3,39.7,20.5,40.1,20.3"/>
				<path class="st1" d="M42.2,19.6c0.4-0.1,0.6-0.6,0.5-1c-0.2-0.4-0.6-0.6-1-0.5c-0.4,0.2-0.6,0.6-0.5,1
					C41.3,19.5,41.7,19.7,42.2,19.6"/>
				<path class="st1" d="M43.8,17.4c-0.4,0.1-0.6,0.6-0.5,1c0.1,0.4,0.6,0.6,1,0.5c0.4-0.1,0.6-0.6,0.5-1
					C44.7,17.5,44.2,17.3,43.8,17.4"/>
				<path class="st1" d="M46.4,18.4c0.4-0.1,0.7-0.5,0.6-0.9c-0.1-0.4-0.5-0.7-0.9-0.6c-0.4,0.1-0.7,0.5-0.6,0.9
					C45.6,18.2,46,18.5,46.4,18.4"/>
				<path class="st1" d="M49.2,17.1c-0.1-0.4-0.5-0.7-0.9-0.6c-0.4,0.1-0.7,0.5-0.6,0.9c0.1,0.4,0.5,0.7,0.9,0.6
					C49,17.9,49.3,17.5,49.2,17.1"/>
				<path class="st1" d="M50.6,16.2c-0.4,0.1-0.7,0.4-0.7,0.9c0,0.4,0.4,0.7,0.9,0.7c0.4,0,0.7-0.4,0.7-0.9
					C51.4,16.5,51,16.2,50.6,16.2"/>
				<path class="st1" d="M53.7,16.8c0-0.4-0.4-0.8-0.8-0.7c-0.4,0-0.8,0.4-0.7,0.8c0,0.4,0.4,0.8,0.8,0.7
					C53.4,17.6,53.7,17.3,53.7,16.8"/>
				<polyline class="st1" points="31,92.5 31.6,90.9 33.2,90.4 31.8,89.4 31.9,87.7 30.5,88.7 28.9,88.1 29.4,89.7 28.4,91.1 
					30.1,91.1 31,92.5 				"/>
				<polyline class="st1" points="76.5,92.5 77.5,91.1 79.2,91.1 78.1,89.7 78.6,88.1 77,88.7 75.7,87.7 75.7,89.4 74.4,90.4 
					76,90.9 76.5,92.5 				"/>
				<path class="st1" d="M27,44.6c-4.8-2.1-6.6-2.2-6.6-2c-0.2,0.4,3.9,2.1,6.1,2.9c2.2,0.8,6.5,2.6,6.6,2.1
					C33.2,47.1,31.8,46.6,27,44.6"/>
				<path class="st1" d="M18.6,50.6c-0.1,0.5,4.3,1.1,6.6,1.3c2.3,0.2,6.9,1,7,0.4c0-0.5-1.4-0.6-6.6-1.4
					C20.3,50.1,18.6,50.4,18.6,50.6"/>
				<path class="st1" d="M32.9,56.5c-0.1-0.5-1.5-0.4-6.8-0.3c-5.3,0.1-6.9,0.7-6.9,0.9c0,0.5,4.4,0.3,6.7,0.2
					C28.2,57.1,32.9,57,32.9,56.5"/>
				<path class="st1" d="M33.2,60.8c-0.2-0.4-1.3,0-5.7,1.1c-4.4,1.1-5.7,2-5.6,2.2c0.1,0.4,3.8-0.6,5.7-1.2
					C29.4,62.2,33.3,61.2,33.2,60.8"/>
				<path class="st1" d="M35.7,64.3c-0.3-0.4-1.5,0.3-6.3,2.7c-4.8,2.4-6,3.6-5.9,3.8c0.2,0.5,4.2-1.6,6.2-2.8
					C31.7,66.9,36,64.8,35.7,64.3"/>
				<path class="st1" d="M39.3,67.7c-0.4-0.4-1.5,0.6-5.8,3.8c-4.3,3.2-5.3,4.7-5.1,4.8c0.3,0.4,3.8-2.4,5.6-3.9
					C35.8,71,39.7,68.1,39.3,67.7"/>
				<path class="st1" d="M36.4,74.1c1.5-1.6,4.8-4.7,4.5-5c-0.4-0.3-1.3,0.7-5,4.1c-3.7,3.4-4.5,4.9-4.3,5.1
					C31.8,78.6,34.8,75.7,36.4,74.1"/>
				<path class="st1" d="M41.8,70.7c-0.4-0.3-1.3,0.9-4.8,5c-3.5,4.1-4.1,5.7-3.9,5.9c0.4,0.3,3.2-3.1,4.6-5
					C39.2,74.6,42.3,71,41.8,70.7"/>
				<path class="st1" d="M43.3,71.7c-0.4-0.2-1,0.9-3.6,4.6c-2.6,3.7-3,5.2-2.8,5.3c0.3,0.3,2.4-2.9,3.5-4.6
					C41.4,75.3,43.7,72,43.3,71.7"/>
				<path class="st1" d="M45.3,72.5c-0.5-0.2-1,1.2-3.5,5.9c-2.4,4.8-2.7,6.5-2.5,6.6c0.4,0.2,2.4-3.8,3.3-6
					C43.7,76.9,45.8,72.7,45.3,72.5"/>
				<path class="st1" d="M50.1,74.2c-0.5-0.1-0.9,1.3-2.7,6.3c-1.8,5-1.8,6.8-1.6,6.9c0.5,0.2,1.9-4.1,2.5-6.3
					C49,78.8,50.6,74.3,50.1,74.2"/>
				<path class="st1" d="M54.2,75.2c-0.5,0-0.6,1.5-1.1,6.8c-0.6,5.3-0.2,7,0.1,7.1c0.5,0.1,0.9-4.4,1-6.8
					C54.2,80,54.7,75.2,54.2,75.2"/>
				<path class="st1" d="M59.8,81.3c-0.4-2.3-1-7.1-1.5-7c-0.5,0.1-0.2,1.6,0.4,6.9c0.6,5.3,1.4,6.9,1.6,6.9
					C60.8,88,60.2,83.6,59.8,81.3"/>
				<path class="st1" d="M65.2,79.7c-0.8-2.2-2.3-6.8-2.8-6.5c-0.5,0.2,0.1,1.6,1.7,6.7c1.6,5.1,2.7,6.5,2.9,6.4
					C67.5,86.2,66,81.9,65.2,79.7"/>
				<path class="st1" d="M73.9,82.3c0.4-0.3-2.1-4-3.5-5.9c-1.4-1.9-4-5.9-4.4-5.6c-0.4,0.3,0.5,1.5,3.4,6
					C72.3,81.4,73.7,82.5,73.9,82.3"/>
				<path class="st1" d="M81.3,76.1c0.4-0.4-2.9-3.4-4.7-4.9c-1.8-1.5-5.2-4.9-5.5-4.4c-0.3,0.4,0.8,1.3,4.7,5.1
					C79.6,75.5,81.2,76.3,81.3,76.1"/>
				<path class="st1" d="M83.9,73.3c0.3-0.4-3.3-3.1-5.2-4.4c-1.9-1.3-5.7-4.3-6-3.8c-0.3,0.5,1,1.2,5.2,4.6
					C82.1,72.9,83.7,73.4,83.9,73.3"/>
				<path class="st1" d="M81.8,59.9c4.9,1.3,6.6,1.2,6.6,1c0.1-0.5-4-1.5-6.2-1.9c-2.2-0.5-6.6-1.6-6.7-1.1
					C75.5,58.3,76.9,58.6,81.8,59.9"/>
				<path class="st1" d="M81.1,42.7c-1.9,0.7-5.7,2.1-5.5,2.5c0.2,0.4,1.3-0.1,5.7-1.6c4.3-1.5,5.5-2.4,5.4-2.6
					C86.6,40.7,83,42,81.1,42.7"/>
				<path class="st1" d="M68.4,36.7c0.4,0.3,1.2-0.8,4.7-4.2c3.4-3.5,4.1-4.9,3.9-5.1c-0.3-0.3-3.1,2.7-4.5,4.3
					C71,33.2,68,36.4,68.4,36.7"/>
				<path class="st1" d="M79.9,41.2c4.4-2.1,5.5-3.3,5.4-3.5c-0.2-0.4-3.8,1.5-5.7,2.5c-1.9,1.1-5.8,3-5.5,3.4
					C74.3,44.1,75.5,43.4,79.9,41.2"/>
				<path class="st1" d="M89,53.6c0-0.4-3.9-0.5-6-0.5c-2.1,0-6.3-0.2-6.3,0.2c0,0.4,1.3,0.4,6,0.7C87.5,54.1,89,53.7,89,53.6"/>
				<path class="st1" d="M47.5,73.6c-0.3-0.1-0.7,0.8-2.2,4.2c-1.5,3.3-1.6,4.6-1.4,4.6c0.3,0.1,1.5-2.7,2.1-4.2
					C46.5,76.7,47.8,73.7,47.5,73.6"/>
				<path class="st1" d="M51.9,75.2c-0.3,0-0.5,0.9-1.3,4.2c-0.8,3.3-0.7,4.5-0.6,4.5c0.3,0.1,0.9-2.7,1.2-4.2
					C51.5,78.3,52.2,75.3,51.9,75.2"/>
				<path class="st1" d="M56.8,80.1c-0.1-1.6-0.1-4.9-0.5-4.8c-0.4,0-0.3,1.1-0.3,4.7c0,3.7,0.4,4.8,0.6,4.8
					C57,84.8,56.9,81.7,56.8,80.1"/>
				<path class="st1" d="M63.2,84.8c0.4-0.1-0.5-3.5-1-5.3c-0.5-1.8-1.4-5.5-1.8-5.4c-0.4,0.1,0,1.3,0.9,5.4
					C62.3,83.7,63,84.8,63.2,84.8"/>
				<path class="st1" d="M64.4,72.5c-0.4,0.2,0.1,1.1,1.5,4.8c1.4,3.6,2.3,4.6,2.4,4.6c0.4-0.1-0.9-3.1-1.6-4.7
					C66,75.6,64.7,72.3,64.4,72.5"/>
				<path class="st1" d="M67.9,70.1c-0.3,0.2,0.4,1.1,2.5,4.3c2.2,3.3,3.2,4,3.4,3.9c0.3-0.2-1.6-2.9-2.6-4.2
					C70.2,72.8,68.2,69.9,67.9,70.1"/>
				<path class="st1" d="M74.2,72.5c-1.5-1.3-4.4-4.1-4.7-3.8c-0.3,0.4,0.7,1.1,3.9,4.3c3.3,3.2,4.7,3.8,4.8,3.7
					C78.6,76.4,75.7,73.8,74.2,72.5"/>
				<path class="st1" d="M83.1,68.5c0.2-0.3-2.6-2-4.1-2.8c-1.5-0.8-4.5-2.7-4.7-2.3c-0.2,0.4,0.8,0.8,4.1,2.9
					C81.7,68.4,83,68.7,83.1,68.5"/>
				<path class="st1" d="M80.2,61.6c3.7,1.4,5,1.4,5,1.2c0.1-0.3-3-1.4-4.6-1.9c-1.6-0.5-4.9-1.7-5-1.3
					C75.5,59.9,76.5,60.2,80.2,61.6"/>
				<path class="st1" d="M76,55.1c0,0.4,1,0.5,4.8,1.3c3.8,0.8,5.1,0.6,5.2,0.4c0.1-0.4-3.1-0.9-4.8-1.2
					C79.5,55.4,76.1,54.7,76,55.1"/>
				<path class="st1" d="M86.4,50.9c0-0.3-3.1-0.4-4.8-0.4c-1.7,0-5-0.1-5,0.3c0,0.4,1.1,0.3,4.8,0.5C85.2,51.4,86.4,51.1,86.4,50.9
					"/>
				<path class="st1" d="M76.4,46.9c0.1,0.4,1.2,0,5.4-1c4.1-1,5.3-1.7,5.3-1.9c-0.1-0.4-3.5,0.5-5.3,1.1
					C79.9,45.6,76.2,46.5,76.4,46.9"/>
				<path class="st1" d="M31.6,69.5c-3.3,2.1-4.1,3.1-4,3.2c0.2,0.3,2.9-1.5,4.3-2.5c1.4-1,4.3-2.9,4.1-3.2
					C35.7,66.8,34.9,67.5,31.6,69.5"/>
				<path class="st1" d="M34.6,42.9c0.2-0.4-1-1-5.2-3.5c-4.2-2.5-5.8-2.8-5.9-2.7c-0.2,0.4,3.3,2.4,5.2,3.4
					C30.6,41.1,34.4,43.3,34.6,42.9"/>
				<path class="st1" d="M36.7,38.8c0.1-0.8-1-1.4-4.4-4.8c-3.4-3.3-4.4-3.6-4.5-3.2c-0.1,0.7,2.7,3.3,4.2,4.6
					C33.6,36.7,36.6,39.6,36.7,38.8"/>
				<path class="st1" d="M33.1,25.3c-0.4,0.2,1.9,3.5,3.2,5.1c1.2,1.7,3.6,5.1,4,4.8c0.3-0.3-0.5-1.3-3.1-5.2
					C34.5,26.1,33.3,25.2,33.1,25.3"/>
				<path class="st1" d="M41.9,34.1c0.4-0.2-0.3-1.3-2.3-5.3c-2-4-3.1-5-3.3-4.9c-0.4,0.2,1.4,3.5,2.4,5.2
					C39.7,30.8,41.5,34.4,41.9,34.1"/>
				<path class="st1" d="M40.1,23.2c-0.3,0.1,1,3.3,1.8,4.9c0.8,1.6,2.2,5,2.5,4.8c0.3-0.2-0.2-1.2-1.7-5
					C41.1,24.2,40.2,23.2,40.1,23.2"/>
				<path class="st1" d="M43.2,21c-0.4,0.1,0.8,3.7,1.5,5.5c0.7,1.8,1.9,5.7,2.3,5.5c0.4-0.2-0.1-1.3-1.4-5.6
					C44.2,22.1,43.3,20.9,43.2,21"/>
				<path class="st1" d="M46.3,20.4c-0.4,0.1,0.6,3.7,1.2,5.5c0.6,1.9,1.6,5.7,2,5.6c0.4-0.2,0-1.3-1.1-5.6
					C47.3,21.6,46.4,20.4,46.3,20.4"/>
				<path class="st1" d="M54.6,24.5c0.1,2,0,5.9,0.4,5.9c0.4,0,0.4-1.3,0.5-5.7c0.1-4.4-0.3-5.8-0.5-5.8
					C54.6,18.8,54.5,22.5,54.6,24.5"/>
				<path class="st1" d="M60.1,30.5c0.4,0.1,0.6-1.2,1.7-5.5c1-4.3,0.9-5.8,0.7-5.8c-0.4-0.1-1.2,3.5-1.5,5.5
					C60.5,26.6,59.6,30.5,60.1,30.5"/>
				<path class="st1" d="M62,30.8c0.4,0.1,0.7-1,2.2-4.7c1.5-3.8,1.6-5.1,1.4-5.2c-0.3-0.1-1.5,3-2.1,4.7
					C62.9,27.3,61.6,30.7,62,30.8"/>
				<path class="st1" d="M66.1,32.9c0.3,0.2,0.8-0.7,2.9-3.5c2.1-2.8,2.4-4,2.3-4c-0.3-0.2-1.9,2.2-2.8,3.5
					C67.6,30.2,65.8,32.7,66.1,32.9"/>
				<path class="st1" d="M67.7,34.4c0.5,0.2,1-0.7,3.5-3.9c2.5-3.1,2.7-4.3,2.5-4.4c-0.4-0.2-2.4,2.5-3.3,3.9
					C69.4,31.4,67.2,34.2,67.7,34.4"/>
				<path class="st1" d="M70.9,38.2c0.5,0.3,1.3-0.6,4.7-3.5c3.4-2.9,4-4.2,3.8-4.4c-0.4-0.3-3.2,2.2-4.6,3.6
					C73.5,35.2,70.4,37.9,70.9,38.2"/>
				<path class="st1" d="M77.3,37.2c4-3.1,4.7-4.5,4.5-4.7c-0.5-0.4-3.7,2.3-5.4,3.8c-1.6,1.5-5.2,4.2-4.7,4.6
					C72.3,41.3,73.2,40.3,77.3,37.2"/>
				<path class="st1" d="M78.5,38.2c-1.4,1.1-4.6,3.3-4.1,3.6c0.4,0.3,1.3-0.4,4.8-2.8c3.5-2.4,4.2-3.5,4-3.7
					C82.8,35,79.9,37.1,78.5,38.2"/>
				<path class="st1" d="M50.6,19.5c-0.4,0,0,3.9,0.3,6c0.3,2,0.7,6.2,1.2,6.1c0.5-0.1,0.2-1.4-0.2-6C51.5,20.9,50.8,19.5,50.6,19.5
					"/>
				<path class="st1" d="M57.1,30.8c0.5,0,0.6-1.2,1.6-5.8c1-4.6,0.7-6.1,0.5-6.2c-0.4-0.1-1.1,3.8-1.4,5.8
					C57.4,26.6,56.6,30.7,57.1,30.8"/>
				<path class="st1" d="M63.8,32.5c0.4,0.2,0.9-1.1,2.8-5.3c2-4.2,2.1-5.8,1.9-5.9c-0.4-0.2-1.9,3.4-2.7,5.3
					C65.1,28.5,63.4,32.4,63.8,32.5"/>
				<path class="st1" d="M31.8,44.3c0.2-0.6-7.5-3.8-7.6-3.4C24,41.5,31.6,44.9,31.8,44.3"/>
				<path class="st1" d="M31.6,49.6c0.3-0.8-10.1-3.4-10.2-2.9C21.3,47.5,31.4,50.3,31.6,49.6"/>
				<path class="st1" d="M35.3,40.6c0.5-0.5-7.1-5.8-7.4-5.4C27.6,35.8,34.8,41.2,35.3,40.6"/>
				<path class="st1" d="M38.3,36.5c0.5-0.4-6-6.9-6.3-6.6C31.6,30.4,37.8,36.9,38.3,36.5"/>
				<path class="st1" d="M30.8,54.1c-0.1-0.9-8.8-0.5-8.7-0.1C22.1,54.8,30.9,55,30.8,54.1"/>
				<path class="st1" d="M22.6,59.9c0.2,0.7,8.9-0.4,8.6-1.2C31,57.8,22.5,59.4,22.6,59.9"/>
				<path class="st1" d="M24.3,66.6c0.3,0.7,9.1-2.7,8.7-3.6C32.5,62.2,24.1,66.2,24.3,66.6"/>
			</g>
		</g>
	</g>
</g>
</svg>
